<svg width="73" height="72" viewBox="0 0 73 72" fill="none" xmlns="http://www.w3.org/2000/svg">
<g clip-path="url(#clip0_212_2)">
<rect x="22.4431" y="21" width="35" height="25" transform="rotate(12.5755 22.4431 21)" fill="white"/>
<path d="M36.0643 31.5926C36.2217 32.1242 36.2241 32.6893 36.0718 33.2148C35.8801 33.967 35.5601 34.5045 35.0902 34.8398C34.6031 35.1708 34.039 35.373 33.4497 35.3866C32.7614 35.4297 32.0649 35.3614 31.3946 35.1905L30.4835 34.9583C30.2773 34.9057 30.0582 34.8317 29.8219 34.7532L31.286 29.0092C31.4107 29.0227 31.6557 29.067 31.9951 29.1717C32.326 29.2378 32.7214 29.3386 33.1683 29.4525C33.8774 29.6151 34.5388 29.8929 35.1095 30.3114C35.56 30.6265 35.8854 31.0736 36.0643 31.5926Z" fill="#FFC43D"/>
<path d="M55.1448 20.653L28.5019 13.862C24.4624 12.8324 20.3686 15.2481 19.3446 19.2656L12.852 44.7379C11.828 48.7553 14.266 52.8359 18.3054 53.8655L44.9484 60.6565C48.9878 61.6861 53.0816 59.2704 54.1056 55.253L60.5982 29.7807C61.6222 25.7632 59.1842 21.6826 55.1448 20.653ZM37.8901 37.4288C36.9585 38.2109 35.8129 38.6835 34.591 38.8091C33.3133 38.9385 31.9849 38.7638 30.5754 38.4045C30.1628 38.2994 29.8878 38.2293 29.7203 38.1684C29.5527 38.1074 29.3121 38.0461 28.9855 37.9629L27.5868 43.4505C27.5734 43.5746 27.4614 43.6552 27.3367 43.6417L24.002 42.7917C23.8645 42.7566 23.8132 42.6707 23.8524 42.5169L28.3362 24.9256C28.3667 24.8059 28.4357 24.7507 28.556 24.7814C28.8482 24.8558 29.1233 24.9259 29.523 25.0096C29.9399 25.0977 30.3696 25.2072 30.8381 25.3084C31.3065 25.4096 31.805 25.5367 32.3422 25.6554C32.8794 25.7741 33.3951 25.9055 33.9108 26.037C35.3203 26.3962 36.4455 26.8651 37.3166 27.4695C38.102 27.9792 38.7707 28.6594 39.2626 29.4584C39.6732 30.1457 39.933 30.9219 40.0207 31.7271C40.0955 32.5109 40.0456 33.281 39.8496 34.0503C39.4748 35.5205 38.8217 36.6467 37.8901 37.4288ZM50.1959 38.4171C50.1611 38.5538 50.062 38.5832 49.873 38.535C49.2585 38.3602 48.6095 38.2494 47.973 38.2328C47.4484 38.2083 46.9278 38.2395 46.4114 38.3264C46.0456 38.397 45.6839 38.5233 45.3736 38.7354L43.1513 47.4542C43.1077 47.6251 43.0215 47.676 42.8668 47.6365L39.4806 46.7734C39.3387 46.7555 39.2402 46.6393 39.2579 46.4982L41.6893 36.9589C41.7939 36.5486 41.9028 36.1212 41.9989 35.6723C42.095 35.2235 42.2083 34.779 42.3044 34.3301C42.4047 33.9369 42.4661 33.5521 42.532 33.1501C42.5366 33.0602 42.6099 32.9879 42.7002 32.9927C42.7046 32.9756 42.739 32.9844 42.7518 33.0059L45.7599 33.7726C45.9318 33.8164 46.0388 33.9711 46.0511 34.1381C46.0678 34.288 46.0674 34.4336 46.0453 34.5918C46.0361 34.7715 46.0226 34.9683 45.9962 35.1437C45.9655 35.3361 45.9304 35.5456 45.8737 35.7679C46.5419 35.301 47.2871 34.9629 48.0877 34.7665C48.9917 34.5235 49.9593 34.5335 50.8703 34.7657C50.995 34.7793 51.0764 34.891 51.063 35.0151L50.1959 38.4171Z" fill="#FFC43D"/>
</g>
<path d="M54.8273 16.669L25.5123 11.5481C21.0678 10.7718 16.8475 13.7325 16.0722 18.1709L11.1564 46.312C10.3811 50.7504 13.3477 54.9666 17.7922 55.743L47.1072 60.8638C51.5517 61.6402 55.772 58.6794 56.5473 54.2411L61.4631 26.0999C62.2384 21.6615 59.2718 17.4454 54.8273 16.669Z" stroke="#FFC43D" stroke-width="2"/>
<path d="M54.6762 11.8473L21.012 9.81198C15.9081 9.5034 11.5323 13.3748 11.2242 18.4716L9.27036 50.7879C8.9622 55.8848 12.8396 60.2551 17.9436 60.5637L51.6078 62.5991C56.7117 62.9076 61.0875 59.0363 61.3956 53.9394L63.3495 21.6231C63.6576 16.5263 59.7802 12.1559 54.6762 11.8473Z" stroke="#FFC43D" stroke-width="2"/>
<path d="M54.2415 7.16743L16.5313 8.39259C10.814 8.57833 6.34138 13.3447 6.52687 19.0541L7.70297 55.2544C7.88847 60.9638 12.661 65.4298 18.3783 65.244L56.0886 64.0189C61.8059 63.8331 66.2785 59.0668 66.093 53.3574L64.9169 17.1571C64.7314 11.4476 59.9589 6.98168 54.2415 7.16743Z" stroke="#FFC43D" stroke-width="2"/>
<path d="M52.6894 2.19293L11.3451 7.88774C5.0768 8.75115 0.705895 14.5102 1.56811 20.7699L7.03489 60.4587C7.8971 66.7183 13.6622 71.0812 19.9305 70.2178L61.2748 64.523C67.5431 63.6596 71.914 57.9005 71.0518 51.6409L65.585 11.9521C64.7228 5.69244 58.9577 1.32953 52.6894 2.19293Z" stroke="#FFC43D" stroke-width="2"/>
<defs>
<clipPath id="clip0_212_2">
<rect width="42.5726" height="41.2825" fill="white" transform="translate(21.1965 12) rotate(14.2996)"/>
</clipPath>
</defs>
</svg>
