<svg width="122" height="68" viewBox="0 0 122 68" fill="none" xmlns="http://www.w3.org/2000/svg">
<ellipse cx="60.9493" cy="34.057" rx="58.1528" ry="20.2858" transform="rotate(-6.65945 60.9493 34.057)" fill="white"/>
<path d="M19.9491 41.8811L19.1025 34.6304L21.3473 34.3683L23.4815 38.247L23.6702 38.2249L24.8336 33.9612L27.1181 33.6945L27.9646 40.9453L26.3556 41.1331L25.6331 34.9452L25.8638 34.9384L24.4954 39.8603L22.9459 40.0412L20.4705 35.5681L20.7165 35.5192L21.439 41.7072L19.9491 41.8811ZM32.1752 40.6449C31.6985 40.7006 31.2662 40.6772 30.8784 40.5749C30.4898 40.4659 30.1513 40.2973 29.8629 40.0692C29.5811 39.8404 29.3547 39.5681 29.1836 39.2525C29.0117 38.9302 28.9041 38.5837 28.8608 38.2129L28.8342 37.9844C28.7901 37.607 28.8146 37.2417 28.9076 36.8885C29.0064 36.528 29.1699 36.2035 29.398 35.9151C29.6327 35.6259 29.927 35.3869 30.2808 35.1979C30.6338 35.0023 31.0388 34.8778 31.4957 34.8245C31.9658 34.7696 32.3919 34.797 32.7738 34.9068C33.1617 35.0092 33.4998 35.1744 33.7882 35.4025C34.0766 35.6306 34.3104 35.9087 34.4897 36.2368C34.6681 36.5583 34.7794 36.9077 34.8235 37.2852L34.8502 37.5136C34.8934 37.8844 34.8686 38.2464 34.7756 38.5996C34.6818 38.9461 34.5209 39.2636 34.2928 39.552C34.0713 39.8396 33.7841 40.0812 33.431 40.2768C33.0772 40.4658 32.6586 40.5885 32.1752 40.6449ZM32.0187 39.3041C32.3299 39.2677 32.5804 39.1713 32.7702 39.0149C32.96 38.8585 33.094 38.655 33.1721 38.4042C33.2568 38.1527 33.2822 37.8813 33.2482 37.5899C33.2119 37.2787 33.1239 37.0138 32.9842 36.7951C32.8438 36.5699 32.6596 36.4001 32.4314 36.2858C32.2099 36.1707 31.9502 36.1306 31.6522 36.1654C31.3609 36.1994 31.1174 36.2983 30.9217 36.4621C30.726 36.6259 30.5858 36.8335 30.5011 37.0851C30.4222 37.3292 30.4009 37.6069 30.4373 37.9181C30.4713 38.2094 30.5552 38.4681 30.689 38.6941C30.8228 38.9201 31.0033 39.087 31.2307 39.1947C31.458 39.3024 31.7207 39.3388 32.0187 39.3041ZM38.7433 39.7573C38.1937 39.8214 37.7423 39.807 37.3891 39.714C37.0352 39.6144 36.7602 39.4149 36.5641 39.1157C36.374 38.809 36.2468 38.3808 36.1826 37.8312L35.6237 33.0438L37.1036 32.871L37.6695 37.718C37.6997 37.9763 37.7891 38.1672 37.9378 38.2908C38.0923 38.407 38.2953 38.4504 38.547 38.421L39.3515 38.3271L39.5081 39.668L38.7433 39.7573ZM35.1066 35.7721L34.9709 34.61L38.8644 34.1554L39.0001 35.3175L35.1066 35.7721ZM40.8269 39.4435L40.1914 34.0005L41.7806 33.815L42.4161 39.258L40.8269 39.4435ZM39.6031 35.2572L39.4663 34.0852L41.7806 33.815L41.9174 34.987L39.6031 35.2572ZM40.7446 33.3922C40.4466 33.427 40.2159 33.3768 40.0524 33.2415C39.8948 33.0988 39.8021 32.9083 39.7742 32.6699C39.7456 32.4249 39.792 32.2181 39.9132 32.0496C40.0404 31.8737 40.2529 31.7683 40.5509 31.7335C40.8489 31.6987 41.0767 31.7527 41.2343 31.8954C41.3977 32.0306 41.4938 32.2208 41.5224 32.4658C41.5502 32.7042 41.5005 32.9113 41.3734 33.0873C41.2522 33.2558 41.0425 33.3575 40.7446 33.3922ZM46.5599 38.9654C46.0832 39.0211 45.6509 38.9978 45.2631 38.8954C44.8745 38.7864 44.536 38.6178 44.2476 38.3897C43.9658 38.1609 43.7394 37.8886 43.5683 37.573C43.3964 37.2507 43.2888 36.9042 43.2455 36.5334L43.2189 36.305C43.1748 35.9275 43.1993 35.5622 43.2923 35.209C43.3911 34.8485 43.5546 34.524 43.7827 34.2356C44.0174 33.9464 44.3117 33.7074 44.6655 33.5184C45.0185 33.3228 45.4235 33.1983 45.8804 33.145C46.3505 33.0901 46.7766 33.1175 47.1585 33.2273C47.5464 33.3297 47.8845 33.4949 48.1729 33.723C48.4613 33.9511 48.6951 34.2292 48.8744 34.5573C49.0528 34.8788 49.1641 35.2282 49.2082 35.6057L49.2349 35.8341C49.2782 36.2049 49.2533 36.5669 49.1603 36.9201C49.0665 37.2666 48.9056 37.5841 48.6775 37.8725C48.456 38.1601 48.1688 38.4017 47.8157 38.5973C47.4619 38.7863 47.0433 38.909 46.5599 38.9654ZM46.4034 37.6246C46.7146 37.5882 46.9651 37.4919 47.1549 37.3355C47.3447 37.1791 47.4787 36.9755 47.5568 36.7247C47.6416 36.4732 47.6669 36.2018 47.6329 35.9104C47.5966 35.5992 47.5086 35.3343 47.369 35.1157C47.2285 34.8904 47.0443 34.7206 46.8162 34.6063C46.5946 34.4912 46.3349 34.4511 46.0369 34.4859C45.7456 34.5199 45.5021 34.6188 45.3064 34.7826C45.1108 34.9464 44.9706 35.1541 44.8858 35.4056C44.8069 35.6497 44.7857 35.9274 44.822 36.2386C44.856 36.53 44.9399 36.7886 45.0737 37.0146C45.2075 37.2407 45.388 37.4075 45.6154 37.5152C45.8427 37.6229 46.1054 37.6593 46.4034 37.6246ZM50.6466 38.297L50.0111 32.854L51.2726 32.7067L51.5451 35.0409L51.4557 35.0513C51.3908 34.4951 51.4062 34.0234 51.5019 33.6364C51.6043 33.2486 51.7904 32.9449 52.0601 32.7255C52.3298 32.5061 52.6732 32.372 53.0904 32.3233L53.1599 32.3152C53.7956 32.241 54.3033 32.3931 54.6831 32.7716C55.0687 33.1427 55.3107 33.7488 55.4088 34.5897L55.7718 37.6986L54.1826 37.8842L53.8092 34.6859C53.7752 34.3945 53.6613 34.1662 53.4675 34.0009C53.2737 33.8356 53.0311 33.77 52.7397 33.804C52.4417 33.8388 52.2113 33.963 52.0483 34.1767C51.8911 34.383 51.8303 34.6384 51.8659 34.943L52.2358 38.1115L50.6466 38.297ZM62.7596 37.0741C62.1107 37.1498 61.5321 37.11 61.024 36.9545C60.5151 36.7924 60.0805 36.5479 59.7201 36.2208C59.3664 35.8929 59.0875 35.5161 58.8834 35.0902C58.6793 34.6643 58.5513 34.2295 58.4995 33.7859L58.474 33.5674C58.4207 33.1105 58.4446 32.6546 58.5459 32.1998C58.6472 31.745 58.8292 31.321 59.0921 30.9279C59.3616 30.534 59.7124 30.2044 60.1445 29.9392C60.5833 29.6732 61.104 29.505 61.7066 29.4346C62.3621 29.3581 62.9558 29.4129 63.4877 29.5992C64.0187 29.7788 64.4617 30.066 64.8166 30.4609C65.1706 30.8491 65.4037 31.3219 65.5158 31.8794L63.8868 32.0696C63.8162 31.8093 63.6832 31.5899 63.4878 31.4114C63.2991 31.2321 63.0657 31.1016 62.7877 31.0199C62.5163 30.9375 62.2151 30.9156 61.884 30.9543C61.5661 30.9914 61.288 31.0809 61.0495 31.2229C60.8176 31.3641 60.6243 31.5477 60.4695 31.7739C60.3213 31.9992 60.2175 32.2597 60.158 32.5553C60.1044 32.8434 60.0973 33.1564 60.1367 33.4941C60.1777 33.845 60.2616 34.1608 60.3883 34.4413C60.5208 34.7144 60.6922 34.9461 60.9023 35.1364C61.1117 35.32 61.3587 35.4522 61.6434 35.5331C61.9346 35.6132 62.2491 35.6335 62.5868 35.5941C63.0371 35.5415 63.4169 35.4032 63.7264 35.1792C64.0358 34.9551 64.2456 34.6823 64.3557 34.3606L64.2869 35.4963L64.0851 33.768L65.585 33.5929L65.7659 35.1424C65.5134 35.682 65.1282 36.1196 64.6103 36.4553C64.0983 36.7835 63.4814 36.9898 62.7596 37.0741ZM62.2251 34.3074L62.0883 33.1353L66.0812 32.6691L66.218 33.8412L62.2251 34.3074ZM67.4854 36.331L66.8499 30.888L68.1113 30.7407L68.3838 33.0748L68.354 33.0783C68.2644 32.3102 68.3574 31.6986 68.6331 31.2436C68.9155 30.7877 69.3679 30.5235 69.9904 30.4508L70.199 30.4265L70.359 31.7972L69.9617 31.8435C69.5247 31.8946 69.2009 32.0532 68.9903 32.3194C68.779 32.579 68.6992 32.9306 68.751 33.3743L69.0746 36.1454L67.4854 36.331ZM74.9148 35.4636L74.727 33.8545L74.4588 33.8858L74.2547 32.1377C74.2222 31.8596 74.1316 31.6587 73.983 31.5351C73.8343 31.4115 73.6143 31.3667 73.3229 31.4008C73.1773 31.4178 72.9856 31.4435 72.748 31.478C72.5104 31.5124 72.2666 31.551 72.0165 31.5936C71.7664 31.6362 71.5395 31.6761 71.3358 31.7133L71.1792 30.3724C71.33 30.3414 71.5072 30.3073 71.7109 30.2701C71.9147 30.2329 72.1254 30.1982 72.3431 30.1661C72.5609 30.1339 72.7658 30.1066 72.9578 30.0842C73.514 30.0193 73.9901 30.0442 74.3861 30.1591C74.7887 30.2732 75.1083 30.4808 75.3448 30.7821C75.5806 31.0768 75.7279 31.4757 75.7866 31.979L76.1763 35.3163L74.9148 35.4636ZM73.1929 35.8056C72.8022 35.8512 72.4498 35.8219 72.1355 35.7176C71.828 35.6126 71.5763 35.4406 71.3806 35.2017C71.1841 34.9561 71.0647 34.6513 71.0221 34.2871C70.9757 33.8898 71.0405 33.5533 71.2164 33.2777C71.3915 32.9955 71.6575 32.7732 72.0144 32.6107C72.3705 32.4416 72.7903 32.3288 73.2737 32.2724L74.4358 32.1367L74.539 33.0207L73.367 33.1575C73.0889 33.19 72.8818 33.2846 72.7457 33.4415C72.6155 33.5909 72.5639 33.7815 72.591 34.0133C72.6165 34.2318 72.7102 34.4021 72.8721 34.5241C73.0399 34.6388 73.2628 34.6799 73.5409 34.6474C73.7197 34.6265 73.8751 34.5782 74.0072 34.5023C74.1452 34.4191 74.2516 34.2959 74.3265 34.1328C74.4015 33.9697 74.4297 33.7516 74.4112 33.4786L74.8351 33.8318C74.846 34.2131 74.7904 34.5418 74.6683 34.8178C74.5528 35.0931 74.3707 35.3157 74.122 35.4857C73.88 35.6549 73.5703 35.7615 73.1929 35.8056ZM77.7565 37.1454L76.8891 29.7158L78.1505 29.5686L78.4254 31.9226L78.2554 31.9323C78.2185 31.3863 78.2777 30.9162 78.433 30.5222C78.5876 30.1216 78.8229 29.8089 79.139 29.584C79.4543 29.3526 79.8238 29.2121 80.2476 29.1626C80.625 29.1186 80.9742 29.1483 81.295 29.2518C81.6225 29.3545 81.9101 29.5189 82.158 29.745C82.4118 29.9637 82.6146 30.2354 82.7666 30.5599C82.9245 30.8771 83.0266 31.2343 83.073 31.6316L83.0997 31.8601C83.1453 32.2508 83.1319 32.6248 83.0595 32.9823C82.9864 33.3332 82.8553 33.6471 82.6661 33.9243C82.4836 34.2006 82.2452 34.4298 81.951 34.6118C81.6627 34.7865 81.3198 34.897 80.9225 34.9434C80.512 34.9913 80.1315 34.9518 79.7811 34.8249C79.4365 34.6906 79.1448 34.4629 78.906 34.1418C78.6664 33.8141 78.5053 33.3832 78.4228 32.8491L78.9294 33.394L79.3457 36.9598L77.7565 37.1454ZM80.3202 33.6646C80.5917 33.6329 80.819 33.5392 81.0022 33.3836C81.192 33.2272 81.3293 33.0232 81.414 32.7717C81.4988 32.5202 81.523 32.2388 81.4866 31.9276C81.4503 31.6164 81.3623 31.3515 81.2227 31.1328C81.083 30.9142 80.9066 30.7536 80.6932 30.651C80.4791 30.5418 80.233 30.5034 79.9549 30.5358C79.7165 30.5637 79.4979 30.6462 79.2992 30.7835C79.1004 30.9209 78.9472 31.1032 78.8395 31.3305C78.7377 31.5505 78.7041 31.8095 78.7389 32.1075L78.7818 32.475C78.8151 32.7597 78.9099 32.997 79.0663 33.1868C79.2286 33.3692 79.4218 33.501 79.6461 33.5822C79.8703 33.6634 80.095 33.6909 80.3202 33.6646ZM84.5084 34.3435L83.6619 27.0927L85.2511 26.9072L85.7393 31.0888L85.5009 31.1166C85.4367 30.567 85.4521 30.0954 85.5471 29.7017C85.6421 29.308 85.8141 28.9993 86.0632 28.7756C86.3115 28.5452 86.6409 28.4061 87.0515 28.3582L87.121 28.3501C87.7236 28.2797 88.2089 28.4412 88.577 28.8345C88.9443 29.2211 89.1759 29.825 89.2718 30.6461L89.6336 33.7451L88.0444 33.9306L87.671 30.7323C87.6362 30.4344 87.519 30.2064 87.3193 30.0485C87.1255 29.8832 86.8862 29.8172 86.6015 29.8504C86.3035 29.8852 86.073 30.0094 85.91 30.2231C85.7537 30.436 85.6941 30.7014 85.7312 31.0192L86.0976 34.1579L84.5084 34.3435ZM91.2461 33.5568L90.6106 28.1138L92.1998 27.9282L92.8353 33.3713L91.2461 33.5568ZM90.0224 29.3705L89.8855 28.1984L92.1998 27.9282L92.3366 29.1003L90.0224 29.3705ZM91.1638 27.5055C90.8658 27.5403 90.6351 27.4901 90.4716 27.3548C90.314 27.2121 90.2213 27.0216 90.1935 26.7832C90.1649 26.5382 90.2112 26.3314 90.3325 26.1629C90.4596 25.9869 90.6721 25.8816 90.9701 25.8468C91.2681 25.812 91.4959 25.8659 91.6535 26.0086C91.817 26.1439 91.913 26.3341 91.9416 26.5791C91.9694 26.8175 91.9198 27.0246 91.7927 27.2005C91.6714 27.3691 91.4618 27.4707 91.1638 27.5055ZM96.7706 33.1031C96.3004 33.158 95.881 33.1298 95.5123 33.0184C95.1494 32.8997 94.8366 32.7214 94.5739 32.4836C94.3112 32.2458 94.1043 31.968 93.9531 31.65C93.8011 31.3255 93.7042 30.9844 93.6625 30.6268L93.6404 30.4381C93.5971 30.0673 93.6154 29.7061 93.6951 29.3544C93.7741 28.9962 93.914 28.6711 94.1149 28.3792C94.3157 28.0873 94.5794 27.845 94.9059 27.6525C95.2391 27.4593 95.6308 27.3363 96.0811 27.2838C96.5711 27.2266 97.016 27.2719 97.4159 27.4199C97.815 27.5612 98.1468 27.7876 98.4114 28.099C98.6759 28.4105 98.847 28.7831 98.9245 29.2171L97.3651 29.3991C97.31 29.1572 97.1867 28.9636 96.9952 28.8181C96.8095 28.6653 96.5578 28.6074 96.24 28.6445C95.9751 28.6755 95.761 28.7676 95.5977 28.9209C95.441 29.0734 95.3331 29.2706 95.2741 29.5124C95.2151 29.7542 95.2041 30.034 95.2412 30.3519C95.2752 30.6432 95.3459 30.9035 95.4532 31.1326C95.5597 31.355 95.7068 31.5224 95.8944 31.6348C96.0879 31.7397 96.327 31.7756 96.6117 31.7423C96.8236 31.7176 96.9981 31.6603 97.1353 31.5704C97.2783 31.4732 97.3852 31.3533 97.4558 31.2109C97.5322 31.061 97.57 30.8955 97.569 30.7144L99.1184 30.5335C99.1511 30.9861 99.0717 31.3981 98.8802 31.7694C98.6878 32.1342 98.4108 32.435 98.0492 32.6719C97.6868 32.9021 97.2606 33.0459 96.7706 33.1031ZM102.463 32.4183C101.688 32.5088 101.064 32.4206 100.59 32.1538C100.115 31.887 99.8315 31.4671 99.7377 30.8941L101.148 30.7294C101.195 30.8985 101.316 31.0421 101.511 31.1603C101.711 31.2711 101.994 31.3052 102.358 31.2627C102.636 31.2302 102.859 31.1572 103.027 31.0436C103.201 30.9226 103.278 30.7728 103.257 30.594C103.238 30.4351 103.154 30.3174 103.004 30.2409C102.853 30.1578 102.597 30.1173 102.235 30.1193L101.803 30.1294C101.14 30.1397 100.625 30.0152 100.259 29.7559C99.9 29.4958 99.6933 29.134 99.6392 28.6705C99.5943 28.2864 99.6529 27.9541 99.8147 27.6734C99.9766 27.3928 100.219 27.1665 100.541 26.9946C100.87 26.822 101.253 26.7102 101.69 26.6591C102.392 26.5772 102.976 26.6667 103.443 26.9277C103.909 27.182 104.186 27.5994 104.274 28.1798L102.863 28.3444C102.816 28.1687 102.706 28.0306 102.533 27.9299C102.359 27.8227 102.117 27.7872 101.806 27.8236C101.561 27.8522 101.371 27.9213 101.236 28.031C101.101 28.1407 101.043 28.2751 101.061 28.434C101.079 28.5863 101.156 28.6948 101.291 28.7596C101.426 28.8244 101.638 28.8567 101.926 28.8565L102.358 28.8464C103.035 28.8412 103.577 28.9659 103.982 29.2206C104.388 29.4752 104.62 29.8542 104.679 30.3575C104.721 30.7216 104.659 31.0511 104.492 31.3458C104.324 31.6338 104.067 31.872 103.72 32.0602C103.372 32.2417 102.953 32.3611 102.463 32.4183Z" fill="#FFC43D"/>
<rect x="11.6639" y="43.635" width="6.92541" height="6.92541" transform="rotate(47.9242 11.6639 43.635)" fill="white" stroke="#FFC43D" stroke-width="2"/>
<path d="M11.1824 53.0636L11.646 43.9873L16.4566 48.783L11.1824 53.0636Z" fill="#FFC43D"/>
<rect x="87.8348" y="42.5364" width="6.92541" height="6.92541" transform="rotate(14.1509 87.8348 42.5364)" fill="white" stroke="#FFC43D" stroke-width="2"/>
<path d="M92.6761 50.6417L88.0159 42.8394L94.6806 44.1515L92.6761 50.6417Z" fill="#FFC43D"/>
<rect x="62.0729" y="8.04976" width="6.92541" height="6.92541" transform="rotate(34.8429 62.0729 8.04976)" fill="white" stroke="#FFC43D" stroke-width="2"/>
<path d="M63.7377 17.3426L62.135 8.39697L67.9062 11.9794L63.7377 17.3426Z" fill="#FFC43D"/>
<circle cx="18.5379" cy="24.0858" r="4.86036" transform="rotate(-22.9111 18.5379 24.0858)" fill="white" stroke="#FFC43D" stroke-width="2"/>
<path d="M23.9359 21.8045C25.1959 24.7858 23.8005 28.224 20.8193 29.484C19.0853 25.3816 17.6253 21.9268 16.2564 18.688C19.2376 17.428 22.6759 18.8233 23.9359 21.8045Z" fill="#FFC43D"/>
<path d="M109.293 18.6147C108.291 21.4428 112.26 21.6371 111.353 24.1974L110.923 25.4098L99.8759 21.4948L100.306 20.2823C101.213 17.722 104.419 20.0706 105.421 17.2424C106.423 14.4143 102.454 14.22 103.361 11.6597L103.791 10.4473L114.839 14.3623L114.409 15.5748C113.502 18.1351 110.296 15.7865 109.293 18.6147Z" fill="#FFC43D"/>
<path d="M56.1847 54.188C56.9801 57.0812 60.3473 54.9703 61.0673 57.5895L61.4083 58.8298L50.1069 61.9367L49.7659 60.6964C49.0459 58.0772 53.019 58.1702 52.2236 55.277C51.4282 52.3838 48.061 54.4947 47.341 51.8756L47 50.6353L58.3014 47.5284L58.6424 48.7687C59.3624 51.3878 55.3894 51.2949 56.1847 54.188Z" fill="#FFC43D"/>
<path d="M62.8541 54.2587C69.9449 53.4308 76.682 52.1853 82.8536 50.6258M10.4623 29.2395C5.4265 32.9418 2.73641 36.9255 3.18894 40.8013C3.33107 42.0186 3.77735 43.1749 4.50096 44.2641M26.3179 21.2122C34.1207 18.3516 43.4669 16.0185 53.6786 14.5441M72.5514 12.9226C83.0478 12.6498 92.5212 13.5079 100.059 15.2912M114.922 22.0842C116.587 23.6905 117.588 25.4767 117.814 27.4181C118.549 33.7084 111.006 40.2826 98.5914 45.4775M43.4646 55.3415C34.0967 55.262 25.7268 54.2462 19.0732 52.4561" stroke="#FFC43D" stroke-width="3"/>
</svg>
