<svg width="97" height="62" viewBox="0 0 97 62" fill="none" xmlns="http://www.w3.org/2000/svg">
<rect x="9.64067" y="1.74979" width="87" height="43" transform="rotate(10.5744 9.64067 1.74979)" fill="white" stroke="#FFC43D" stroke-width="3"/>
<path d="M16.7693 29.0211L15.9266 21.4377L17.5879 21.7479L18.1876 28.1262L17.8489 27.8697L18.8516 28.0569L18.4235 28.1703L21.1563 22.414L22.7684 22.715L19.3939 29.5111L16.7693 29.0211ZM22.4672 30.0848L23.4728 24.6979L25.0456 24.9915L24.04 30.3785L22.4672 30.0848ZM22.5387 25.7239L22.7552 24.5639L25.0456 24.9915L24.8291 26.1515L22.5387 25.7239ZM24.1814 24.2808C23.8865 24.2258 23.681 24.1094 23.565 23.9318C23.4567 23.7488 23.4246 23.5394 23.4686 23.3035C23.5139 23.061 23.6194 22.8772 23.7852 22.7522C23.9587 22.6218 24.1929 22.5842 24.4878 22.6392C24.7827 22.6943 24.9843 22.8133 25.0926 22.9963C25.2086 23.1739 25.244 23.384 25.1987 23.6264C25.1547 23.8624 25.0459 24.0455 24.8724 24.1759C24.7066 24.3009 24.4763 24.3359 24.1814 24.2808ZM27.6833 31.2417C27.3032 31.1707 26.9687 31.0371 26.6798 30.8407C26.3975 30.6456 26.1643 30.4054 25.9802 30.1201C25.7973 29.8283 25.6748 29.5036 25.6127 29.1461C25.5571 28.7899 25.5654 28.4184 25.6376 28.0318L25.6798 27.8057C25.752 27.419 25.875 27.069 26.0488 26.7556C26.2291 26.4434 26.4507 26.1829 26.7134 25.9743C26.984 25.7603 27.2861 25.6132 27.6198 25.5331C27.9547 25.4464 28.3122 25.4386 28.6923 25.5095C29.1249 25.5903 29.4807 25.755 29.7598 26.0038C30.0401 26.246 30.2344 26.5672 30.3429 26.9672C30.4525 27.3607 30.4676 27.8246 30.3882 28.3591L30.0469 27.8987L30.7369 24.2025L32.3196 24.498L30.9799 31.674L29.7315 31.441L30.1481 29.2095L30.3643 29.2499C30.2493 29.7574 30.0598 30.173 29.7959 30.4967C29.5385 30.8217 29.2283 31.0486 28.8651 31.1775C28.5032 31.2998 28.1093 31.3212 27.6833 31.2417ZM28.3224 29.9979C28.5649 30.0431 28.7942 30.0317 29.0104 29.9635C29.2343 29.8901 29.4249 29.7595 29.582 29.5718C29.7456 29.3853 29.855 29.1446 29.9101 28.8497L29.978 28.486C30.0318 28.1977 30.0148 27.9436 29.927 27.7237C29.8392 27.5039 29.7035 27.3225 29.5199 27.1798C29.3363 27.037 29.1266 26.9436 28.8906 26.8995C28.6285 26.8506 28.3797 26.8754 28.1443 26.9738C27.9167 27.067 27.7219 27.2205 27.5599 27.4344C27.3991 27.6417 27.29 27.8994 27.2325 28.2074C27.1737 28.522 27.1819 28.805 27.2571 29.0564C27.3322 29.3078 27.463 29.5153 27.6495 29.679C27.836 29.8426 28.0603 29.9489 28.3224 29.9979ZM34.839 32.5877C34.3803 32.5021 33.9887 32.3476 33.6641 32.1243C33.3462 31.9021 33.0937 31.638 32.9067 31.3318C32.7275 31.0203 32.6062 30.6891 32.5429 30.3382C32.4873 29.9819 32.4919 29.6301 32.5568 29.2828L32.5935 29.0862C32.6608 28.7257 32.784 28.3927 32.9631 28.087C33.15 27.7761 33.3826 27.5109 33.6609 27.2916C33.9393 27.0723 34.2629 26.9191 34.6318 26.8319C35.0085 26.7395 35.4164 26.7343 35.8554 26.8162C36.4321 26.9239 36.8926 27.1455 37.2369 27.481C37.589 27.8113 37.8307 28.2056 37.9621 28.6642C38.0947 29.1162 38.1152 29.588 38.0234 30.0795L37.9243 30.6103L33.1567 29.7203L33.3237 28.8258L37.1378 29.5378L36.5495 29.8552C36.6095 29.5341 36.615 29.2503 36.5661 29.0038C36.5171 28.7573 36.4119 28.5579 36.2505 28.4057C36.0968 28.2482 35.8856 28.1443 35.6169 28.0942C35.3416 28.0428 35.0974 28.0616 34.8841 28.1506C34.6708 28.2397 34.4923 28.3963 34.3488 28.6204C34.2064 28.838 34.1028 29.1204 34.038 29.4677C33.978 29.7889 33.9713 30.0792 34.0178 30.3388C34.0655 30.5919 34.1754 30.8023 34.3476 30.9701C34.5197 31.1378 34.763 31.2511 35.0776 31.3098C35.366 31.3636 35.6123 31.352 35.8166 31.2748C36.0209 31.1977 36.1711 31.0833 36.2672 30.9317L37.7122 31.2015C37.5663 31.5472 37.3524 31.8396 37.0704 32.0786C36.7884 32.3175 36.4591 32.4832 36.0824 32.5757C35.7057 32.6681 35.2912 32.6721 34.839 32.5877ZM41.1306 33.7622C40.6587 33.6742 40.2528 33.5238 39.9127 33.3111C39.5738 33.0918 39.3005 32.8306 39.0926 32.5273C38.8913 32.2252 38.7557 31.8981 38.6858 31.546C38.6171 31.1873 38.617 30.8244 38.6855 30.4574L38.7277 30.2313C38.7975 29.8578 38.9291 29.5161 39.1225 29.2064C39.3238 28.8913 39.5761 28.6298 39.8793 28.4219C40.1892 28.2153 40.5411 28.0741 40.935 27.9985C41.3301 27.9163 41.7538 27.9173 42.206 28.0018C42.6713 28.0886 43.0701 28.2411 43.4024 28.4591C43.7424 28.6718 44.0164 28.9298 44.2243 29.2331C44.4322 29.5364 44.5731 29.8712 44.6471 30.2377C44.7223 30.5976 44.7251 30.9644 44.6553 31.3379L44.6131 31.564C44.5446 31.931 44.4136 32.2694 44.2202 32.5791C44.0279 32.8823 43.7802 33.1379 43.4769 33.3457C43.1801 33.5548 42.8342 33.7005 42.4391 33.7827C42.0451 33.8584 41.609 33.8516 41.1306 33.7622ZM41.3783 32.4352C41.6863 32.4927 41.9542 32.4749 42.1818 32.3817C42.4094 32.2886 42.5977 32.1338 42.7466 31.9175C42.902 31.7023 43.0067 31.4506 43.0605 31.1623C43.118 30.8542 43.1125 30.5752 43.0439 30.325C42.9765 30.0683 42.8508 29.8515 42.6668 29.6747C42.4893 29.4992 42.2531 29.3839 41.9582 29.3288C41.6699 29.275 41.408 29.2973 41.1726 29.3958C40.9372 29.4943 40.7418 29.6511 40.5863 29.8662C40.4386 30.076 40.3361 30.3349 40.2786 30.6429C40.2247 30.9313 40.2282 31.2032 40.289 31.4587C40.3498 31.7142 40.4729 31.927 40.6581 32.0973C40.8434 32.2675 41.0834 32.3801 41.3783 32.4352ZM46.9551 36.874C46.693 36.825 46.4261 36.765 46.1545 36.694C45.883 36.6229 45.6356 36.5496 45.4123 36.474L45.66 35.147C45.8833 35.2226 46.1307 35.2959 46.4023 35.3669C46.6792 35.4457 46.9323 35.5066 47.1617 35.5494C47.5877 35.6289 47.9409 35.644 48.2214 35.5946C48.5084 35.5465 48.7332 35.4324 48.8956 35.2525C49.0568 35.0792 49.1668 34.8352 49.2255 34.5206L49.4256 33.4492L49.8281 32.8732C49.7257 33.3492 49.5542 33.741 49.3136 34.0488C49.0796 34.3578 48.7915 34.5752 48.4492 34.7012C48.1082 34.8207 47.7246 34.8406 47.2987 34.7611C46.9317 34.6926 46.6097 34.5647 46.3327 34.3773C46.0635 34.1847 45.8467 33.9475 45.6822 33.6659C45.5178 33.3843 45.4098 33.0725 45.3584 32.7306C45.3081 32.3821 45.3185 32.0178 45.3894 31.6377L45.4316 31.4116C45.5026 31.0315 45.6276 30.6886 45.8068 30.383C45.9859 30.0773 46.2095 29.8241 46.4776 29.6232C46.7457 29.4223 47.046 29.2851 47.3784 29.2115C47.7122 29.1314 48.0658 29.1262 48.4393 29.1959C48.8719 29.2767 49.2277 29.4414 49.5067 29.6902C49.7924 29.9402 49.9927 30.2658 50.1077 30.6671C50.2227 31.0683 50.2384 31.529 50.1548 32.0492L49.9276 32.0678L50.3662 29.7184L51.6146 29.9515L50.7282 34.6994C50.6047 35.3613 50.387 35.8734 50.0752 36.2357C49.7635 36.598 49.3473 36.8289 48.8269 36.9284C48.313 37.0291 47.6891 37.011 46.9551 36.874ZM48.0379 33.5258C48.2804 33.5711 48.5097 33.5596 48.7259 33.4915C48.9433 33.4168 49.1267 33.2882 49.276 33.1059C49.4319 32.9247 49.5368 32.69 49.5906 32.4016L49.6438 32.1166C49.6964 31.8348 49.6782 31.5872 49.5892 31.3739C49.5079 31.1553 49.3781 30.9785 49.1999 30.8435C49.0229 30.7019 48.8229 30.6104 48.6001 30.5688C48.338 30.5198 48.0937 30.5387 47.8673 30.6252C47.6409 30.7118 47.4512 30.8561 47.2982 31.0582C47.1452 31.2602 47.0406 31.5119 46.9843 31.8134C46.9268 32.1214 46.9329 32.3972 47.0028 32.6408C47.0803 32.8791 47.2064 33.0756 47.381 33.2302C47.5634 33.3796 47.7823 33.4781 48.0379 33.5258ZM51.9709 35.5927L52.9765 30.2057L54.225 30.4388L53.7937 32.7489L53.7642 32.7434C53.9061 31.9832 54.1762 31.4266 54.5744 31.0737C54.9791 30.722 55.4895 30.6036 56.1056 30.7186L56.312 30.7572L56.0587 32.1137L55.6655 32.0403C55.233 31.9596 54.8768 32.0152 54.5968 32.207C54.318 32.3924 54.1377 32.7046 54.0557 33.1437L53.5437 35.8863L51.9709 35.5927ZM59.3238 36.9653L59.6211 35.3728L59.3557 35.3233L59.6786 33.5932C59.73 33.3179 59.703 33.0992 59.5977 32.9372C59.4923 32.7751 59.2954 32.6671 59.0071 32.6133C58.8629 32.5864 58.6722 32.5542 58.4351 32.5167C58.1979 32.4792 57.9536 32.4437 57.7021 32.4104C57.4507 32.377 57.2221 32.3479 57.0165 32.3231L57.2643 30.996C57.4174 31.011 57.5968 31.0309 57.8024 31.0558C58.008 31.0806 58.2196 31.1099 58.4371 31.1437C58.6545 31.1775 58.8583 31.2122 59.0484 31.2477C59.5989 31.3504 60.0462 31.5153 60.3904 31.7423C60.7411 31.9706 60.9848 32.2636 61.1215 32.6214C61.2594 32.9727 61.2818 33.3974 61.1888 33.8954L60.5722 37.1984L59.3238 36.9653ZM57.5778 36.7818C57.1912 36.7096 56.8632 36.5772 56.594 36.3845C56.3314 36.193 56.142 35.9542 56.0258 35.6681C55.9109 35.3753 55.8871 35.0488 55.9544 34.6883C56.0278 34.2951 56.1894 33.993 56.439 33.7819C56.6899 33.5642 57.0098 33.4306 57.3988 33.3812C57.7891 33.3252 58.2234 33.3418 58.7018 33.4311L59.8519 33.6459L59.6886 34.5207L58.5286 34.3042C58.2534 34.2528 58.0276 34.2819 57.8511 34.3913C57.6825 34.4955 57.5768 34.6623 57.5339 34.8916C57.4936 35.1079 57.5326 35.2983 57.6511 35.4628C57.7774 35.622 57.9781 35.7273 58.2534 35.7787C58.4303 35.8118 58.5931 35.8116 58.7417 35.7783C58.8981 35.7397 59.0363 35.6536 59.1562 35.52C59.2761 35.3864 59.3676 35.1865 59.4309 34.9202L59.731 35.3832C59.6285 35.7506 59.4781 36.048 59.2796 36.2755C59.0877 36.5042 58.8479 36.6628 58.5601 36.7515C58.2788 36.8414 57.9514 36.8515 57.5778 36.7818ZM61.5396 39.4135L62.9123 32.0605L64.1607 32.2936L63.7258 34.6234L63.5605 34.5823C63.6871 34.0498 63.8829 33.6185 64.148 33.2882C64.4144 32.9513 64.7318 32.7223 65.1002 32.6012C65.47 32.4736 65.8645 32.4489 66.2839 32.5272C66.6575 32.5969 66.9821 32.7288 67.2579 32.9227C67.5402 33.1178 67.7663 33.36 67.936 33.6494C68.1136 33.9335 68.2269 34.2531 68.2759 34.6081C68.3327 34.9578 68.3244 35.3292 68.251 35.7224L68.2088 35.9485C68.1366 36.3352 68.013 36.6885 67.838 37.0085C67.6642 37.3219 67.4459 37.583 67.1831 37.7916C66.9269 38.0015 66.6314 38.1498 66.2964 38.2365C65.9693 38.3178 65.6091 38.3218 65.2159 38.2484C64.8096 38.1725 64.4579 38.0221 64.1608 37.7971C63.8715 37.5667 63.6603 37.2628 63.5273 36.8854C63.3956 36.5013 63.3694 36.042 63.4489 35.5076L63.7713 36.1781L63.1125 39.7071L61.5396 39.4135ZM65.0194 36.8485C65.2881 36.8987 65.533 36.8766 65.7541 36.7822C65.9817 36.6891 66.1733 36.535 66.3287 36.3198C66.4842 36.1047 66.5906 35.8431 66.6481 35.5351C66.7056 35.2271 66.7001 34.948 66.6315 34.6979C66.5629 34.4477 66.4419 34.242 66.2686 34.0808C66.0964 33.913 65.8728 33.8034 65.5975 33.752C65.3616 33.708 65.1284 33.7221 64.8979 33.7944C64.6673 33.8666 64.467 33.9954 64.2968 34.1806C64.1343 34.3605 64.0256 34.5979 63.9705 34.8928L63.9026 35.2566C63.85 35.5384 63.8703 35.7931 63.9634 36.0207C64.0644 36.243 64.2099 36.4261 64.4 36.5701C64.5902 36.7141 64.7966 36.8069 65.0194 36.8485ZM68.8185 38.7378L70.1581 31.5618L71.731 31.8554L70.9584 35.9939L70.7225 35.9499C70.824 35.4059 70.9785 34.96 71.1858 34.6122C71.3932 34.2643 71.6489 34.0204 71.9531 33.8805C72.2585 33.7341 72.6144 33.6988 73.0207 33.7747L73.0895 33.7875C73.6858 33.8988 74.1015 34.1969 74.3366 34.6815C74.5729 35.1597 74.6151 35.8051 74.4634 36.6177L73.8909 39.6847L72.3181 39.3911L72.909 36.2258C72.964 35.9309 72.9196 35.6784 72.7757 35.4685C72.6395 35.2532 72.4306 35.1192 72.1488 35.0666C71.8539 35.0115 71.5969 35.0619 71.378 35.2177C71.1655 35.3747 71.03 35.6105 70.9712 35.9251L70.3913 39.0314L68.8185 38.7378ZM74.7356 42.0499L74.9851 40.713L76.1058 40.9222C76.2762 40.954 76.4246 40.958 76.5512 40.9341C76.6765 40.9168 76.7843 40.8658 76.8748 40.7809C76.9652 40.6961 77.0493 40.5727 77.1269 40.4109L79.4817 35.1538L80.9759 35.4327L78.3855 40.9714C78.2023 41.3712 77.9925 41.6779 77.7559 41.8915C77.5259 42.1063 77.2439 42.2367 76.9097 42.2828C76.5809 42.3367 76.1773 42.319 75.6989 42.2297L74.7356 42.0499ZM76.8466 40.1144L77.076 38.8857L78.2163 39.0985L77.9869 40.3273L76.8466 40.1144ZM76.1978 39.9933L75.53 34.416L77.1126 34.7115L77.692 40.2722L76.1978 39.9933Z" fill="#FFC43D"/>
<rect x="8.44141" width="90" height="11" transform="rotate(10.5744 8.44141 0)" fill="#FFC43D"/>
<rect x="1.83496" y="35.3887" width="90" height="10" transform="rotate(10.5744 1.83496 35.3887)" fill="#FFC43D"/>
<rect x="10.8398" y="3.49951" width="4" height="4" transform="rotate(10.5744 10.8398 3.49951)" fill="white"/>
<rect x="4.2334" y="38.8882" width="4" height="4" transform="rotate(10.5744 4.2334 38.8882)" fill="white"/>
<rect x="42.2964" y="9.37207" width="4" height="4" transform="rotate(10.5744 42.2964 9.37207)" fill="white"/>
<rect x="35.6899" y="44.7607" width="4" height="4" transform="rotate(10.5744 35.6899 44.7607)" fill="white"/>
<rect x="73.7529" y="15.2441" width="4" height="4" transform="rotate(10.5744 73.7529 15.2441)" fill="white"/>
<rect x="67.1467" y="50.6328" width="4" height="4" transform="rotate(10.5744 67.1467 50.6328)" fill="white"/>
<rect x="26.5681" y="6.43555" width="4" height="4" transform="rotate(10.5744 26.5681 6.43555)" fill="white"/>
<rect x="19.9617" y="41.8242" width="4" height="4" transform="rotate(10.5744 19.9617 41.8242)" fill="white"/>
<rect x="58.0247" y="12.3081" width="4" height="4" transform="rotate(10.5744 58.0247 12.3081)" fill="white"/>
<rect x="51.4185" y="47.6968" width="4" height="4" transform="rotate(10.5744 51.4185 47.6968)" fill="white"/>
<rect x="89.4814" y="18.1807" width="4" height="4" transform="rotate(10.5744 89.4814 18.1807)" fill="white"/>
<rect x="82.875" y="53.5693" width="4" height="4" transform="rotate(10.5744 82.875 53.5693)" fill="white"/>
<rect x="18.7041" y="4.96777" width="4" height="4" transform="rotate(10.5744 18.7041 4.96777)" fill="white"/>
<rect x="32.9644" y="15.7681" width="4" height="4" transform="rotate(10.5744 32.9644 15.7681)" fill="#FFC43D"/>
<rect x="29.1106" y="36.4111" width="4" height="4" transform="rotate(10.5744 29.1106 36.4111)" fill="#FFC43D"/>
<rect x="64.4209" y="21.6406" width="4" height="4" transform="rotate(10.5744 64.4209 21.6406)" fill="#FFC43D"/>
<rect x="60.5671" y="42.2837" width="4" height="4" transform="rotate(10.5744 60.5671 42.2837)" fill="#FFC43D"/>
<rect x="12.0977" y="40.3564" width="4" height="4" transform="rotate(10.5744 12.0977 40.3564)" fill="white"/>
<rect x="50.1606" y="10.8398" width="4" height="4" transform="rotate(10.5744 50.1606 10.8398)" fill="white"/>
<rect x="43.5542" y="46.2285" width="4" height="4" transform="rotate(10.5744 43.5542 46.2285)" fill="white"/>
<rect x="81.6172" y="16.7124" width="4" height="4" transform="rotate(10.5744 81.6172 16.7124)" fill="white"/>
<rect x="75.0107" y="52.1011" width="4" height="4" transform="rotate(10.5744 75.0107 52.1011)" fill="white"/>
<rect x="34.4324" y="7.90381" width="4" height="4" transform="rotate(10.5744 34.4324 7.90381)" fill="white"/>
<rect x="27.8259" y="43.2925" width="4" height="4" transform="rotate(10.5744 27.8259 43.2925)" fill="white"/>
<rect x="65.8889" y="13.7764" width="4" height="4" transform="rotate(10.5744 65.8889 13.7764)" fill="white"/>
<rect x="59.2825" y="49.165" width="4" height="4" transform="rotate(10.5744 59.2825 49.165)" fill="white"/>
</svg>
