<svg width="73" height="73" viewBox="0 0 73 73" fill="none" xmlns="http://www.w3.org/2000/svg">
<g clip-path="url(#clip0_118_245)">
<path d="M4.84436 39.3038L3.92176 39.3324L3.80008 35.6393L4.72268 35.6107L4.84092 39.3043L4.84436 39.3038ZM8.56008 37.8616L4.67528 37.9864L4.641 36.9352L8.52581 36.8104L8.56008 37.8616Z" fill="#FFC43D"/>
<path d="M8.53194 34.9678L3.8725 34.4908L3.97847 33.4709L8.63792 33.9478L8.53194 34.9678ZM4.8337 33.685L3.96608 33.5948L4.17031 31.6048L5.03794 31.695L4.8337 33.685ZM6.68897 33.8747L5.82134 33.7845L6.0136 31.8939L6.88123 31.9841L6.68853 33.8713L6.68897 33.8747ZM8.62596 34.0751L7.75833 33.985L7.96727 31.9489L8.83489 32.0391L8.62596 34.0751Z" fill="#FFC43D"/>
<path d="M8.82566 31.7991L6.80602 29.6342L6.90626 29.653L4.31706 30.5202L4.6019 29.3939L6.2416 28.8698L6.27936 28.7252L5.08062 27.5022L5.35558 26.4086L7.2323 28.4097L7.12648 28.402L9.93065 27.4099L9.64582 28.5363L7.7851 29.1651L7.74778 29.3131L9.09975 30.6986L8.82135 31.7926L8.82566 31.7991Z" fill="#FFC43D"/>
<path d="M6.50756 25.9248L5.65567 25.5705L7.07919 22.1585L7.93108 22.5128L6.50756 25.9248ZM10.4855 26.1518L6.89681 24.656L7.30261 23.6858L10.8913 25.1816L10.4855 26.1518Z" fill="#FFC43D"/>
<path d="M12.7463 21.9212C12.5173 22.296 12.2513 22.5706 11.9481 22.745C11.645 22.9194 11.3259 22.9945 10.984 22.9711C10.642 22.9476 10.2948 22.827 9.93937 22.613L7.56924 21.1633L8.11703 20.2661L10.5207 21.7325C10.695 21.84 10.8701 21.8983 11.0396 21.912C11.2086 21.9222 11.3686 21.8881 11.5152 21.8033C11.6618 21.7184 11.7886 21.5872 11.9021 21.4051C12.012 21.2235 12.0739 21.048 12.0836 20.8755C12.0938 20.7064 12.0533 20.5508 11.962 20.4084C11.8742 20.2657 11.7399 20.1428 11.5617 20.0323L9.15806 18.5659L9.70843 17.6613L12.0786 19.111C12.4344 19.3284 12.697 19.5821 12.8735 19.8744C13.0501 20.1668 13.129 20.489 13.1129 20.8335C13.0972 21.1815 12.9749 21.5429 12.7394 21.922L12.7463 21.9212Z" fill="#FFC43D"/>
<path d="M14.1808 19.4865L10.6147 16.3905L11.3049 15.5977L14.871 18.6937L14.1808 19.4865ZM13.5505 17.9194L12.9264 17.3757L13.6837 16.5046C13.7843 16.3871 13.8461 16.2675 13.8727 16.1453C13.8989 16.0197 13.8906 15.8984 13.8471 15.7745C13.8035 15.6507 13.7269 15.5415 13.6172 15.4469C13.5031 15.3459 13.38 15.2845 13.251 15.2587C13.1219 15.233 13.0006 15.2413 12.8802 15.2844C12.7598 15.3275 12.6511 15.4075 12.5505 15.525L11.7932 16.3962L11.1184 15.8099L11.8206 15.0016C12.0738 14.7076 12.3403 14.4924 12.6198 14.3524C12.8958 14.2129 13.1724 14.1606 13.4498 14.1991C13.7273 14.2377 13.9954 14.3683 14.2579 14.5939L14.3362 14.661C14.5987 14.8866 14.7628 15.1351 14.8348 15.4022C14.9068 15.6693 14.8894 15.9476 14.7894 16.2363C14.6893 16.525 14.5093 16.8167 14.2562 17.1107L13.5539 17.919L13.5505 17.9194ZM16.0431 17.3405L13.6174 17.0617L14.3773 16.1832L16.8395 16.419L16.0396 17.3409L16.0431 17.3405Z" fill="#FFC43D"/>
<path d="M17.2196 16.1336L14.1718 12.574L14.9512 11.9063L17.9951 15.4629L17.2157 16.1306L17.2196 16.1336ZM15.4261 12.654L14.8605 11.9911L16.3814 10.6885L16.947 11.3514L15.4261 12.654ZM16.6392 14.0744L16.0736 13.4115L17.5158 12.1782L18.0849 12.8407L16.6427 14.074L16.6392 14.0744ZM17.9048 15.5511L17.3392 14.8882L18.8949 13.5567L19.4639 14.2192L17.9082 15.5507L17.9048 15.5511Z" fill="#FFC43D"/>
<path d="M22.5711 12.3574C22.2027 12.5679 21.8612 12.6878 21.5395 12.7142C21.2178 12.7407 20.9356 12.6923 20.6886 12.5625C20.4421 12.4362 20.2393 12.2415 20.0908 11.9771L20.9808 11.4667C21.0393 11.5712 21.1263 11.6512 21.2347 11.7074C21.3431 11.7637 21.4718 11.786 21.6202 11.7708C21.7685 11.7557 21.9393 11.6958 22.128 11.5847C22.2974 11.4865 22.4277 11.3827 22.5188 11.2734C22.606 11.1611 22.6584 11.0496 22.6721 10.9361C22.6858 10.8225 22.6616 10.7137 22.6031 10.6092C22.5273 10.4789 22.4137 10.4093 22.2584 10.3974C22.1031 10.3854 21.8971 10.4428 21.6357 10.5595L21.3162 10.715C20.8901 10.9119 20.4953 10.9685 20.1292 10.8922C19.7626 10.8124 19.4769 10.5967 19.2706 10.2346C19.1186 9.97064 19.0509 9.71002 19.0671 9.44934C19.0832 9.18865 19.1712 8.94341 19.3345 8.71317C19.4978 8.48293 19.7312 8.28233 20.0378 8.10748C20.3572 7.92402 20.6626 7.82273 20.9537 7.80361C21.2449 7.78449 21.5104 7.83851 21.7466 7.9661C21.9828 8.0937 22.1752 8.28972 22.3272 8.55372L21.4372 9.06405C21.3791 8.963 21.3029 8.8852 21.2052 8.83106C21.111 8.7765 20.9991 8.74861 20.8774 8.75343C20.7522 8.75867 20.6211 8.79963 20.4809 8.88016C20.3472 8.95638 20.2496 9.04205 20.1813 9.13802C20.1164 9.23356 20.0799 9.33251 20.0821 9.4336C20.0809 9.53511 20.1072 9.63317 20.1606 9.72432C20.2235 9.83526 20.3203 9.91047 20.4511 9.94996C20.5819 9.98944 20.7427 9.96223 20.9375 9.87134L21.2643 9.71842C21.5748 9.57454 21.8749 9.48788 22.1579 9.4593C22.4444 9.43029 22.7008 9.46797 22.9305 9.57191C23.1603 9.67585 23.3467 9.85165 23.4901 10.1028C23.6382 10.3638 23.7029 10.6283 23.6816 10.9036C23.6603 11.1789 23.5533 11.4405 23.3681 11.691C23.1829 11.9414 22.9177 12.167 22.572 12.3642L22.5711 12.3574Z" fill="#FFC43D"/>
<path d="M22.8076 7.78704L22.459 6.93257L25.8806 5.54132L26.2291 6.39579L22.8076 7.78704ZM25.451 10.7718L23.9848 7.17071L24.9592 6.77561L26.4254 10.3767L25.451 10.7718Z" fill="#FFC43D"/>
<path d="M28.1192 9.72693L27.0076 5.13757L28.0285 4.89041L29.1401 9.47977L28.1157 9.72736L28.1192 9.72693ZM28.5142 8.08694L28.3188 7.28313L29.4417 7.01267C29.5909 6.97643 29.7126 6.9157 29.8063 6.82703C29.9 6.73835 29.964 6.63594 30.0005 6.50902C30.037 6.3821 30.0377 6.24918 30.0028 6.11027C29.9666 5.96103 29.9024 5.83977 29.8133 5.74262C29.7246 5.64891 29.6183 5.58188 29.4953 5.54841C29.3723 5.51494 29.2359 5.5146 29.0867 5.55083L27.9638 5.82129L27.7533 4.95296L28.7945 4.69977C29.1746 4.61004 29.514 4.58486 29.8207 4.63369C30.1274 4.68252 30.3834 4.80064 30.5853 4.98848C30.791 5.17933 30.9323 5.44119 31.0134 5.78053L31.0362 5.87901C31.1169 6.21491 31.1089 6.513 31.0123 6.77331C30.9157 7.03361 30.7404 7.25139 30.4902 7.42963C30.24 7.60788 29.9282 7.74144 29.548 7.83117L28.5069 8.08436L28.5142 8.08694ZM30.8836 9.05791L29.0703 7.42285L30.1996 7.14808L32.0705 8.76891L30.8866 9.05404L30.8836 9.05791Z" fill="#FFC43D"/>
<path d="M32.5377 8.75946L32.1156 4.09393L33.1383 4.00033L33.5605 8.66586L32.5377 8.75946ZM33.4327 8.67842L33.3552 7.81086L35.3943 7.62797L35.4718 8.49553L33.4327 8.67842ZM33.2559 6.7433L33.1783 5.87575L35.0686 5.70457L35.1462 6.57212L33.2559 6.7433ZM33.0886 4.88389L33.011 4.01633L35.005 3.83562L35.0826 4.70318L33.0886 4.88389Z" fill="#FFC43D"/>
<path d="M35.7319 8.424L37.5684 3.84857L39.2666 3.95669L40.5728 8.73131L39.4841 8.66193L38.4395 4.63387L38.7631 4.78893L37.9385 4.73529L38.2916 4.6245L36.7815 8.48782L35.7315 8.42056L35.7319 8.424ZM36.976 7.3379L37.3513 6.48682L39.1833 6.60258L39.4562 7.49453L36.9794 7.33747L36.976 7.3379Z" fill="#FFC43D"/>
<path d="M40.9845 8.78116L42.1733 4.2522L43.5758 4.62118L43.9437 7.43754L44.0629 7.468L45.7552 5.1931L47.183 5.56938L45.9942 10.0983L44.9893 9.83319L46.0026 5.96591L46.1416 6.01485L44.1747 8.63535L43.2063 8.38307L42.7731 5.13102L42.9305 5.16016L41.9172 9.02744L40.985 8.7846L40.9845 8.78116Z" fill="#FFC43D"/>
<path d="M46.7998 10.5283L48.6236 6.21308L49.5942 6.62236L47.7704 10.9375L46.8032 10.5278L46.7998 10.5283Z" fill="#FFC43D"/>
<path d="M48.6447 11.2472L51.0244 7.21163L52.5115 8.08727L52.0847 12.2828L52.2732 12.3919L52.1029 12.4273L54.1084 9.02951L54.9578 9.53092L52.5781 13.5665L51.0793 12.6818L51.5062 8.48627L51.3177 8.37714L51.488 8.34175L49.4825 11.7395L48.6443 11.2437L48.6447 11.2472Z" fill="#FFC43D"/>
<path d="M54.8449 15.641C54.5303 15.3625 54.3012 15.0697 54.1604 14.7554C54.0199 14.4445 53.9492 14.1318 53.952 13.8204C53.9548 13.5089 54.0152 13.2112 54.1269 12.9316C54.242 12.6515 54.3923 12.4019 54.5819 12.1858L54.6734 12.0799C54.8694 11.8596 55.0977 11.6736 55.3591 11.5289C55.6205 11.3842 55.9022 11.2894 56.2015 11.2517C56.5008 11.2141 56.8114 11.238 57.1237 11.3316C57.4395 11.4247 57.7412 11.6 58.0355 11.8566C58.3536 12.1347 58.5809 12.4416 58.7239 12.7732C58.8635 13.1052 58.9162 13.4411 58.8816 13.7775C58.847 14.1139 58.7191 14.4306 58.5042 14.7232L57.7144 14.029C57.8042 13.8814 57.8506 13.7218 57.8539 13.5536C57.8572 13.3854 57.8188 13.219 57.7387 13.0543C57.6586 12.8896 57.5381 12.737 57.3844 12.599C57.2312 12.4645 57.069 12.3695 56.9016 12.3172C56.7343 12.2648 56.5648 12.2512 56.3932 12.2762C56.2211 12.2978 56.0509 12.3612 55.8883 12.4585C55.7258 12.5558 55.5711 12.6871 55.4275 12.852C55.2775 13.0211 55.1632 13.1963 55.0881 13.377C55.0129 13.5577 54.9726 13.7375 54.9745 13.9191C54.9763 14.1006 55.0194 14.2769 55.1039 14.448C55.1883 14.6192 55.3131 14.7783 55.478 14.9218C55.6945 15.1148 55.9264 15.236 56.1634 15.2866C56.4004 15.3371 56.6219 15.3198 56.8206 15.2319L56.2527 15.6913L56.9898 14.8541L57.7167 15.4933L57.0561 16.2439C56.6928 16.356 56.316 16.3614 55.9361 16.2588C55.5562 16.1563 55.1914 15.9505 54.8419 15.6449L54.8449 15.641ZM55.936 14.2002L56.4406 13.6264L58.3743 15.3302L57.8697 15.904L55.936 14.2002Z" fill="#FFC43D"/>
<path d="M57.9095 18.5553L61.7133 15.7563L62.3371 16.6041L58.5333 19.4031L57.9095 18.5553ZM59.5353 18.5047L60.2679 17.9652L60.7656 18.6437C60.8624 18.7748 60.9722 18.8694 61.0909 18.9243C61.2136 18.9823 61.3379 18.9982 61.4716 18.9778C61.6024 18.9614 61.7314 18.9033 61.8561 18.8107C61.9842 18.7177 62.0757 18.6118 62.1337 18.4892C62.1921 18.37 62.211 18.2418 62.1945 18.111C62.1777 17.9768 62.1195 17.8478 62.0226 17.7167L61.5249 17.0383L62.2575 16.4988L62.7255 17.1355C62.9614 17.4554 63.1092 17.7689 63.1726 18.079C63.2356 18.3856 63.2126 18.6751 63.1031 18.9441C62.9936 19.213 62.8062 19.4462 62.5341 19.6447L62.4507 19.7041C62.182 19.9022 61.9059 20.0138 61.6152 20.0363C61.3279 20.0585 61.0439 19.9963 60.7698 19.8455C60.4958 19.6947 60.2392 19.4613 60.0029 19.138L59.5349 18.5013L59.5353 18.5047Z" fill="#FFC43D"/>
<path d="M61.2177 23.9382C61.0269 23.5602 60.9285 23.1951 60.9201 22.8501C60.9113 22.5017 60.9691 22.1833 61.0932 21.8916C61.2174 21.5999 61.3811 21.3451 61.5844 21.1273C61.7877 20.9095 62.0112 20.7416 62.2477 20.621L62.3724 20.5564C62.6321 20.4259 62.9116 20.3418 63.2148 20.3072C63.5146 20.273 63.8183 20.2978 64.119 20.3823C64.4197 20.4669 64.7041 20.6164 64.9654 20.8317C65.23 21.0466 65.4556 21.3398 65.6417 21.7079C65.8278 22.076 65.9248 22.4308 65.9431 22.771C65.9579 23.1117 65.9104 23.4287 65.8001 23.7187C65.6897 24.0087 65.5299 24.2665 65.3236 24.4881C65.1177 24.7132 64.8847 24.8893 64.625 25.0198L64.5003 25.0844C64.2638 25.205 63.9972 25.2805 63.7009 25.3143C63.4045 25.348 63.1013 25.3267 62.795 25.2534C62.4887 25.18 62.1944 25.0352 61.9194 24.8216C61.6444 24.608 61.4115 24.3123 61.2207 23.9343L61.2177 23.9382ZM62.0983 23.4919C62.1965 23.6893 62.3217 23.8518 62.4702 23.9765C62.6187 24.1011 62.7831 24.1853 62.9607 24.2364C63.1384 24.2874 63.3217 24.2994 63.5113 24.279C63.7006 24.2552 63.8894 24.2 64.0734 24.107C64.2673 24.0092 64.4307 23.8908 64.5631 23.7484C64.6959 23.6093 64.7912 23.4506 64.8535 23.2785C64.9157 23.1064 64.9384 22.9252 64.9245 22.7313C64.9111 22.5407 64.852 22.3489 64.7538 22.1515C64.6556 21.9542 64.5338 21.7912 64.3887 21.6661C64.2437 21.5411 64.0858 21.4526 63.9115 21.4011C63.7369 21.3461 63.5536 21.3342 63.3609 21.3584C63.1683 21.3826 62.9769 21.4451 62.783 21.5429C62.5989 21.6359 62.442 21.75 62.3092 21.8891C62.1764 22.0281 62.0771 22.1839 62.0115 22.3564C61.9458 22.5289 61.9166 22.7144 61.9267 22.9053C61.9367 23.0963 61.9927 23.292 62.0909 23.4894L62.0983 23.4919Z" fill="#FFC43D"/>
<path d="M63.1416 28.8727C63.0273 28.4641 62.9978 28.0903 63.0561 27.7474C63.1144 27.4046 63.2299 27.1 63.4065 26.8366C63.5831 26.5732 63.7932 26.3546 64.0331 26.1776C64.273 26.0007 64.5233 25.8783 64.78 25.8076L64.915 25.7697C65.195 25.689 65.4853 25.663 65.7886 25.6843C66.0918 25.7056 66.3818 25.788 66.6619 25.9311C66.9416 26.0707 67.1907 26.2736 67.4086 26.5328C67.6264 26.792 67.7939 27.124 67.9069 27.5222C68.0194 27.917 68.0515 28.2835 68.0031 28.6216C67.9548 28.9597 67.8496 29.2631 67.6833 29.5251C67.517 29.7872 67.3146 30.0119 67.0683 30.1931C66.8219 30.3744 66.5622 30.5049 66.2818 30.5821L66.1468 30.62C65.8905 30.6942 65.6139 30.7185 65.3176 30.6963C65.0212 30.6741 64.7282 30.5956 64.4391 30.4642C64.15 30.3328 63.8909 30.1346 63.6623 29.8733C63.4337 29.6119 63.2589 29.2773 63.1446 28.8688L63.1416 28.8727ZM64.0898 28.6032C64.1515 28.8156 64.2411 29.0001 64.3646 29.1488C64.4882 29.2976 64.6319 29.4123 64.7963 29.4965C64.9602 29.5773 65.1414 29.6279 65.3319 29.6424C65.5225 29.6569 65.7156 29.6362 65.9147 29.5797C66.1241 29.5219 66.3086 29.4323 66.4659 29.3216C66.6228 29.2075 66.7492 29.0728 66.8412 28.9145C66.9331 28.7561 66.9919 28.5844 67.0133 28.393C67.0346 28.2016 67.0164 28.0011 66.9552 27.7921C66.8936 27.5797 66.804 27.3952 66.6877 27.249C66.5711 27.0994 66.4308 26.9842 66.2694 26.8962C66.1085 26.8115 65.9308 26.7605 65.7373 26.7498C65.5437 26.7392 65.3437 26.7609 65.1347 26.8221C64.939 26.8781 64.7606 26.96 64.6071 27.0736C64.4532 27.1839 64.3268 27.3186 64.228 27.4778C64.1292 27.637 64.0704 27.8087 64.0421 28.001C64.0169 28.1894 64.0321 28.3937 64.0937 28.6062L64.0898 28.6032Z" fill="#FFC43D"/>
<path d="M64.0833 32.8051L65.0028 32.6965L65.2339 34.6458L64.3178 34.754L64.0868 32.8047L64.0833 32.8051ZM63.9747 31.8855L68.624 31.3361L68.7486 32.383L64.0993 32.9324L63.9752 31.889L63.9747 31.8855Z" fill="#FFC43D"/>
<path d="M64.0814 38.7963C64.1194 38.3756 64.2241 38.0129 64.3998 37.7147C64.5755 37.4165 64.793 37.1724 65.0531 36.9894C65.3098 36.8069 65.5832 36.6746 65.8739 36.5962C66.1646 36.5177 66.4373 36.4904 66.7023 36.513L66.8434 36.5232C67.1333 36.5497 67.4155 36.6261 67.6905 36.7558C67.9654 36.8855 68.2081 37.0647 68.419 37.2969C68.63 37.529 68.7936 37.8021 68.9039 38.1237C69.0143 38.4454 69.0532 38.811 69.0178 39.2244C68.982 39.6344 68.8828 39.9859 68.7144 40.2866C68.549 40.5836 68.3423 40.8297 68.0934 41.0183C67.8445 41.2069 67.5749 41.3421 67.2812 41.4245C66.9875 41.5068 66.6976 41.5363 66.4076 41.5098L66.2661 41.4961C66.0012 41.4735 65.7331 41.3989 65.4655 41.2717C65.1944 41.145 64.9487 40.9697 64.7245 40.7427C64.5002 40.5157 64.3293 40.2401 64.2082 39.9163C64.0867 39.589 64.0434 39.217 64.081 38.7928L64.0814 38.7963ZM65.0673 38.8821C65.0498 39.1045 65.068 39.3049 65.1297 39.4894C65.1913 39.6739 65.2847 39.8334 65.41 39.968C65.5352 40.1025 65.6854 40.213 65.8597 40.2924C66.0339 40.3719 66.2219 40.4217 66.4271 40.4413C66.6426 40.4597 66.8469 40.4445 67.0327 40.3932C67.2185 40.3419 67.3832 40.2617 67.5259 40.1459C67.6686 40.0301 67.7838 39.8898 67.8706 39.7181C67.9573 39.5464 68.0135 39.3541 68.0315 39.1352C68.0524 38.9123 68.0307 38.7123 67.9764 38.5304C67.9187 38.3489 67.8287 38.189 67.7103 38.0536C67.588 37.9151 67.4417 37.8077 67.264 37.7287C67.0898 37.6492 66.8914 37.6007 66.6759 37.5824C66.4712 37.5662 66.2772 37.5801 66.091 37.6279C65.9048 37.6758 65.7401 37.7559 65.5939 37.8722C65.4478 37.9884 65.3253 38.1261 65.2346 38.2948C65.144 38.4635 65.0878 38.6558 65.0669 38.8786L65.0673 38.8821Z" fill="#FFC43D"/>
<path d="M63.5791 42.8092L68.4713 42.6347L68.1911 43.6871L64.083 43.7595L64.2635 43.5551L64.0949 44.1879L64.0423 43.9079L67.5896 45.9367L67.3189 46.9529L63.1368 44.4622L63.5787 42.8058L63.5791 42.8092Z" fill="#FFC43D"/>
<path d="M62.21 47.0429L63.0119 47.3894L62.1994 49.2672L61.3974 48.9206L62.21 47.0429ZM62.5642 46.2189L66.8625 48.0764L66.4567 49.0187L62.1584 47.1612L62.5642 46.2189ZM63.9946 47.8112L64.7966 48.1578L64.0443 49.9021L63.2423 49.5555L63.9946 47.8112ZM65.7062 48.5538L66.5082 48.9003L65.715 50.7372L64.913 50.3906L65.7062 48.5538Z" fill="#FFC43D"/>
<path d="M59.5939 51.9781L62.0331 51.8637L61.4234 52.8526L58.9555 53.016L59.5974 51.9776L59.5939 51.9781ZM61.0865 49.5605L65.1034 52.0441L64.5518 52.9383L60.5348 50.4547L61.0865 49.5605ZM61.9598 51.0026L62.6646 51.4383L62.0576 52.4199C61.9759 52.549 61.933 52.6802 61.9279 52.8067C61.9228 52.9332 61.9522 53.0553 62.012 53.1701C62.0753 53.2845 62.1679 53.3812 62.2927 53.4564C62.4218 53.538 62.553 53.581 62.6829 53.5856C62.8128 53.5903 62.9349 53.5609 63.0463 53.5015C63.1572 53.4386 63.2535 53.3426 63.3351 53.2135L63.9422 52.2319L64.7 52.6994L64.1363 53.6091C63.9331 53.9388 63.7036 54.1983 63.4538 54.38C63.204 54.5617 62.9365 54.6582 62.6578 54.6653C62.3791 54.6724 62.0922 54.5861 61.7965 54.4031L61.7092 54.3476C61.4136 54.1646 61.2117 53.9488 61.0992 53.6938C60.9872 53.4422 60.9557 53.1631 61.0088 52.8628C61.0619 52.5625 61.1899 52.2458 61.3961 51.9123L61.9594 50.9992L61.9598 51.0026Z" fill="#FFC43D"/>
<path d="M60.2623 58.8251C60.0251 59.0787 59.7779 59.253 59.525 59.3547C59.2722 59.4564 59.0146 59.4923 58.7565 59.4688C58.498 59.4419 58.2467 59.3616 57.9993 59.2284C57.7519 59.0952 57.5169 58.922 57.291 58.7093L57.0964 58.524C56.5296 57.9906 56.2406 57.4432 56.2226 56.8827C56.2045 56.3223 56.4661 55.7616 56.9995 55.1947C57.1074 55.0798 57.2191 54.9679 57.3318 54.8629C57.4444 54.7578 57.5574 54.6562 57.6679 54.562L58.3105 55.1698C58.1996 55.2606 58.0865 55.3622 57.9679 55.475C57.8493 55.5877 57.7311 55.704 57.6142 55.8305C57.3799 56.0801 57.2347 56.3151 57.1819 56.5349C57.1292 56.7548 57.1564 56.9716 57.2637 57.1853C57.3709 57.399 57.5457 57.6217 57.7915 57.8529L58.1405 58.1831L58.0947 58.458C57.864 58.2353 57.7159 58.0023 57.6439 57.7631C57.5719 57.524 57.5769 57.2857 57.652 57.0491C57.7271 56.8125 57.8633 56.5891 58.064 56.3786C58.2892 56.1406 58.5343 55.977 58.7927 55.8921C59.0512 55.8072 59.3123 55.7988 59.5691 55.8679C59.8294 55.9366 60.0746 56.0805 60.3083 56.2993C60.5541 56.5305 60.716 56.7898 60.7941 57.0771C60.8721 57.3644 60.8672 57.6586 60.7788 57.9563C60.6904 58.254 60.5138 58.5454 60.258 58.8187L60.2623 58.8251ZM59.6021 58.244C59.7319 58.1089 59.8157 57.969 59.8573 57.8275C59.899 57.6859 59.8993 57.5496 59.8618 57.418C59.8243 57.2864 59.7498 57.1664 59.6344 57.0551C59.5156 56.9442 59.3913 56.8724 59.2579 56.8402C59.1246 56.8081 58.9895 56.8181 58.8558 56.8663C58.722 56.9146 58.5896 57.0011 58.4663 57.132C58.3524 57.2547 58.2673 57.3842 58.2153 57.527C58.1634 57.6699 58.1532 57.811 58.1808 57.9473C58.2084 58.0836 58.2881 58.2169 58.4189 58.3403C58.53 58.4452 58.6543 58.5169 58.7842 58.5495C58.9176 58.5817 59.0531 58.5752 59.1937 58.526C59.3343 58.4769 59.4693 58.383 59.6017 58.2406L59.6021 58.244Z" fill="#FFC43D"/>
<path d="M56.5914 62.1806C56.3175 62.3933 56.0479 62.5285 55.7796 62.5902C55.5147 62.6515 55.2557 62.6491 55.0028 62.583C54.7498 62.5169 54.5149 62.3997 54.2911 62.2321C54.0673 62.0645 53.8594 61.8564 53.6713 61.6109L53.5047 61.3977C53.0255 60.7833 52.8225 60.1972 52.8927 59.6431C52.9629 59.089 53.3032 58.5709 53.9214 58.0947C54.0456 57.9987 54.1737 57.9057 54.2988 57.8166C54.4239 57.7275 54.5538 57.6482 54.6767 57.5699L55.2192 58.2706C55.0992 58.3451 54.9698 58.4278 54.8348 58.5217C54.6998 58.6155 54.5687 58.7124 54.4315 58.817C54.1607 59.0258 53.9845 59.2367 53.8991 59.4467C53.8136 59.6567 53.806 59.8743 53.8802 60.1027C53.9543 60.331 54.0934 60.5757 54.3018 60.8431L54.5975 61.2219L54.5082 61.4848C54.3154 61.2294 54.2034 60.9778 54.1683 60.7271C54.1372 60.4793 54.174 60.244 54.2827 60.0241C54.3914 59.8042 54.562 59.6045 54.7911 59.4254C55.0525 59.2248 55.3165 59.1008 55.5836 59.0567C55.8507 59.0127 56.1096 59.043 56.3575 59.1517C56.6053 59.2603 56.8235 59.4391 57.0232 59.6936C57.2316 59.9611 57.3509 60.2432 57.3843 60.5361C57.4176 60.829 57.3705 61.1215 57.2347 61.4042C57.099 61.6869 56.8833 61.9447 56.5871 62.1742L56.5914 62.1806ZM56.0274 61.5035C56.177 61.3868 56.2802 61.262 56.3438 61.1282C56.4039 60.9948 56.4253 60.8593 56.4119 60.7247C56.3946 60.5871 56.3399 60.4576 56.2404 60.3338C56.1405 60.2065 56.0278 60.1159 55.9026 60.0652C55.7774 60.0145 55.6432 60.0034 55.4995 60.0285C55.3559 60.0535 55.2144 60.1237 55.0743 60.2322C54.944 60.336 54.8396 60.4505 54.7657 60.5856C54.6914 60.7172 54.6596 60.8541 54.667 60.9964C54.6744 61.1388 54.7305 61.2786 54.8428 61.4217C54.9384 61.5425 55.0473 61.6302 55.1729 61.6843C55.2985 61.7384 55.4366 61.7525 55.5798 61.7241C55.7265 61.6951 55.8748 61.6241 56.0279 61.507L56.0274 61.5035Z" fill="#FFC43D"/>
<path d="M52.4497 64.9347C52.1491 65.1018 51.8606 65.1975 51.587 65.2179C51.3135 65.2383 51.0601 65.1968 50.82 65.0941C50.5834 64.9911 50.3652 64.8402 50.1685 64.6378C49.9718 64.4353 49.7992 64.2018 49.6497 63.9305L49.5188 63.6953C49.1398 63.0159 49.028 62.4043 49.1808 61.8678C49.3331 61.3279 49.7508 60.8699 50.4302 60.491C50.5673 60.4143 50.7084 60.3406 50.8468 60.2743C50.9853 60.208 51.1207 60.1455 51.257 60.0899L51.6864 60.8643C51.5535 60.9195 51.4147 60.9824 51.2697 61.053C51.1248 61.1237 50.9774 61.2016 50.8269 61.2835C50.5263 61.4506 50.3183 61.6305 50.2031 61.8267C50.0876 62.0195 50.0486 62.2376 50.0853 62.4742C50.122 62.7107 50.225 62.9739 50.3882 63.2715L50.6229 63.6928L50.4966 63.9394C50.3459 63.6578 50.2704 63.3911 50.2741 63.1425C50.2813 62.8934 50.3543 62.6676 50.4965 62.4644C50.6387 62.2613 50.8373 62.0895 51.0923 61.9491C51.3799 61.7907 51.6595 61.7066 51.9317 61.7038C52.204 61.7011 52.4539 61.771 52.6816 61.9137C52.9092 62.0563 53.1003 62.27 53.2575 62.5473C53.4203 62.8414 53.4997 63.139 53.4878 63.4341C53.4764 63.7327 53.382 64.0102 53.2084 64.2697C53.0313 64.5296 52.7794 64.75 52.4497 64.9347ZM51.9954 64.1844C52.1588 64.094 52.2813 63.9842 52.3638 63.862C52.4463 63.7398 52.4857 63.609 52.493 63.4718C52.4967 63.335 52.4584 63.1965 52.3851 63.0589C52.3076 62.9149 52.2073 62.8121 52.0903 62.7429C51.9733 62.6738 51.8433 62.6412 51.6971 62.6456C51.5543 62.6495 51.4029 62.6965 51.246 62.7827C51.0989 62.8641 50.982 62.9626 50.8888 63.0827C50.7955 63.2028 50.7418 63.3319 50.7282 63.4734C50.7145 63.6149 50.7503 63.7607 50.8369 63.9211C50.9131 64.0548 51.0065 64.1584 51.124 64.2311C51.2414 64.3037 51.3714 64.3363 51.521 64.3314C51.6707 64.3266 51.829 64.2788 51.9954 64.1844Z" fill="#FFC43D"/>
<path d="M47.9565 67.0305C47.6327 67.1516 47.335 67.2029 47.0598 67.1816C46.7879 67.1599 46.5405 67.0826 46.3206 66.946C46.1007 66.8093 45.9101 66.6271 45.7447 66.3962C45.5799 66.1688 45.4459 65.9095 45.336 65.6192L45.2412 65.3655C44.968 64.6378 44.9495 64.018 45.1789 63.5068C45.4116 62.9952 45.8905 62.6065 46.6181 62.3333C46.7648 62.2764 46.9123 62.2264 47.0602 62.1799C47.2081 62.1333 47.3535 62.0941 47.4958 62.0587L47.8061 62.8865C47.6672 62.9215 47.5218 62.9607 47.3674 63.0116C47.2126 63.059 47.0552 63.1137 46.8953 63.1758C46.5749 63.2964 46.3419 63.4445 46.1996 63.6197C46.0539 63.7953 45.9857 64.0031 45.9876 64.2406C45.9895 64.478 46.0525 64.7567 46.1692 65.0741L46.3377 65.5247L46.1736 65.7481C46.0658 65.4471 46.0312 65.1718 46.0736 64.9253C46.1161 64.6788 46.2222 64.4662 46.3919 64.2876C46.5617 64.109 46.7853 63.969 47.0558 63.8686C47.3628 63.7531 47.6548 63.7129 47.9254 63.7523C48.196 63.7917 48.433 63.8982 48.6332 64.0723C48.8372 64.2494 48.9926 64.485 49.1072 64.7852C49.224 65.1026 49.2586 65.4058 49.2012 65.6996C49.1472 65.993 49.0123 66.2546 48.8 66.484C48.5877 66.7135 48.303 66.896 47.9526 67.0275L47.9565 67.0305ZM47.617 66.2203C47.7941 66.1561 47.9296 66.0657 48.0276 65.9555C48.1255 65.8453 48.187 65.7222 48.2123 65.5897C48.2371 65.4538 48.2228 65.3123 48.1659 65.1656C48.1082 65.0121 48.0268 64.893 47.9218 64.8083C47.8164 64.7202 47.6912 64.6696 47.5492 64.6525C47.4073 64.6353 47.2494 64.6587 47.0826 64.7216C46.9256 64.7798 46.7928 64.8629 46.6836 64.9675C46.5744 65.0721 46.5022 65.193 46.4671 65.3302C46.4319 65.4675 46.444 65.6197 46.5069 65.7866C46.5599 65.9302 46.6409 66.0459 46.7429 66.1344C46.8483 66.2225 46.974 66.2767 47.1228 66.2929C47.2716 66.3091 47.4329 66.2854 47.6165 66.2169L47.617 66.2203Z" fill="#FFC43D"/>
<path d="M42.5297 63.7596L43.1239 68.4035L41.6857 68.5843L40.2883 66.114L40.1678 66.1292L39.4536 68.8719L37.9878 69.0561L37.3936 64.4122L38.4258 64.2824L38.9344 68.245L38.7847 68.2499L39.6273 65.0821L40.6217 64.9572L42.2413 67.8049L42.0848 67.8386L41.5762 63.876L42.5328 63.7558L42.5297 63.7596Z" fill="#FFC43D"/>
<path d="M35.9157 68.1697C36.1084 68.1735 36.2513 68.2254 36.3412 68.3294C36.4308 68.43 36.4752 68.5608 36.4736 68.7148C36.4724 68.8722 36.4221 69.0008 36.3297 69.0998C36.2373 69.1988 36.0928 69.245 35.9001 69.2412C35.7074 69.2375 35.568 69.1851 35.4746 69.0815C35.3847 68.9775 35.3407 68.8502 35.3449 68.6889C35.3465 68.5349 35.3972 68.4097 35.4896 68.3107C35.582 68.2117 35.7265 68.1655 35.9192 68.1693L35.9157 68.1697ZM36.3888 64.3144L36.3271 67.8279L35.294 67.811L35.3556 64.2975L36.3888 64.3144ZM36.8058 67.0757L36.7934 67.8392L35.2905 67.8114L35.3029 67.0479L36.8023 67.0761L36.8058 67.0757Z" fill="#FFC43D"/>
<path d="M33.3053 66.2818L33.2236 66.9108L32.3065 66.7884C32.1112 66.764 31.9611 66.7933 31.8571 66.8833C31.7531 66.9733 31.6891 67.1036 31.6681 67.2706C31.645 67.4482 31.67 67.5919 31.7506 67.7041C31.8276 67.8167 31.9653 67.8833 32.161 67.9112L33.0777 68.0301L32.9712 68.8509L32.1182 68.7379C31.5852 68.6686 31.1868 68.502 30.9333 68.2367C30.6767 67.9754 30.5745 67.6352 30.6306 67.2192L30.643 67.1233C30.6802 66.8355 30.785 66.6126 30.9544 66.4585C31.1238 66.3044 31.3383 66.204 31.5951 66.1613C31.8553 66.1181 32.1417 66.117 32.4579 66.1577L33.3109 66.2707L33.3053 66.2818ZM33.5916 64.1382L33.4851 64.959L32.3976 64.8161C32.2023 64.7917 32.0488 64.8215 31.9379 64.9123C31.8266 64.9997 31.76 65.1374 31.7347 65.3258C31.7091 65.5108 31.7384 65.6609 31.8258 65.7723C31.9097 65.884 32.0513 65.9536 32.2436 65.9819L33.331 66.1248L33.2493 66.7537L32.2118 66.6185C31.8883 66.5753 31.6095 66.4985 31.3686 66.389C31.1272 66.276 30.9473 66.1238 30.8254 65.9329C30.7031 65.7386 30.6621 65.4956 30.7015 65.197L30.7148 65.108C30.7498 64.831 30.8473 64.6055 30.999 64.4221C31.1507 64.2388 31.3588 64.1148 31.6186 64.0402C31.8783 63.9656 32.1914 63.9542 32.5541 64.003L33.5916 64.1382ZM34.4799 64.2538L33.8569 68.9738L32.8404 68.8394L33.4634 64.1194L34.4799 64.2538Z" fill="#FFC43D"/>
<path d="M27.4489 65.068L27.2416 65.6707L26.3686 65.3715C26.1824 65.3076 26.0288 65.3094 25.908 65.377C25.7872 65.4446 25.6999 65.5569 25.6437 65.7213C25.5845 65.8895 25.5824 66.0401 25.6363 66.1626C25.6905 66.2886 25.8106 66.3819 25.9969 66.4459L26.8698 66.7451L26.6011 67.5268L25.7867 67.2482C25.2756 67.0748 24.9236 66.8324 24.7242 66.5254C24.5248 66.2184 24.4945 65.8657 24.6297 65.4678L24.6602 65.3765C24.7551 65.1025 24.9016 64.9058 25.0964 64.7869C25.2911 64.6681 25.5221 64.6146 25.7853 64.6235C26.0486 64.6323 26.3282 64.688 26.6315 64.7932L27.4459 65.0718L27.4489 65.068ZM28.1495 63.0226L27.8807 63.8043L26.8435 63.4489C26.6572 63.3849 26.5002 63.3872 26.3755 63.4518C26.2508 63.5164 26.1545 63.6403 26.0927 63.8159C26.0313 63.9948 26.0327 64.145 26.0909 64.274C26.1525 64.4025 26.276 64.4954 26.4623 64.5593L27.4996 64.9148L27.2957 65.5171L26.3057 65.1767C25.999 65.072 25.7378 64.9405 25.5261 64.7854C25.3139 64.6268 25.1649 64.4428 25.0857 64.2291C25.0064 64.0153 25.0135 63.7663 25.111 63.4849L25.1389 63.401C25.2281 63.1381 25.3665 62.932 25.5544 62.786C25.7388 62.6405 25.9693 62.5556 26.2359 62.5361C26.506 62.5161 26.8128 62.5649 27.1634 62.6851L28.1529 63.0221L28.1495 63.0226ZM29 63.3106L27.4551 67.8145L26.4836 67.4822L28.0286 62.9784L29 63.3106Z" fill="#FFC43D"/>
<path d="M23.3206 60.8925C23.71 61.0987 24 61.3489 24.1904 61.6395C24.3807 61.9302 24.4764 62.2467 24.4706 62.59C24.4683 62.9328 24.3661 63.2882 24.1707 63.6518L22.8605 66.1024L21.9315 65.6075L23.2584 63.1233C23.3547 62.9435 23.4023 62.7662 23.4052 62.5946C23.4081 62.4229 23.3641 62.2677 23.2694 62.1258C23.1781 61.9835 23.0374 61.8649 22.8497 61.7626C22.6621 61.6604 22.4815 61.6132 22.3103 61.6137C22.1391 61.6143 21.9881 61.6647 21.8497 61.759C21.7113 61.8533 21.5965 61.997 21.4973 62.1808L20.1703 64.6649L19.2375 64.167L20.5442 61.7168C20.7393 61.3498 20.9804 61.0713 21.2603 60.8789C21.5436 60.686 21.8562 60.5873 22.205 60.5819C22.5504 60.5769 22.92 60.6807 23.3133 60.89L23.3206 60.8925Z" fill="#FFC43D"/>
<path d="M20.0865 59.0202L19.4814 59.7953L18.7993 59.2624C18.6246 59.1236 18.4486 59.0304 18.2666 58.9728C18.0885 58.9183 17.9113 58.8987 17.7427 58.9199C17.5707 58.9415 17.4068 59.0005 17.2473 59.094C17.0882 59.1909 16.9438 59.3209 16.814 59.484C16.6782 59.6548 16.585 59.8308 16.5335 60.0051C16.482 60.1793 16.4654 60.3527 16.4865 60.5213C16.5077 60.6899 16.5702 60.8533 16.6736 61.0081C16.7734 61.1633 16.9142 61.3099 17.0885 61.4453L17.7706 61.9782L17.1625 62.7572L16.5191 62.2543C16.1856 61.9922 15.9308 61.7166 15.7577 61.4238C15.5846 61.131 15.4777 60.8368 15.4431 60.5336C15.4085 60.2304 15.4315 59.9409 15.5186 59.6608C15.6053 59.3772 15.744 59.1186 15.9306 58.8785L16.0178 58.7662C16.1957 58.5411 16.4098 58.3534 16.6596 58.1997C16.9098 58.0494 17.1876 57.9515 17.493 57.9062C17.7983 57.8608 18.1162 57.8872 18.4457 57.9786C18.7753 58.07 19.1083 58.2449 19.4418 58.5071L20.0852 59.0099L20.0865 59.0202ZM20.8151 59.5893L17.892 63.3331L17.0627 62.6858L19.9858 58.942L20.8151 59.5893Z" fill="#FFC43D"/>
<path d="M15.6629 54.8573C15.9435 55.1716 16.1339 55.4902 16.2343 55.8166C16.3382 56.1426 16.3677 56.4604 16.3262 56.7697C16.2846 57.079 16.1911 57.3634 16.0463 57.6298C15.9015 57.8961 15.7206 58.1251 15.5065 58.3128L15.3995 58.4066C15.1794 58.6021 14.93 58.7592 14.654 58.8708C14.3779 58.9824 14.085 59.0437 13.7848 59.0465C13.4811 59.0497 13.1796 58.9862 12.8771 58.86C12.5742 58.7303 12.2962 58.5206 12.0362 58.2317C11.7556 57.9174 11.5635 57.585 11.4639 57.2376C11.3643 56.8901 11.3499 56.5528 11.4271 56.2216C11.5008 55.8907 11.6662 55.5938 11.9159 55.3283L12.6159 56.1141C12.5071 56.2501 12.4423 56.4016 12.4213 56.5685C12.3969 56.7358 12.4181 56.9044 12.475 57.079C12.5354 57.2532 12.6361 57.4153 12.7747 57.5726C12.9129 57.7265 13.0597 57.8374 13.2193 57.9117C13.3785 57.9826 13.5471 58.0173 13.7217 58.0163C13.8959 58.0119 14.0692 57.9726 14.2447 57.8947C14.4201 57.8167 14.5878 57.7047 14.7511 57.5584C14.9209 57.4077 15.0546 57.2476 15.1521 57.0781C15.2496 56.9085 15.308 56.7334 15.3311 56.5557C15.3508 56.3785 15.3313 56.1957 15.2632 56.0155C15.1986 55.8349 15.0931 55.6629 14.9502 55.4991C14.7552 55.2825 14.5443 55.1342 14.3107 55.0552C14.0805 54.9758 13.8594 54.9686 13.6543 55.0329L14.273 54.644L13.4404 55.3883L12.7972 54.6652L13.5452 53.998C13.9215 53.9332 14.2932 53.9704 14.658 54.1203C15.0224 54.2667 15.3611 54.5142 15.6706 54.8633L15.6629 54.8573ZM14.4074 56.1581L13.8387 56.6664L12.122 54.7431L12.6907 54.2347L14.4074 56.1581Z" fill="#FFC43D"/>
<path d="M10.0055 53.9504L9.27118 54.4202L8.19256 52.7348L8.92689 52.265L10.0055 53.9504ZM13.7011 52.6541L9.75817 55.1804L9.20573 54.3166L13.1487 51.7903L13.7011 52.6541ZM11.5778 52.9454L10.8435 53.4152L9.8178 51.8175L10.5521 51.3477L11.5778 52.9454ZM13.2146 51.8973L12.4802 52.3671L11.3758 50.643L12.1101 50.1732L13.2146 51.8973Z" fill="#FFC43D"/>
<path d="M8.50021 51.4551L7.66044 51.8368L6.12645 48.475L6.96623 48.0933L8.50021 51.4551ZM11.372 48.693L7.83488 50.3049L7.40022 49.3494L10.9373 47.7375L11.372 48.693Z" fill="#FFC43D"/>
<path d="M39.0578 58.9644C50.9993 57.4634 59.4631 46.5656 57.962 34.6234C56.461 22.6812 45.5637 14.2169 33.6221 15.7179C21.6805 17.2188 13.2168 28.1166 14.7178 40.0588C16.2188 52.001 27.1162 60.4653 39.0578 58.9644Z" fill="white"/>
<path d="M18.5652 43.3849C18.5652 43.3849 16.9994 38.7128 21.3689 32.2671C25.7384 25.8214 29.3028 23.2308 33.2967 21.6103C33.2967 21.6103 33.2933 21.6108 33.2903 21.6146C33.2972 21.6138 33.3006 21.6133 33.307 21.609C33.307 21.609 30.2969 23.9098 30.6558 26.7657C30.7601 27.595 30.9626 28.1497 31.196 28.5049C31.5038 28.98 31.9108 29.1036 32.2549 29.0603C32.5474 29.0236 32.7013 28.8854 33.0512 28.6946L34.9966 44.1717C34.9966 44.1717 35.0694 44.4177 35.3298 44.6821C35.7069 45.0681 36.2776 45.5207 37.2315 45.4078C38.8542 45.1933 40.6675 43.1024 40.6675 43.1024L39.0924 30.5707C38.9319 29.2941 37.8268 27.8707 36.7938 27.4657C36.7938 27.4657 36.9237 27.4424 37.137 27.4156C37.777 27.3352 39.1555 27.2353 39.9894 27.7247C40.172 27.4536 43.1055 23.1527 49.042 21.1937C49.0489 21.1928 49.0524 21.1924 49.0592 21.1915C49.0592 21.1915 46.189 25.5788 45.3835 27.6793C45.1956 27.7134 45.639 31.4361 46.1371 35.1483C46.6191 38.7333 47.1554 42.3044 47.2351 42.5496C47.2351 42.5496 47.66 43.0379 48.5761 42.9298C49.6092 42.8069 51.2624 41.9176 53.6306 38.7084C53.6306 38.7084 53.5787 38.8792 53.4705 39.1864C52.8858 40.8467 50.6396 46.4453 45.8678 50.1349L42.1679 47.7268L42.0728 47.6654L38.9118 51.9913C38.9118 51.9913 38.9118 51.9913 38.9049 51.9922C38.9049 51.9922 30.5005 52.3355 26.3987 47.7585C26.3987 47.7585 26.4056 47.7576 26.4167 47.7632C26.4167 47.7632 26.4163 47.7598 26.4124 47.7568C26.4124 47.7568 26.9644 47.8936 27.5579 47.833C28.2547 47.7594 28.9521 47.4131 28.8059 46.2501L27.3246 34.465C27.249 33.8629 26.7513 33.2403 25.8399 33.3584C25.0211 33.4613 23.9174 34.1628 22.5208 36.009C19.5715 39.9064 18.579 43.3831 18.579 43.3831C18.579 43.3831 18.5786 43.3797 18.5773 43.3694C18.5781 43.3762 18.5721 43.384 18.5721 43.384M39.5494 61.0408C46.0351 60.2256 51.8181 56.9332 55.828 51.77C59.838 46.6068 61.5967 40.1887 60.7814 33.7026C59.9662 27.2166 56.6739 21.4333 51.511 17.4231C46.348 13.4128 39.9302 11.654 33.4444 12.4692C26.9587 13.2844 21.1758 16.5767 17.1658 21.7399C13.1558 26.9031 11.3972 33.3212 12.2124 39.8073C13.0276 46.2934 16.3199 52.0766 21.4829 56.0869C26.6459 60.0971 33.0637 61.856 39.5494 61.0408Z" fill="#FFC43D"/>
<path d="M7.7566 45.3448C8.70673 45.2254 9.38014 44.3583 9.26071 43.4081C9.14128 42.4579 8.27424 41.7845 7.32411 41.9039C6.37399 42.0233 5.70058 42.8904 5.82 43.8406C5.93943 44.7907 6.80647 45.4642 7.7566 45.3448Z" fill="#FFC43D"/>
</g>
<defs>
<clipPath id="clip0_118_245">
<rect width="65.1943" height="65.1943" fill="white" transform="translate(0 8.13037) rotate(-7.16395)"/>
</clipPath>
</defs>
</svg>
