<svg width="109" height="82" viewBox="0 0 109 82" fill="none" xmlns="http://www.w3.org/2000/svg">
<rect x="16.6669" y="1.85209" width="93.4883" height="54.3468" transform="rotate(15.8188 16.6669 1.85209)" fill="white" stroke="#FFC43D" stroke-width="3"/>
<path d="M18.7624 35.1304C18.1338 34.9523 17.6145 34.6943 17.2044 34.3564C16.7961 34.0121 16.488 33.6199 16.2801 33.1799C16.0786 32.7417 15.9649 32.2868 15.9392 31.8153C15.9134 31.3437 15.9614 30.8931 16.0831 30.4633L16.1431 30.2516C16.2685 29.8091 16.4649 29.397 16.7324 29.0155C16.9999 28.6339 17.3302 28.3118 17.7234 28.049C18.123 27.7881 18.5732 27.6176 19.0739 27.5378C19.581 27.4597 20.1265 27.5034 20.7102 27.6688C21.3452 27.8487 21.8728 28.1264 22.293 28.5018C22.7151 28.8708 23.0146 29.3056 23.1915 29.8061C23.3702 30.3002 23.4048 30.8263 23.2953 31.3842L21.7174 30.9371C21.7516 30.6697 21.7125 30.4161 21.6003 30.1764C21.4945 29.9385 21.3287 29.7287 21.103 29.547C20.8838 29.3671 20.6138 29.2317 20.2931 29.1408C19.9852 29.0536 19.6939 29.03 19.4193 29.07C19.1511 29.1118 18.9022 29.2076 18.6727 29.3573C18.4496 29.5089 18.2541 29.7099 18.0861 29.9603C17.9264 30.206 17.8002 30.4925 17.7075 30.8196C17.6112 31.1596 17.568 31.4834 17.5778 31.791C17.5959 32.0941 17.6656 32.3737 17.7871 32.6299C17.9103 32.8796 18.088 33.0962 18.3201 33.2798C18.5586 33.4651 18.8414 33.6042 19.1685 33.6968C19.6047 33.8204 20.0086 33.8378 20.3802 33.7491C20.7518 33.6604 21.0499 33.4885 21.2746 33.2334L20.7769 34.2565L21.2512 32.5824L22.704 32.994L22.2788 34.4949C21.8392 34.897 21.316 35.1541 20.7091 35.2662C20.1104 35.3738 19.4615 35.3285 18.7624 35.1304ZM19.3263 32.3696L19.648 31.2343L23.5157 32.3301L23.1941 33.4654L19.3263 32.3696ZM23.4132 36.2506L24.907 30.9782L26.129 31.3244L25.4884 33.5854L25.4595 33.5772C25.6703 32.8331 25.9901 32.3036 26.4189 31.9886C26.8541 31.6753 27.3731 31.6041 27.9761 31.775L28.1781 31.8322L27.8019 33.1599L27.4171 33.0509C26.9938 32.931 26.6339 32.9537 26.3376 33.1192C26.0431 33.2783 25.8349 33.5727 25.7132 34.0025L24.9526 36.6868L23.4132 36.2506ZM30.6099 38.2896L31.0515 36.731L30.7917 36.6574L31.2715 34.964C31.3478 34.6946 31.3409 34.4744 31.2508 34.3034C31.1607 34.1323 30.9745 34.0068 30.6923 33.9269C30.5511 33.8869 30.3642 33.8374 30.1315 33.7784C29.8988 33.7194 29.6587 33.6618 29.4113 33.6055C29.164 33.5493 28.939 33.4994 28.7366 33.4559L29.1046 32.1571C29.2557 32.186 29.4326 32.2223 29.635 32.2658C29.8375 32.3093 30.0455 32.3578 30.259 32.4114C30.4725 32.4649 30.6722 32.5181 30.8582 32.5708C31.397 32.7234 31.8274 32.9285 32.1494 33.186C32.4778 33.4454 32.6937 33.7594 32.7971 34.1283C32.9023 34.4907 32.8858 34.9156 32.7477 35.4031L31.8318 38.6358L30.6099 38.2896ZM28.888 37.9473C28.5095 37.8401 28.1951 37.6782 27.9446 37.4617C27.7006 37.2471 27.5338 36.992 27.4443 36.6964C27.3566 36.3944 27.3628 36.067 27.4627 35.7142C27.5718 35.3294 27.7602 35.0432 28.0281 34.8558C28.2979 34.662 28.6287 34.5583 29.0206 34.5446C29.4143 34.5245 29.8453 34.5807 30.3135 34.7134L31.4392 35.0324L31.1966 35.8886L30.0613 35.567C29.7919 35.4907 29.5643 35.4989 29.3786 35.5918C29.2012 35.6801 29.0807 35.8365 29.0171 36.061C28.9571 36.2727 28.9786 36.4659 29.0815 36.6406C29.1927 36.8106 29.383 36.9338 29.6524 37.0102C29.8256 37.0592 29.9877 37.074 30.1387 37.0544C30.298 37.0303 30.4435 36.9571 30.5751 36.8351C30.7067 36.713 30.8161 36.5223 30.9035 36.2629L31.16 36.7514C31.0244 37.1079 30.8473 37.3903 30.6289 37.5987C30.417 37.8088 30.1636 37.9449 29.8689 38.0069C29.5806 38.0708 29.2536 38.0509 28.888 37.9473ZM32.5927 40.9301L34.6317 33.7334L35.8536 34.0796L35.2075 36.3599L35.0467 36.3039C35.2214 35.7852 35.4558 35.3735 35.75 35.0688C36.046 34.7578 36.383 34.5588 36.761 34.4718C37.1409 34.3785 37.536 34.39 37.9465 34.5063C38.3121 34.6099 38.6234 34.7708 38.8803 34.9891C39.1436 35.2092 39.3465 35.4711 39.4892 35.7749C39.64 36.074 39.7236 36.4025 39.74 36.7606C39.7645 37.114 39.7223 37.4831 39.6133 37.868L39.5506 38.0893C39.4434 38.4677 39.288 38.8082 39.0844 39.1109C38.8827 39.4071 38.6415 39.6471 38.3608 39.8309C38.0865 40.0165 37.7786 40.1371 37.4371 40.1928C37.1039 40.2439 36.7449 40.2149 36.36 40.1059C35.9624 39.9932 35.6259 39.8113 35.3506 39.5601C35.0835 39.3042 34.9011 38.9823 34.8031 38.5942C34.707 38.1998 34.723 37.74 34.8509 37.215L35.1107 37.9123L34.1321 41.3663L32.5927 40.9301ZM36.2924 38.694C36.5553 38.7685 36.8012 38.7689 37.03 38.6951C37.2652 38.6231 37.47 38.4872 37.6445 38.2871C37.8189 38.0871 37.9489 37.8364 38.0343 37.5349C38.1197 37.2335 38.1397 36.955 38.0942 36.6996C38.0488 36.4442 37.9471 36.2284 37.7892 36.052C37.6332 35.8692 37.4204 35.7396 37.151 35.6633C36.9201 35.5978 36.6866 35.5906 36.4504 35.6415C36.2143 35.6924 36.003 35.8022 35.8166 35.9712C35.6384 36.1355 35.5084 36.3619 35.4266 36.6506L35.3257 37.0066C35.2476 37.2824 35.2445 37.5379 35.3164 37.7731C35.3966 38.0037 35.5248 38.1993 35.701 38.3601C35.8771 38.5209 36.0743 38.6322 36.2924 38.694ZM39.9028 40.9226L41.8928 33.899L43.4322 34.3352L42.2846 38.3858L42.0536 38.3203C42.2045 37.7879 42.399 37.358 42.6373 37.0306C42.8756 36.7031 43.1526 36.4837 43.4683 36.3722C43.7858 36.2543 44.1434 36.2516 44.541 36.3643L44.6084 36.3834C45.1921 36.5488 45.5788 36.8835 45.7686 37.3877C45.9601 37.8854 45.9433 38.532 45.7179 39.3273L44.8674 42.3292L43.328 41.893L44.2058 38.795C44.2875 38.5063 44.2664 38.2509 44.1423 38.0286C44.0264 37.8018 43.8305 37.6493 43.5547 37.5711C43.2661 37.4894 43.0056 37.516 42.7733 37.6512C42.5474 37.7881 42.3909 38.0105 42.3036 38.3184L41.4422 41.3587L39.9028 40.9226ZM46.4294 42.7717L47.9232 37.4992L49.4626 37.9354L47.9688 43.2079L46.4294 42.7717ZM46.8992 38.4356L47.2208 37.3003L49.4626 37.9354L49.1409 39.0707L46.8992 38.4356ZM48.6669 37.1487C48.3783 37.0669 48.1843 36.9323 48.085 36.7448C47.9939 36.5527 47.9811 36.3412 48.0465 36.1103C48.1137 35.8729 48.2356 35.6996 48.4121 35.5902C48.5968 35.4763 48.8335 35.4602 49.1221 35.542C49.4108 35.6237 49.6006 35.7607 49.6917 35.9528C49.791 36.1403 49.8071 36.3527 49.7398 36.59C49.6744 36.8209 49.5493 36.9934 49.3646 37.1073C49.1881 37.2167 48.9556 37.2305 48.6669 37.1487ZM51.7076 44.4647C51.2522 44.3356 50.8754 44.1492 50.5773 43.9053C50.2873 43.6569 50.0665 43.3726 49.9147 43.0524C49.7629 42.7323 49.6779 42.3964 49.6597 42.0448C49.6434 41.6867 49.6842 41.3346 49.7824 40.9882L49.8342 40.8054C49.9359 40.4462 50.0909 40.1194 50.299 39.825C50.509 39.5241 50.7626 39.2772 51.0597 39.0843C51.3569 38.8913 51.6932 38.7683 52.0685 38.7153C52.4503 38.6641 52.8592 38.7003 53.2954 38.8239C53.7701 38.9583 54.1638 39.1704 54.4767 39.46C54.7915 39.7432 55.0115 40.0792 55.1369 40.4681C55.2623 40.857 55.2779 41.2668 55.1836 41.6974L53.6731 41.2694C53.7146 41.0248 53.6748 40.7987 53.5534 40.5911C53.4403 40.3789 53.2298 40.2292 52.9219 40.142C52.6654 40.0693 52.4323 40.0725 52.2228 40.1518C52.0197 40.2328 51.8446 40.3737 51.6976 40.5746C51.5507 40.7755 51.4335 41.0299 51.3463 41.3377C51.2664 41.62 51.2321 41.8874 51.2437 42.1402C51.2571 42.3865 51.329 42.5974 51.4594 42.7729C51.598 42.9439 51.8053 43.0684 52.0811 43.1465C52.2863 43.2047 52.4695 43.2185 52.6306 43.1879C52.7999 43.1527 52.9445 43.0828 53.0642 42.9782C53.1922 42.8689 53.2903 42.7304 53.3586 42.5627L54.8595 42.9879C54.7167 43.4186 54.4858 43.769 54.1668 44.0389C53.8496 44.3024 53.4787 44.4745 53.054 44.5551C52.631 44.6293 52.1823 44.5991 51.7076 44.4647ZM58.7556 46.3056L59.1727 44.8336L60.4811 45.2043C60.8083 45.297 61.117 45.3325 61.4072 45.3108C61.6993 45.2827 61.9637 45.2051 62.2006 45.0782C62.4393 44.9449 62.6431 44.7636 62.8121 44.5343C62.9828 44.2986 63.1127 44.0236 63.2017 43.7093C63.2944 43.3822 63.329 43.0767 63.3055 42.7929C63.2819 42.509 63.2026 42.251 63.0675 42.0187C62.9324 41.7864 62.746 41.5881 62.5085 41.4238C62.2728 41.253 61.9913 41.1213 61.6642 41.0287L60.3557 40.6579L60.7728 39.1859L61.9947 39.5321C62.6297 39.712 63.1582 39.9622 63.5801 40.2827C64.0021 40.6032 64.328 40.9692 64.5578 41.3808C64.7877 41.7924 64.9205 42.2284 64.9563 42.6889C65.0003 43.1449 64.9579 43.6006 64.8288 44.056L64.7689 44.2676C64.6489 44.691 64.4497 45.0884 64.1712 45.4599C63.901 45.8268 63.5582 46.1316 63.143 46.3742C62.7296 46.6105 62.2575 46.7608 61.7265 46.8252C61.1955 46.8895 60.6125 46.8317 59.9775 46.6518L58.7556 46.3056ZM57.3701 45.9131L59.3873 38.7933L60.9652 39.2404L58.948 46.3601L57.3701 45.9131ZM67.1742 48.8467C66.7252 48.7195 66.3493 48.5299 66.0466 48.2778C65.7503 48.0276 65.523 47.7414 65.3648 47.4194C65.2148 47.0929 65.1243 46.7519 65.0933 46.3967C65.0705 46.0369 65.1073 45.687 65.2036 45.347L65.2581 45.1546C65.3581 44.8018 65.5112 44.4814 65.7175 44.1934C65.9321 43.9008 66.1879 43.6581 66.4851 43.4651C66.7823 43.2721 67.1186 43.1491 67.4939 43.0961C67.8775 43.0385 68.2841 43.0706 68.7139 43.1923C69.2783 43.3522 69.7166 43.615 70.0288 43.9806C70.3492 44.3416 70.5539 44.7565 70.6428 45.2251C70.7336 45.6874 70.7108 46.159 70.5745 46.6401L70.4273 47.1596L65.761 45.8375L66.009 44.962L69.7421 46.0197L69.1273 46.282C69.2164 45.9677 69.2478 45.6856 69.2216 45.4357C69.1954 45.1857 69.1089 44.9776 68.962 44.8113C68.8233 44.6403 68.6225 44.5176 68.3595 44.4431C68.0901 44.3668 67.8452 44.3632 67.6246 44.4323C67.4041 44.5015 67.2121 44.6411 67.0486 44.8512C66.887 45.0548 66.758 45.3266 66.6617 45.6666C66.5726 45.9809 66.5394 46.2694 66.562 46.5322C66.5863 46.7885 66.6766 47.0081 66.8326 47.1909C66.9887 47.3737 67.2207 47.5087 67.5286 47.596C67.8108 47.6759 68.0572 47.6868 68.2677 47.6287C68.4781 47.5705 68.6382 47.4704 68.7478 47.3282L70.1621 47.7289C69.9852 48.0599 69.7454 48.3315 69.4427 48.5437C69.1401 48.7559 68.797 48.8908 68.4134 48.9484C68.0299 49.006 67.6168 48.9721 67.1742 48.8467ZM72.7698 50.4113C72.0194 50.1987 71.4761 49.8785 71.14 49.4507C70.8039 49.0229 70.7021 48.5263 70.8345 47.961L72.2007 48.3481C72.1791 48.5221 72.2359 48.701 72.3709 48.8848C72.5141 49.0639 72.7621 49.2035 73.1149 49.3035C73.3843 49.3798 73.6183 49.3976 73.817 49.3569C74.0238 49.3115 74.1518 49.2023 74.2008 49.0291C74.2445 48.8751 74.2116 48.7342 74.1024 48.6062C73.9949 48.4719 73.7735 48.3364 73.438 48.1997L73.0352 48.044C72.4184 47.8 71.9905 47.4882 71.7516 47.1087C71.5191 46.731 71.4664 46.3177 71.5936 45.8687C71.699 45.4967 71.8802 45.2119 72.1371 45.0145C72.3939 44.817 72.7041 44.7005 73.0676 44.6649C73.4375 44.6311 73.8341 44.6742 74.2574 44.7941C74.9373 44.9868 75.443 45.2929 75.7745 45.7125C76.1079 46.1256 76.2042 46.6172 76.0635 47.1871L74.6973 46.8C74.7207 46.6195 74.6718 46.4498 74.5506 46.2907C74.4311 46.1252 74.2207 45.9998 73.9192 45.9144C73.6819 45.8471 73.48 45.8384 73.3134 45.8882C73.1469 45.938 73.0418 46.0399 72.9982 46.1939C72.9564 46.3414 72.9855 46.4709 73.0856 46.5824C73.1856 46.6939 73.369 46.8048 73.6357 46.915L74.0386 47.0707C74.6664 47.3248 75.119 47.647 75.3964 48.0374C75.6739 48.4279 75.7435 48.8668 75.6054 49.3543C75.5054 49.7071 75.322 49.9877 75.0551 50.1961C74.7899 50.3982 74.461 50.5198 74.0682 50.561C73.6773 50.5957 73.2445 50.5458 72.7698 50.4113ZM76.4113 51.2664L77.9051 45.9939L79.4446 46.4301L77.9507 51.7025L76.4113 51.2664ZM76.8811 46.9302L77.2028 45.7949L79.4446 46.4301L79.1229 47.5654L76.8811 46.9302ZM78.6489 45.6434C78.3602 45.5616 78.1663 45.427 78.0669 45.2394C77.9759 45.0473 77.963 44.8358 78.0284 44.6049C78.0957 44.3676 78.2176 44.1943 78.3941 44.0849C78.5788 43.9709 78.8155 43.9548 79.1041 44.0366C79.3927 44.1184 79.5826 44.2553 79.6737 44.4474C79.773 44.635 79.789 44.8474 79.7218 45.0847C79.6564 45.3156 79.5313 45.488 79.3466 45.602C79.1701 45.7114 78.9375 45.7252 78.6489 45.6434ZM80.8585 54.7922C80.6019 54.7195 80.3416 54.6354 80.0777 54.5398C79.8138 54.4442 79.5741 54.3486 79.3587 54.2529L79.7267 52.954C79.9421 53.0497 80.1818 53.1453 80.4457 53.2409C80.7142 53.3447 80.9608 53.4284 81.1853 53.492C81.6022 53.6102 81.9526 53.6575 82.2364 53.6339C82.5266 53.6122 82.7609 53.5192 82.9391 53.3549C83.1154 53.197 83.2473 52.9641 83.3345 52.6562L83.6316 51.6075L84.0851 51.0708C83.9396 51.5354 83.733 51.91 83.4653 52.1944C83.2041 52.4807 82.8973 52.6709 82.5449 52.7651C82.1944 52.8529 81.8106 52.8377 81.3937 52.7196C81.0345 52.6178 80.7256 52.461 80.4669 52.2491C80.2164 52.0326 80.0221 51.7767 79.8841 51.4812C79.7461 51.1857 79.6671 50.8654 79.6471 50.5202C79.6289 50.1686 79.6726 49.8068 79.778 49.4347L79.8407 49.2135C79.9461 48.8414 80.1019 48.5114 80.3082 48.2234C80.5146 47.9354 80.7604 47.7037 81.0457 47.5281C81.331 47.3526 81.6426 47.2434 81.9804 47.2005C82.32 47.1512 82.6727 47.1784 83.0383 47.282C83.4616 47.4019 83.8009 47.5985 84.056 47.8717C84.3176 48.1468 84.4874 48.4894 84.5652 48.8995C84.643 49.3095 84.6166 49.7697 84.4858 50.2801L84.2578 50.2779L84.9093 47.9784L86.1312 48.3246L84.8146 52.9717C84.631 53.6195 84.3674 54.1095 84.0239 54.4418C83.6803 54.774 83.2448 54.9659 82.7175 55.0175C82.1965 55.0708 81.5769 54.9957 80.8585 54.7922ZM82.2428 51.557C82.4801 51.6243 82.7095 51.6338 82.931 51.5857C83.1543 51.5312 83.3487 51.42 83.5141 51.252C83.6859 51.0859 83.8117 50.8617 83.8917 50.5795L83.9708 50.3005C84.0489 50.0247 84.0534 49.7765 83.9842 49.5559C83.9233 49.3308 83.8102 49.1429 83.6451 48.9921C83.4817 48.835 83.291 48.7255 83.0729 48.6637C82.8164 48.591 82.5714 48.5875 82.338 48.653C82.1046 48.7185 81.9025 48.8449 81.7317 49.0321C81.5609 49.2193 81.4337 49.4604 81.3501 49.7554C81.2647 50.0569 81.2456 50.3321 81.2928 50.5811C81.3483 50.8255 81.4559 51.0327 81.6156 51.2026C81.7836 51.368 81.9926 51.4861 82.2428 51.557ZM85.9704 53.9747L87.4642 48.7022L88.6861 49.0484L88.0455 51.3094L87.9589 51.2849C88.1116 50.7461 88.3061 50.3162 88.5426 49.9952C88.7855 49.676 89.0735 49.4665 89.4066 49.3669C89.7397 49.2673 90.1083 49.2747 90.5124 49.3892L90.5797 49.4083C91.1955 49.5827 91.6065 49.9174 91.8127 50.4124C92.0272 50.9028 92.019 51.5552 91.7882 52.3698L90.935 55.3813L89.3955 54.9452L90.2733 51.8471C90.3533 51.5649 90.3353 51.3103 90.2194 51.0835C90.1035 50.8566 89.9045 50.7032 89.6223 50.6233C89.3336 50.5415 89.0732 50.5682 88.8409 50.7033C88.6168 50.8338 88.463 51.0466 88.3794 51.3417L87.5098 54.4109L85.9704 53.9747Z" fill="#FFC43D"/>
<rect x="16.2893" y="14.3774" width="4.55134" height="4.55134" transform="rotate(15.8188 16.2893 14.3774)" fill="#FFC43D"/>
<rect x="33.8052" y="19.3403" width="4.55134" height="4.55134" transform="rotate(15.8188 33.8052 19.3403)" fill="#FFC43D"/>
<rect x="51.321" y="24.3027" width="4.55134" height="4.55134" transform="rotate(15.8188 51.321 24.3027)" fill="#FFC43D"/>
<rect x="68.8372" y="29.2656" width="4.55134" height="4.55134" transform="rotate(15.8188 68.8372 29.2656)" fill="#FFC43D"/>
<rect x="86.353" y="34.2285" width="4.55134" height="4.55134" transform="rotate(15.8188 86.353 34.2285)" fill="#FFC43D"/>
<rect x="25.0474" y="16.8589" width="4.55134" height="4.55134" transform="rotate(15.8188 25.0474 16.8589)" fill="#FFC43D"/>
<rect x="42.5632" y="21.8218" width="4.55134" height="4.55134" transform="rotate(15.8188 42.5632 21.8218)" fill="#FFC43D"/>
<rect x="60.0791" y="26.7842" width="4.55134" height="4.55134" transform="rotate(15.8188 60.0791 26.7842)" fill="#FFC43D"/>
<rect x="77.595" y="31.7471" width="4.55134" height="4.55134" transform="rotate(15.8188 77.595 31.7471)" fill="#FFC43D"/>
<rect x="95.1108" y="36.7095" width="4.55134" height="4.55134" transform="rotate(15.8188 95.1108 36.7095)" fill="#FFC43D"/>
<rect x="18.7708" y="5.61963" width="4.55134" height="4.55134" transform="rotate(15.8188 18.7708 5.61963)" fill="#FFC43D"/>
<rect x="36.2866" y="10.5825" width="4.55134" height="4.55134" transform="rotate(15.8188 36.2866 10.5825)" fill="#FFC43D"/>
<rect x="53.8025" y="15.5449" width="4.55134" height="4.55134" transform="rotate(15.8188 53.8025 15.5449)" fill="#FFC43D"/>
<rect x="71.3184" y="20.5078" width="4.55134" height="4.55134" transform="rotate(15.8188 71.3184 20.5078)" fill="#FFC43D"/>
<rect x="88.8342" y="25.4702" width="4.55134" height="4.55134" transform="rotate(15.8188 88.8342 25.4702)" fill="#FFC43D"/>
<rect x="27.5288" y="8.10107" width="4.55134" height="4.55134" transform="rotate(15.8188 27.5288 8.10107)" fill="#FFC43D"/>
<rect x="45.0447" y="13.0635" width="4.55134" height="4.55134" transform="rotate(15.8188 45.0447 13.0635)" fill="#FFC43D"/>
<rect x="62.5605" y="18.0264" width="4.55134" height="4.55134" transform="rotate(15.8188 62.5605 18.0264)" fill="#FFC43D"/>
<rect x="80.0764" y="22.9888" width="4.55134" height="4.55134" transform="rotate(15.8188 80.0764 22.9888)" fill="#FFC43D"/>
<rect x="97.5923" y="27.9517" width="4.55134" height="4.55134" transform="rotate(15.8188 97.5923 27.9517)" fill="#FFC43D"/>
<rect x="21.9089" y="11.2397" width="4.55134" height="4.55134" transform="rotate(15.8188 21.9089 11.2397)" fill="#FFC43D"/>
<rect x="39.4248" y="16.2021" width="4.55134" height="4.55134" transform="rotate(15.8188 39.4248 16.2021)" fill="#FFC43D"/>
<rect x="56.9409" y="21.165" width="4.55134" height="4.55134" transform="rotate(15.8188 56.9409 21.165)" fill="#FFC43D"/>
<rect x="74.4568" y="26.1274" width="4.55134" height="4.55134" transform="rotate(15.8188 74.4568 26.1274)" fill="#FFC43D"/>
<rect x="91.9727" y="31.0903" width="4.55134" height="4.55134" transform="rotate(15.8188 91.9727 31.0903)" fill="#FFC43D"/>
<rect x="30.667" y="13.7207" width="4.55134" height="4.55134" transform="rotate(15.8188 30.667 13.7207)" fill="#FFC43D"/>
<rect x="48.1829" y="18.6836" width="4.55134" height="4.55134" transform="rotate(15.8188 48.1829 18.6836)" fill="#FFC43D"/>
<rect x="65.6987" y="23.646" width="4.55134" height="4.55134" transform="rotate(15.8188 65.6987 23.646)" fill="#FFC43D"/>
<rect x="83.2146" y="28.6089" width="4.55134" height="4.55134" transform="rotate(15.8188 83.2146 28.6089)" fill="#FFC43D"/>
<rect x="6.86035" y="47.6572" width="4.55134" height="4.55134" transform="rotate(15.8188 6.86035 47.6572)" fill="#FFC43D"/>
<rect x="24.3762" y="52.6201" width="4.55134" height="4.55134" transform="rotate(15.8188 24.3762 52.6201)" fill="#FFC43D"/>
<rect x="41.8921" y="57.5825" width="4.55134" height="4.55134" transform="rotate(15.8188 41.8921 57.5825)" fill="#FFC43D"/>
<rect x="59.4082" y="62.5454" width="4.55134" height="4.55134" transform="rotate(15.8188 59.4082 62.5454)" fill="#FFC43D"/>
<rect x="76.9241" y="67.5083" width="4.55134" height="4.55134" transform="rotate(15.8188 76.9241 67.5083)" fill="#FFC43D"/>
<rect x="15.6184" y="50.1387" width="4.55134" height="4.55134" transform="rotate(15.8188 15.6184 50.1387)" fill="#FFC43D"/>
<rect x="33.1343" y="55.1016" width="4.55134" height="4.55134" transform="rotate(15.8188 33.1343 55.1016)" fill="#FFC43D"/>
<rect x="50.6501" y="60.064" width="4.55134" height="4.55134" transform="rotate(15.8188 50.6501 60.064)" fill="#FFC43D"/>
<rect x="68.166" y="65.0269" width="4.55134" height="4.55134" transform="rotate(15.8188 68.166 65.0269)" fill="#FFC43D"/>
<rect x="85.6819" y="69.9897" width="4.55134" height="4.55134" transform="rotate(15.8188 85.6819 69.9897)" fill="#FFC43D"/>
<rect x="9.3418" y="38.8994" width="4.55134" height="4.55134" transform="rotate(15.8188 9.3418 38.8994)" fill="#FFC43D"/>
<rect x="26.8577" y="43.8623" width="4.55134" height="4.55134" transform="rotate(15.8188 26.8577 43.8623)" fill="#FFC43D"/>
<rect x="44.3735" y="48.8247" width="4.55134" height="4.55134" transform="rotate(15.8188 44.3735 48.8247)" fill="#FFC43D"/>
<rect x="61.8894" y="53.7876" width="4.55134" height="4.55134" transform="rotate(15.8188 61.8894 53.7876)" fill="#FFC43D"/>
<rect x="79.4053" y="58.7505" width="4.55134" height="4.55134" transform="rotate(15.8188 79.4053 58.7505)" fill="#FFC43D"/>
<rect x="18.0999" y="41.3809" width="4.55134" height="4.55134" transform="rotate(15.8188 18.0999 41.3809)" fill="#FFC43D"/>
<rect x="35.6157" y="46.3433" width="4.55134" height="4.55134" transform="rotate(15.8188 35.6157 46.3433)" fill="#FFC43D"/>
<rect x="53.1316" y="51.3062" width="4.55134" height="4.55134" transform="rotate(15.8188 53.1316 51.3062)" fill="#FFC43D"/>
<rect x="70.6475" y="56.269" width="4.55134" height="4.55134" transform="rotate(15.8188 70.6475 56.269)" fill="#FFC43D"/>
<rect x="88.1633" y="61.2319" width="4.55134" height="4.55134" transform="rotate(15.8188 88.1633 61.2319)" fill="#FFC43D"/>
<rect x="12.48" y="44.5195" width="4.55134" height="4.55134" transform="rotate(15.8188 12.48 44.5195)" fill="#FFC43D"/>
<rect x="29.9958" y="49.4819" width="4.55134" height="4.55134" transform="rotate(15.8188 29.9958 49.4819)" fill="#FFC43D"/>
<rect x="47.512" y="54.4448" width="4.55134" height="4.55134" transform="rotate(15.8188 47.512 54.4448)" fill="#FFC43D"/>
<rect x="65.0278" y="59.4072" width="4.55134" height="4.55134" transform="rotate(15.8188 65.0278 59.4072)" fill="#FFC43D"/>
<rect x="82.5437" y="64.3701" width="4.55134" height="4.55134" transform="rotate(15.8188 82.5437 64.3701)" fill="#FFC43D"/>
<rect x="21.238" y="47.0005" width="4.55134" height="4.55134" transform="rotate(15.8188 21.238 47.0005)" fill="#FFC43D"/>
<rect x="38.7539" y="51.9634" width="4.55134" height="4.55134" transform="rotate(15.8188 38.7539 51.9634)" fill="#FFC43D"/>
<rect x="56.2698" y="56.9258" width="4.55134" height="4.55134" transform="rotate(15.8188 56.2698 56.9258)" fill="#FFC43D"/>
<rect x="73.7856" y="61.8887" width="4.55134" height="4.55134" transform="rotate(15.8188 73.7856 61.8887)" fill="#FFC43D"/>
</svg>
