<svg width="119" height="119" viewBox="0 0 119 119" fill="none" xmlns="http://www.w3.org/2000/svg">
<g clip-path="url(#clip0_118_237)">
<rect x="45.4431" y="44" width="35" height="25" transform="rotate(12.5755 45.4431 44)" fill="white"/>
<path d="M59.0643 54.5926C59.2217 55.1242 59.2241 55.6893 59.0718 56.2148C58.8801 56.967 58.5601 57.5045 58.0902 57.8398C57.6031 58.1708 57.039 58.373 56.4497 58.3866C55.7614 58.4297 55.0649 58.3614 54.3946 58.1905L53.4835 57.9583C53.2773 57.9057 53.0582 57.8317 52.8219 57.7532L54.286 52.0092C54.4107 52.0227 54.6557 52.067 54.9951 52.1717C55.326 52.2378 55.7214 52.3386 56.1683 52.4525C56.8774 52.6151 57.5388 52.8929 58.1095 53.3114C58.56 53.6265 58.8854 54.0736 59.0643 54.5926Z" fill="#FFC43D"/>
<path d="M78.1448 43.653L51.5019 36.862C47.4624 35.8324 43.3686 38.2481 42.3446 42.2656L35.852 67.7379C34.828 71.7553 37.266 75.8359 41.3054 76.8655L67.9484 83.6565C71.9878 84.6861 76.0816 82.2704 77.1056 78.253L83.5982 52.7807C84.6222 48.7632 82.1842 44.6826 78.1448 43.653ZM60.8901 60.4288C59.9585 61.2109 58.8129 61.6835 57.591 61.8091C56.3133 61.9385 54.9849 61.7638 53.5754 61.4045C53.1628 61.2994 52.8878 61.2293 52.7203 61.1684C52.5527 61.1074 52.3121 61.0461 51.9855 60.9629L50.5868 66.4505C50.5734 66.5746 50.4614 66.6552 50.3367 66.6417L47.002 65.7917C46.8645 65.7566 46.8132 65.6707 46.8524 65.5169L51.3362 47.9256C51.3667 47.8059 51.4357 47.7507 51.556 47.7814C51.8482 47.8558 52.1233 47.9259 52.523 48.0096C52.9399 48.0977 53.3696 48.2072 53.8381 48.3084C54.3065 48.4096 54.805 48.5367 55.3422 48.6554C55.8794 48.7741 56.3951 48.9055 56.9108 49.037C58.3203 49.3962 59.4455 49.8651 60.3166 50.4695C61.102 50.9792 61.7707 51.6594 62.2626 52.4584C62.6732 53.1457 62.933 53.9219 63.0207 54.7271C63.0955 55.5109 63.0456 56.281 62.8496 57.0503C62.4748 58.5205 61.8217 59.6467 60.8901 60.4288ZM73.1959 61.4171C73.1611 61.5538 73.062 61.5832 72.873 61.535C72.2585 61.3602 71.6095 61.2494 70.973 61.2328C70.4484 61.2083 69.9278 61.2395 69.4114 61.3264C69.0456 61.397 68.6839 61.5233 68.3736 61.7354L66.1513 70.4542C66.1077 70.6251 66.0215 70.676 65.8668 70.6365L62.4806 69.7734C62.3387 69.7555 62.2402 69.6393 62.2579 69.4982L64.6893 59.9589C64.7939 59.5486 64.9028 59.1212 64.9989 58.6723C65.095 58.2235 65.2083 57.779 65.3044 57.3301C65.4047 56.9369 65.4661 56.5521 65.532 56.1501C65.5366 56.0602 65.6099 55.9879 65.7002 55.9927C65.7046 55.9756 65.739 55.9844 65.7518 56.0059L68.7599 56.7726C68.9318 56.8164 69.0388 56.9711 69.0511 57.1381C69.0678 57.288 69.0674 57.4336 69.0453 57.5918C69.0361 57.7715 69.0226 57.9683 68.9962 58.1437C68.9655 58.3361 68.9304 58.5456 68.8737 58.7679C69.5419 58.301 70.2871 57.9629 71.0877 57.7665C71.9917 57.5235 72.9593 57.5335 73.8703 57.7657C73.995 57.7793 74.0764 57.891 74.0631 58.0151L73.1959 61.4171Z" fill="#FFC43D"/>
</g>
<path d="M77.8273 39.669L48.5123 34.5481C44.0678 33.7718 39.8475 36.7325 39.0722 41.1709L34.1564 69.312C33.3811 73.7504 36.3477 77.9666 40.7922 78.743L70.1072 83.8638C74.5517 84.6402 78.772 81.6794 79.5473 77.2411L84.4631 49.0999C85.2384 44.6615 82.2718 40.4454 77.8273 39.669Z" stroke="#FFC43D" stroke-width="2"/>
<path d="M77.6762 34.8473L44.012 32.812C38.9081 32.5034 34.5323 36.3748 34.2242 41.4716L32.2704 73.7879C31.9622 78.8848 35.8396 83.2551 40.9436 83.5637L74.6078 85.5991C79.7117 85.9076 84.0875 82.0363 84.3956 76.9394L86.3495 44.6231C86.6576 39.5263 82.7802 35.1559 77.6762 34.8473Z" stroke="#FFC43D" stroke-width="2"/>
<path d="M77.2415 30.1674L39.5313 31.3926C33.814 31.5783 29.3414 36.3447 29.5269 42.0541L30.703 78.2544C30.8885 83.9638 35.661 88.4298 41.3783 88.244L79.0886 87.0189C84.8059 86.8331 89.2785 82.0668 89.093 76.3574L87.9169 40.1571C87.7314 34.4476 82.9589 29.9817 77.2415 30.1674Z" stroke="#FFC43D" stroke-width="2"/>
<path d="M75.6894 25.1929L34.3451 30.8877C28.0768 31.7511 23.7059 37.5102 24.5681 43.7699L30.0349 83.4587C30.8971 89.7183 36.6622 94.0812 42.9305 93.2178L84.2748 87.523C90.5431 86.6596 94.914 80.9005 94.0518 74.6409L88.585 34.9521C87.7228 28.6924 81.9577 24.3295 75.6894 25.1929Z" stroke="#FFC43D" stroke-width="2"/>
<defs>
<clipPath id="clip0_118_237">
<rect width="42.5726" height="41.2825" fill="white" transform="translate(44.1965 35) rotate(14.2996)"/>
</clipPath>
</defs>
</svg>
