<svg width="79" height="74" viewBox="0 0 79 74" fill="none" xmlns="http://www.w3.org/2000/svg">
<path d="M10.4779 47.0144L29.5707 38.2179L27.6422 59.1511L10.4779 47.0144Z" fill="white" stroke="#FFC43D" stroke-width="3"/>
<rect x="59.6413" y="20.8499" width="15.9629" height="15.9629" transform="rotate(18.4277 59.6413 20.8499)" fill="white" stroke="#FFC43D" stroke-width="3"/>
<circle cx="24.6475" cy="12.8409" r="9.50867" transform="rotate(5.61403 24.6475 12.8409)" fill="white" stroke="#FFC43D" stroke-width="3"/>
<g clip-path="url(#clip0_118_148)">
<rect x="28.6741" y="18.7676" width="30.2739" height="26.6043" transform="rotate(5.61403 28.6741 18.7676)" fill="white"/>
<path d="M38.3312 25.9464C37.6734 25.7547 36.975 25.7228 36.2785 25.8101C35.8319 25.856 35.4418 25.8962 35.1148 25.9454C34.7693 25.9654 34.5348 26.0051 34.4131 26.0332L35.0048 31.7823C35.2477 31.7729 35.4705 31.7707 35.6758 31.7496L36.5844 31.6561C37.2517 31.5874 37.9085 31.4161 38.5187 31.1458C39.0521 30.9352 39.4963 30.5627 39.8266 30.093C40.1421 29.6299 40.2512 29.0273 40.1741 28.2779C40.1351 27.7476 39.9467 27.2274 39.622 26.794C39.2942 26.3816 38.8481 26.0799 38.3312 25.9464ZM53.8407 10.3074L27.3226 13.0366C23.2981 13.4508 20.3832 17.0345 20.7974 21.0589L23.4209 46.5504C23.8345 50.5697 27.4188 53.4897 31.4432 53.0756L57.9665 50.3459C61.9858 49.9323 64.9058 46.348 64.4916 42.3236L61.8682 16.8321C61.4489 12.8082 57.8651 9.89327 53.8407 10.3074ZM43.249 31.5408C42.665 32.571 41.7791 33.3885 40.7074 33.9137C39.5861 34.4597 38.3186 34.7458 36.9172 34.89C36.5066 34.9323 36.2345 34.9603 36.0584 34.9628C35.8874 34.9649 35.6462 34.9897 35.3228 35.023L35.888 40.5155C35.9156 40.632 35.8446 40.7482 35.7229 40.7763L32.4069 41.1176C32.2683 41.1319 32.1942 41.0669 32.1783 40.9129L30.3663 23.306C30.3541 23.1879 30.3981 23.1108 30.5161 23.0986C30.8087 23.0685 31.0808 23.0405 31.4745 22.9844C31.8835 22.9268 32.3096 22.8829 32.7695 22.8148C33.2294 22.7468 33.7278 22.7006 34.2544 22.6257C34.7815 22.5559 35.2949 22.5031 35.8082 22.4502C37.2095 22.306 38.3922 22.3555 39.3891 22.616C40.2765 22.8204 41.111 23.2169 41.8279 23.7812C42.4337 24.274 42.9284 24.8974 43.276 25.6035C43.6066 26.2957 43.8156 27.016 43.8949 27.786C44.0521 29.2638 43.8334 30.5158 43.249 31.5408ZM56.0639 36.9503C55.6568 37.6821 55.0388 38.28 54.3061 38.6719C53.5064 39.1173 52.4988 39.4078 51.2617 39.5351C50.4763 39.6159 49.6994 39.6284 48.9136 39.5537C48.3025 39.5128 47.6875 39.3842 47.1118 39.184C46.9869 39.1295 46.8875 39.0204 46.8886 38.8802L46.5822 35.9029C46.5769 35.8516 46.5906 35.7828 46.6382 35.7415C46.6858 35.7003 46.7393 35.7156 46.7938 35.7411C47.5018 36.0677 48.233 36.2674 48.9999 36.3596C49.6641 36.4625 50.3609 36.4789 51.0437 36.4087C51.6956 36.3416 52.1486 36.2068 52.4407 36.0211C52.7006 35.875 52.8605 35.5629 52.8288 35.2549C52.8039 35.0136 52.6426 34.8071 52.3478 34.6144C52.0531 34.4217 51.462 34.2231 50.5915 33.9807C49.6871 33.7625 48.8441 33.4343 48.0367 32.9986C47.4689 32.6732 46.9716 32.2264 46.5833 31.6801C46.2548 31.1589 46.0549 30.5777 46.0136 29.975C45.9381 29.2409 46.071 28.5166 46.3859 27.8461C46.7417 27.1195 47.3165 26.5053 48.0203 26.0853C48.7788 25.5922 49.7711 25.3034 50.9876 25.1781C51.6909 25.1058 52.4148 25.0831 53.1235 25.114C53.6437 25.1279 54.1559 25.2152 54.6374 25.3576C54.7057 25.3661 54.785 25.4306 54.8226 25.4942C54.8449 25.5593 54.8728 25.6291 54.8797 25.6958L55.1666 28.4831C55.1734 28.5499 55.1449 28.6254 55.0967 28.6615C54.9464 28.7133 54.8592 28.7223 54.7887 28.6932C54.2474 28.474 53.6786 28.3406 53.0864 28.2822C52.4408 28.2086 51.7958 28.192 51.149 28.2585C50.8035 28.2785 50.4495 28.3668 50.1345 28.4822C49.9191 28.5563 49.7413 28.6939 49.6412 28.8806C49.5682 29.0282 49.5343 29.2028 49.5502 29.3568C49.566 29.5108 49.6486 29.658 49.7707 29.7855C49.9442 29.9595 50.1654 30.0924 50.3983 30.1877C50.8095 30.3529 51.2448 30.5001 51.6678 30.6277C52.6235 30.8406 53.5605 31.1748 54.4346 31.6036C55.0363 31.9048 55.5474 32.3346 55.931 32.8865C56.2591 33.4026 56.4595 33.989 56.5075 34.6065C56.6001 35.4062 56.4418 36.237 56.0639 36.9503Z" fill="#FFC43D"/>
</g>
<defs>
<clipPath id="clip0_118_148">
<rect width="41.2825" height="41.2825" fill="white" transform="translate(19.9961 13.272) rotate(-5.87594)"/>
</clipPath>
</defs>
</svg>
