<svg width="119" height="103" viewBox="0 0 119 103" fill="none" xmlns="http://www.w3.org/2000/svg">
<mask id="path-1-inside-1_118_286" fill="white">
<path d="M46.5188 65.3179L48.7023 74.6224C48.8677 75.3274 49.3642 76.7625 51.368 76.2923L94.2036 66.2399L85.4792 29.0635L81.6302 29.9667"/>
</mask>
<path d="M46.5188 65.3179L48.7023 74.6224C48.8677 75.3274 49.3642 76.7625 51.368 76.2923L94.2036 66.2399L85.4792 29.0635L81.6302 29.9667" fill="white"/>
<path d="M94.2036 66.2399L94.6605 68.187L96.6076 67.7301L96.1507 65.783L94.2036 66.2399ZM85.4792 29.0635L87.4263 28.6065L86.9694 26.6594L85.0223 27.1164L85.4792 29.0635ZM44.5717 65.7748L46.7552 75.0794L50.6494 74.1655L48.4659 64.8609L44.5717 65.7748ZM46.7552 75.0794C46.8566 75.5113 47.1256 76.521 47.9445 77.3251C48.9074 78.2705 50.2698 78.6043 51.825 78.2394L50.9111 74.3451C50.6472 74.4071 50.5632 74.3762 50.5962 74.3841C50.6114 74.3878 50.6396 74.3971 50.673 74.4161C50.7057 74.4346 50.7307 74.455 50.747 74.471C50.7754 74.4988 50.763 74.4986 50.7329 74.431C50.7031 74.3644 50.6755 74.2768 50.6494 74.1655L46.7552 75.0794ZM51.825 78.2394L94.6605 68.187L93.7466 64.2928L50.9111 74.3451L51.825 78.2394ZM96.1507 65.783L87.4263 28.6065L83.5321 29.5204L92.2565 66.6968L96.1507 65.783ZM85.0223 27.1164L81.1733 28.0196L82.0871 31.9138L85.9362 31.0106L85.0223 27.1164Z" fill="#FFC43D" mask="url(#path-1-inside-1_118_286)"/>
<path d="M44.6859 72.8463L36.4549 37.7721L41.6799 32.7222L49.889 67.7031L44.6859 72.8463Z" fill="white" stroke="#FFC43D" stroke-width="2" stroke-miterlimit="10"/>
<rect x="47" y="32.2451" width="30" height="30" transform="rotate(-10.069 47 32.2451)" fill="white"/>
<path d="M77.5986 22.4842L42.1348 30.8066L50.8383 67.8947L88.4446 59.0696L80.2485 24.1442C79.9138 22.7177 78.8749 22.1847 77.5986 22.4842ZM78.4557 52.869L73.4616 54.041L70.3517 40.7887L70.0283 54.8467L65.2876 55.9592L58.4446 43.1946L61.641 56.815L57.234 57.8492L52.3962 37.2345L58.8691 35.7155L66.7297 51.0786L67.2965 33.7378L73.618 32.2543L78.4557 52.869Z" fill="#FFC43D"/>
<path d="M58.542 22.6473L39.7652 27.1057C34.0716 28.4576 30.5433 34.0751 31.873 39.6712L40.3039 75.1525C41.6336 80.7486 47.3121 84.18 53.0057 82.8281L90.5594 73.9113C96.253 72.5593 99.7813 66.9418 98.4516 61.3458L94.2361 43.6051L90.0206 25.8645C86.7143 11.9496 67.2939 20.5692 58.542 22.6473Z" stroke="#FFC43D" stroke-width="2" stroke-dasharray="4 4"/>
<rect width="5.59827" height="5.57561" transform="matrix(0.996789 -0.080072 0.109855 0.993948 29.6118 29.1357)" fill="#FFC43D"/>
<rect width="5.61914" height="5.55457" transform="matrix(0.999963 0.00863008 0.019263 0.999815 95.1523 66.5947)" fill="#FFC43D"/>
<path d="M12.758 60.4084C12.8549 59.4811 32.7554 32.0405 42.6935 18.4361" stroke="#FFC43D"/>
<path d="M85.2624 82.8244C85.4246 82.2231 100.977 66.4726 108.733 58.6725" stroke="#FFC43D"/>
<path d="M15.033 63.363L9.37158 60.1694L14.0553 57.9724L15.033 63.363Z" fill="#FFC43D"/>
<path d="M86.3413 86.7477L81.5444 82.3613L86.6007 81.2775L86.3413 86.7477Z" fill="#FFC43D"/>
<path d="M108.626 53.709L113.445 58.0703L108.267 59.3212L108.626 53.709Z" fill="#FFC43D"/>
<path d="M41.4141 13.7061L46.9014 17.1904L41.9138 19.4486L41.4141 13.7061Z" fill="#FFC43D"/>
</svg>
