<svg width="87" height="87" viewBox="0 0 87 87" fill="none" xmlns="http://www.w3.org/2000/svg">
<path d="M79.8068 50.2385C79.5698 51.4921 77.0019 52.1637 76.6453 53.3599C76.2887 54.5561 78.0565 56.5533 77.5774 57.7079C77.089 58.8792 74.4393 59.0028 73.8403 60.1019C73.2412 61.2011 74.5569 63.5204 73.8445 64.551C73.1321 65.5816 70.5094 65.1532 69.6934 66.1069C68.8773 67.0605 69.6873 69.5976 68.7742 70.4612C67.8611 71.3248 65.3919 70.3541 64.3918 71.1173C63.3933 71.8829 63.6687 74.5318 62.595 75.1889C61.5213 75.8461 59.3108 74.3795 58.1755 74.9205C57.0402 75.4616 56.7674 78.1113 55.5795 78.5318C54.3916 78.9523 52.5399 77.0538 51.3131 77.3461C50.0862 77.6384 49.277 80.1724 48.0258 80.3352C46.7745 80.4979 45.3657 78.2511 44.1033 78.2786C42.841 78.3062 41.5301 80.6162 40.2685 80.5108C39.0068 80.4053 38.1046 77.9144 36.8574 77.6785C35.6103 77.4427 33.8376 79.4258 32.6478 79.0698C31.458 78.7137 31.0409 76.0707 29.8927 75.5915C28.7445 75.1122 26.583 76.6737 25.4902 76.0738C24.3974 75.474 24.5476 72.8051 23.5213 72.0909C22.4879 71.3712 20.0637 72.457 19.1165 71.6368C18.1693 70.8167 18.8761 68.2429 18.0183 67.327C17.1589 66.4088 14.564 66.9646 13.806 65.9632C13.0479 64.9617 14.2718 62.5943 13.6199 61.5166C12.9679 60.439 10.3179 60.4458 9.77963 59.3056C9.24136 58.1655 10.9301 56.1092 10.5139 54.9164C10.0976 53.7235 7.5064 53.1824 7.21743 51.9522C6.92846 50.722 9.00552 49.0688 8.84589 47.8118C8.68626 46.5549 6.26597 45.4869 6.24094 44.2186C6.21591 42.9502 8.58896 41.779 8.69628 40.5111C8.80359 39.2432 6.65569 37.7045 6.89274 36.4509C7.12979 35.1973 9.69768 34.5257 10.0543 33.3295C10.4109 32.1334 8.64306 30.1361 9.12218 28.9815C9.60131 27.8269 12.2603 27.6867 12.8593 26.5875C13.4583 25.4884 12.1426 23.1691 12.855 22.1385C13.5674 21.1079 16.1902 21.5362 17.0062 20.5825C17.8222 19.6289 17.0122 17.0919 17.9253 16.2282C18.8384 15.3646 21.3077 16.3353 22.3077 15.5721C23.3078 14.8089 23.0308 12.1576 24.1045 11.5005C25.1783 10.8434 27.3887 12.3099 28.524 11.7689C29.6593 11.2279 29.9322 8.57814 31.1201 8.15765C32.308 7.73716 34.1597 9.63559 35.3865 9.34328C36.6133 9.05098 37.4225 6.51703 38.6738 6.35427C39.925 6.19151 41.3339 8.43833 42.5962 8.41079C43.8585 8.38325 45.1694 6.07319 46.4311 6.17863C47.6927 6.28408 48.5949 8.77507 49.8421 9.01091C51.0893 9.24674 52.862 7.26361 54.0518 7.61967C55.2416 7.97572 55.6587 10.6187 56.8068 11.0979C57.955 11.5772 60.1166 10.0158 61.2094 10.6156C62.3021 11.2155 62.152 13.8843 63.1783 14.5986C64.2046 15.3128 66.6358 14.2325 67.583 15.0526C68.5302 15.8727 67.8235 18.4465 68.6813 19.3624C69.539 20.2783 72.1355 19.7248 72.8936 20.7262C73.6517 21.7277 72.4277 24.0952 73.0797 25.1728C73.7316 26.2505 76.3816 26.2437 76.9199 27.3838C77.4582 28.5239 75.7694 30.5802 76.1857 31.7731C76.6019 32.9659 79.1931 33.5071 79.4821 34.7373C79.7711 35.9675 77.694 37.6207 77.8537 38.8776C78.0133 40.1345 80.4336 41.2025 80.4586 42.4708C80.4836 43.7392 78.1106 44.9104 78.0033 46.1783C77.896 47.4462 80.0439 48.9849 79.8068 50.2385Z" fill="white" stroke="#FFC43D" stroke-width="3" stroke-miterlimit="10"/>
<path d="M32.47 34.1829L46.4087 29.3038L57.6035 38.9355L54.8595 53.4462L40.9209 58.3254L29.7261 48.6937L32.47 34.1829Z" fill="white" stroke="#FFC43D" stroke-width="3"/>
<path d="M33.0767 35.0049L43.709 44.277M43.709 44.277L56.7384 39.4792M43.709 44.277L41.0576 58.2988" stroke="#FFC43D" stroke-width="3"/>
<g clip-path="url(#clip0_118_155)">
<g opacity="0.99">
<path d="M21.7053 49.7752C21.5895 50.2199 21.3832 50.5876 21.0867 50.8764C20.7902 51.1653 20.421 51.3567 19.9813 51.449L19.6313 49.7459C19.8769 49.6947 20.0576 49.5673 20.1772 49.3647C20.2949 49.1616 20.3234 48.9058 20.259 48.5966C20.2169 48.3893 20.1419 48.2196 20.0334 48.0914C19.9248 47.9632 19.7948 47.8748 19.645 47.8285C19.4936 47.78 19.3342 47.7737 19.1648 47.8095C18.9067 47.8644 18.7119 47.993 18.5766 48.1947C18.4409 48.3983 18.4059 48.6569 18.4712 48.9723C18.508 49.1547 18.5695 49.3119 18.656 49.4419C18.7405 49.5715 18.8393 49.6779 18.9467 49.76L17.8088 50.8188L16.2486 49.1521L16.1156 49.2685L16.6438 51.8426L15.1371 52.1578L14.1488 47.3515L15.6475 47.0367L17.1642 48.6713C17.1339 48.3386 17.1486 48.0304 17.2063 47.7462C17.294 47.3142 17.4748 46.9556 17.7468 46.6701C18.0185 46.3865 18.3751 46.1988 18.8148 46.1065L18.9285 46.0821C19.3617 45.9926 19.767 46.0194 20.1475 46.1671C20.5298 46.3151 20.8566 46.5683 21.1294 46.9289C21.4041 47.2899 21.5979 47.7432 21.71 48.2928C21.8214 48.8362 21.8192 49.3302 21.7053 49.7752Z" fill="#FFC43D"/>
<path d="M21.0484 43.5522L21.063 43.3596L21.13 42.471C21.1767 41.8359 21.1209 41.2711 20.9627 40.7766C20.8041 40.2841 20.572 39.8654 20.2669 39.5186C19.9614 39.1737 19.6077 38.9055 19.2077 38.7142C18.8078 38.5229 18.3948 38.411 17.9665 38.3798L17.7555 38.3638C17.2882 38.3293 16.8408 38.3783 16.4137 38.5089C15.985 38.6371 15.6015 38.8517 15.2616 39.1503C14.9197 39.4485 14.6432 39.8309 14.4286 40.2947C14.2137 40.7605 14.0817 41.3117 14.0346 41.9488L13.968 42.8354L13.9534 43.028L13.8332 44.6282L20.9282 45.1524L21.0484 43.5522ZM15.6356 42.9593L15.709 41.9943C15.7303 41.6932 15.7912 41.4236 15.8891 41.1889C15.987 40.9542 16.1212 40.7583 16.2894 40.6027C16.4595 40.4475 16.6636 40.3325 16.9033 40.2602C17.1429 40.1879 17.4174 40.1621 17.7245 40.1842C18.0177 40.2058 18.279 40.2711 18.5046 40.3776C18.7319 40.4864 18.9212 40.6279 19.0715 40.8078C19.2219 40.9878 19.3305 41.1997 19.3985 41.4478C19.467 41.694 19.4902 41.9696 19.4667 42.2722L19.3955 43.2356L15.6356 42.9593Z" fill="#FFC43D"/>
<path d="M24.3199 31.9751L25.1583 30.3194L17.8455 29.2177L16.5464 31.7892L21.781 36.9938L22.5936 35.3909L21.37 34.2086L22.6406 31.6935L24.3199 31.9751ZM20.2691 33.1431L18.3934 31.331L18.5574 31.0091L21.1304 31.4398L20.2691 33.1431Z" fill="#FFC43D"/>
<path d="M24.2649 25.7563C24.0936 25.9392 24.0118 26.1411 24.0242 26.3588C24.0342 26.578 24.1316 26.7758 24.3182 26.9527L26.5494 29.0653L25.3475 30.3473L21.4874 26.6905L22.4385 25.6761L23.449 26.6328C23.3437 26.4873 23.2598 26.3438 23.1931 26.2036C23.0259 25.851 22.9734 25.5101 23.0334 25.1825C23.0952 24.8553 23.2627 24.546 23.5359 24.2547L23.5881 24.1988C24.0008 23.7565 24.4674 23.5536 24.9862 23.5879C25.5031 23.6219 26.0627 23.9231 26.6646 24.4935L28.8738 26.586L27.6719 27.868L25.4276 25.7409C25.251 25.5739 25.0549 25.489 24.8413 25.4865C24.6296 25.4844 24.4363 25.5734 24.2649 25.7563Z" fill="#FFC43D"/>
<path d="M27.3315 19.6553C27.1832 19.4438 27.0032 19.316 26.7884 19.2674C26.5735 19.2188 26.3346 19.2873 26.0734 19.4732C25.8169 19.6559 25.6736 19.8581 25.6436 20.0797C25.6155 20.3017 25.6737 20.5181 25.8224 20.7276C25.9707 20.9391 26.1526 21.0672 26.3701 21.1123C26.5872 21.1593 26.8265 21.089 27.0896 20.9034C27.3462 20.7207 27.4872 20.5201 27.513 20.2997C27.5404 20.0815 27.4802 19.8648 27.3315 19.6553Z" fill="#FFC43D"/>
<path d="M31.2318 25.0083L29.8027 26.024L27.475 22.7129L26.9254 23.1034L26.1927 22.0617L26.7426 21.6693L28.1736 20.6539L28.9045 21.6952L31.2318 25.0083Z" fill="#FFC43D"/>
<path d="M31.6414 20.127C31.6844 20.3923 31.7627 20.6802 31.878 20.9931L31.9485 20.9666L31.6414 20.127Z" fill="#FFC43D"/>
<path d="M35.3458 18.9972C35.2717 19.2005 35.2814 19.4217 35.3685 19.6635L36.4208 22.538L34.7789 23.1487L33.72 20.2569C33.6364 20.0278 33.5041 19.8572 33.3243 19.7494C33.1444 19.6416 32.9407 19.629 32.7103 19.7151C32.4822 19.7995 32.3322 19.9426 32.2581 20.1459C32.1863 20.3477 32.1937 20.5704 32.2827 20.8125L33.3353 23.6852L31.6915 24.2954L29.8603 19.2918L31.1592 18.8077L31.6412 20.127C31.6842 20.3923 31.7626 20.6803 31.8779 20.9931L31.9483 20.9666L31.6412 20.127C31.6113 19.9498 31.5971 19.7837 31.5987 19.6285C31.6027 19.2404 31.6985 18.9117 31.8898 18.6448C32.0787 18.3794 32.3569 18.1768 32.7236 18.0408L32.7959 18.0146C33.1691 17.8759 33.5119 17.845 33.8256 17.9262C34.1378 18.0052 34.4219 18.1905 34.6757 18.4837C34.6796 18.4845 34.6804 18.4906 34.6835 18.4952C34.6842 18.4913 34.6834 18.4852 34.6841 18.4813C34.6885 18.0914 34.7863 17.763 34.9752 17.4976C35.1645 17.2304 35.4442 17.0301 35.8109 16.8941L35.8836 16.8659C36.2549 16.7268 36.6016 16.6967 36.9198 16.7748C37.2385 16.851 37.5287 17.0355 37.789 17.3259C38.0489 17.6183 38.2755 18.024 38.4649 18.5423L39.5085 21.3893L37.8647 21.9996L36.8058 19.1078C36.7222 18.8787 36.5896 18.7101 36.4097 18.6023C36.2302 18.4926 36.0261 18.4819 35.798 18.5664C35.5696 18.6528 35.4177 18.7955 35.3458 18.9972Z" fill="#FFC43D"/>
<path d="M44.4861 18.1717C44.465 17.6752 44.3489 17.2725 44.1346 16.9588C43.9184 16.6448 43.619 16.4147 43.2302 16.2694C42.8429 16.1264 42.3769 16.0642 41.8334 16.087C41.6413 16.0965 41.4308 16.1086 41.204 16.1235C40.9768 16.1404 40.7573 16.1587 40.5469 16.1807C40.3366 16.2027 40.1545 16.2221 39.9999 16.2427L40.0596 17.7095C40.2757 17.6885 40.5158 17.6661 40.7781 17.642C41.0404 17.6178 41.2901 17.5972 41.5272 17.5803C41.7621 17.5649 41.9427 17.5532 42.0645 17.5483C42.3205 17.5369 42.5067 17.59 42.6239 17.7039C42.7377 17.8151 42.8004 17.9865 42.8133 18.2222L41.9757 18.2592C41.4963 18.2782 41.0718 18.3534 40.7058 18.4856C40.3379 18.6174 40.0555 18.8112 39.8523 19.0679C39.651 19.3249 39.559 19.6544 39.575 20.0522C39.589 20.4077 39.6809 20.7082 39.8563 20.9547C40.0294 21.2028 40.262 21.3883 40.5558 21.5117C40.8497 21.635 41.1826 21.688 41.5543 21.6725C41.9259 21.6571 42.2347 21.5759 42.4824 21.4294C42.7298 21.2848 42.9209 21.0816 43.0556 20.82C43.1096 20.7126 43.1551 20.5976 43.1906 20.4727L43.229 21.4649L44.6136 21.4077L44.4861 18.1717ZM42.7509 20.0726C42.6788 20.2124 42.585 20.3103 42.4686 20.3701C42.3523 20.4298 42.2169 20.464 42.0649 20.4712C41.8273 20.4801 41.6427 20.4292 41.5098 20.3144C41.3765 20.2014 41.3067 20.0467 41.2995 19.8539C41.2915 19.655 41.348 19.4923 41.4726 19.3683C41.5952 19.2439 41.7746 19.1762 42.0122 19.1673L42.8498 19.1303L42.8636 19.5077C42.8602 19.7463 42.8226 19.9346 42.7509 20.0726Z" fill="#FFC43D"/>
<path d="M48.5945 22.1627L47.8838 22.0423C47.3151 21.9467 46.8727 21.8013 46.5568 21.606C46.2431 21.4091 46.0369 21.1368 45.9388 20.7853C45.8423 20.4361 45.8404 19.9852 45.933 19.4325L46.2487 17.5742L45.4859 17.4459L45.6961 16.1877L46.4608 16.3163L46.6947 14.943L48.2879 15.2084L48.054 16.5817L49.4895 16.8213L49.2775 18.0791L47.8419 17.8396L47.5171 19.746C47.4784 19.9819 47.51 20.1713 47.6115 20.3161C47.7149 20.4612 47.882 20.5526 48.1166 20.591L48.8368 20.7133L48.5945 22.1627Z" fill="#FFC43D"/>
<path d="M53.1896 15.9557C53.1014 15.7516 52.9062 15.599 52.6022 15.4977C52.304 15.3974 52.0595 15.401 51.8645 15.5097C51.6679 15.6161 51.5294 15.7933 51.4476 16.037C51.3658 16.2807 51.371 16.505 51.4612 16.7094C51.5514 16.9139 51.7485 17.0668 52.0524 17.1682C52.3503 17.2703 52.5952 17.2648 52.7863 17.1554C52.9791 17.0483 53.1157 16.8708 53.1975 16.6271C53.2796 16.3814 53.2764 16.1575 53.1896 15.9557Z" fill="#FFC43D"/>
<path d="M52.8932 17.9014L51.1969 22.9617L49.5382 22.4029L50.8294 18.5519L50.19 18.3373L50.5951 17.1279L51.2345 17.3425L52.8932 17.9014Z" fill="#FFC43D"/>
<path d="M54.2814 24.6912C53.8784 24.4535 53.5533 24.1807 53.3101 23.8735C53.0668 23.5663 52.8987 23.2394 52.8056 22.8929C52.7141 22.5486 52.6929 22.1997 52.7453 21.8487C52.7978 21.4978 52.9169 21.1614 53.1049 20.8381L53.2223 20.637C53.4163 20.3028 53.6571 20.0254 53.9443 19.8066C54.2315 19.5877 54.5499 19.4346 54.8975 19.3468C55.2452 19.259 55.6123 19.2467 55.9988 19.3098C56.3853 19.373 56.7722 19.5179 57.1595 19.7446C57.5522 19.9744 57.8681 20.2435 58.1094 20.5503C58.3507 20.8571 58.5189 21.184 58.6139 21.5309C58.7088 21.8778 58.7313 22.231 58.6812 22.5903C58.631 22.9497 58.5101 23.2957 58.3142 23.6295L58.1968 23.8306C58.0088 24.1539 57.7756 24.4228 57.4964 24.6412C57.2172 24.8595 56.905 25.0118 56.5611 25.1003C56.2154 25.1885 55.8499 25.2031 55.4633 25.14C55.0768 25.0768 54.681 24.9262 54.2776 24.6905L54.2814 24.6912ZM55.0211 23.4215C55.2532 23.5571 55.475 23.6209 55.6854 23.6089C55.8955 23.5988 56.092 23.5243 56.276 23.3896C56.4582 23.2546 56.6173 23.0733 56.7497 22.8452C56.89 22.6065 56.9718 22.3728 56.9972 22.1443C57.0226 21.9158 56.9892 21.7042 56.8957 21.5071C56.8021 21.3099 56.6447 21.1466 56.4234 21.017C56.202 20.8874 55.9829 20.83 55.766 20.8449C55.5491 20.8597 55.3488 20.9334 55.1629 21.0677C54.9769 21.202 54.8147 21.3887 54.6744 21.6273C54.5421 21.8555 54.4613 22.0835 54.4325 22.3093C54.4037 22.5351 54.4393 22.7452 54.5362 22.935C54.6328 23.1267 54.7944 23.2889 55.0211 23.4215Z" fill="#FFC43D"/>
<path d="M62.9652 27.8527L60.794 29.9942L59.5685 28.7377L61.7758 26.5632C61.9488 26.3925 62.0429 26.199 62.0535 25.9857C62.0664 25.7708 61.9847 25.5739 61.8083 25.395C61.6339 25.2165 61.4367 25.1274 61.2201 25.1303C61.0015 25.1328 60.8018 25.2246 60.6189 25.4054L58.4261 27.5666L57.2026 26.3105L60.9961 22.5718L61.9642 23.5643L60.9723 24.5431C61.1204 24.4415 61.2663 24.3614 61.4087 24.3006C61.7668 24.147 62.1073 24.1078 62.4305 24.1808C62.7536 24.2539 63.0549 24.4325 63.3319 24.7181L63.3871 24.7724C63.8069 25.2047 63.9902 25.682 63.9359 26.2001C63.8792 26.7197 63.557 27.2708 62.9652 27.8527Z" fill="#FFC43D"/>
</g>
<g opacity="0.99">
<path d="M70.6985 40.4022L69.1815 38.7695C69.2098 39.1019 69.1951 39.4101 69.1374 39.6943C69.0498 40.1263 68.8709 40.4852 68.5992 40.7688C68.3252 41.054 67.9705 41.2421 67.5308 41.3344L67.4175 41.3568C66.9839 41.4483 66.5767 41.4211 66.1963 41.2734C65.8158 41.1257 65.489 40.8725 65.2143 40.5116C64.9416 40.1509 64.7478 39.6976 64.6356 39.1481C64.5239 38.6066 64.5242 38.1122 64.64 37.6675C64.7543 37.2206 64.9602 36.8548 65.257 36.564C65.5554 36.2755 65.9228 36.0838 66.3625 35.9915L66.7144 37.6949C66.4688 37.7462 66.2862 37.8731 66.1685 38.0762C66.0489 38.2789 66.0222 38.535 66.0848 38.8439C66.1287 39.0516 66.2037 39.2213 66.3123 39.3495C66.4209 39.4777 66.5489 39.5657 66.7007 39.6123C66.8502 39.6605 67.0115 39.6671 67.1808 39.6313C67.4371 39.5761 67.6338 39.4478 67.7691 39.2461C67.9047 39.0425 67.9397 38.7839 67.8745 38.4686C67.8376 38.2861 67.7761 38.129 67.6897 37.999C67.6033 37.869 67.5064 37.7629 67.3971 37.6805L68.535 36.6216L70.097 38.2887L70.2301 38.1723L69.6999 35.5978L71.207 35.2807L72.1969 40.0894L70.6985 40.4022Z" fill="#FFC43D"/>
<path d="M72.3122 45.4966L72.3788 44.61L72.3934 44.4174L72.5136 42.8172L65.4167 42.2926L65.298 43.8951L65.2834 44.0877L65.2169 44.9743C65.1678 45.611 65.2236 46.1758 65.3841 46.6687C65.5428 47.1613 65.7745 47.5819 66.0799 47.9268C66.3854 48.2716 66.7372 48.5395 67.1368 48.7327C67.5371 48.9221 67.952 49.0344 68.3803 49.0655L68.5913 49.0815C69.0586 49.116 69.5056 49.069 69.9327 48.9384C70.3599 48.8078 70.7453 48.5936 71.0849 48.297C71.4248 47.9984 71.7032 47.6164 71.9182 47.1506C72.1331 46.6849 72.2651 46.1336 72.3122 45.4966ZM70.4577 46.2564C70.3595 46.493 70.2256 46.687 70.0555 46.8423C69.887 46.9998 69.6813 47.1125 69.4413 47.1867C69.2016 47.259 68.9294 47.2833 68.6224 47.2611C68.3272 47.2392 68.0679 47.1742 67.8403 47.0674C67.6146 46.9609 67.4256 46.8175 67.2753 46.6376C67.1246 46.4595 67.0163 46.2457 66.9479 45.9995C66.8799 45.7513 66.8566 45.4758 66.8779 45.1748L66.9513 44.2097L70.7089 44.4876L70.6378 45.4511C70.6143 45.7537 70.5556 46.0217 70.4577 46.2564Z" fill="#FFC43D"/>
<path d="M64.5637 50.4512L63.7527 52.0564L64.9763 53.2387L63.7042 55.7516L62.0268 55.4703L61.1883 57.126L68.4993 58.2274L69.7999 55.6581L64.5637 50.4512ZM67.7893 56.4363L65.2163 56.0056L66.0757 54.3019L67.9517 56.1121L67.7893 56.4363Z" fill="#FFC43D"/>
<path d="M63.9066 61.7687L62.8945 60.8098C62.9998 60.9553 63.0875 61.0995 63.1538 61.2416C63.3211 61.5942 63.3736 61.9351 63.3117 62.2623C63.2513 62.5919 63.0838 62.9011 62.8107 63.1924L62.7585 63.2483C62.3442 63.6883 61.8792 63.8935 61.3604 63.8592C60.8419 63.8229 60.2823 63.5217 59.6824 62.9517L57.4732 60.8592L58.6751 59.5773L60.9194 61.7043C61.096 61.8713 61.2901 61.9558 61.5034 61.9603C61.717 61.9628 61.9106 61.8718 62.082 61.6889C62.2534 61.506 62.3329 61.3057 62.3228 61.0864C62.3127 60.8672 62.213 60.6709 62.0264 60.4941L59.7975 58.3799L60.9991 57.0999L64.8573 60.7562L63.9066 61.7687Z" fill="#FFC43D"/>
<path d="M60.5244 66.7179C60.3757 66.5084 60.1938 66.3803 59.9767 66.3333C59.7596 66.2862 59.5184 66.3562 59.2572 66.5421C59.0006 66.7249 58.8596 66.9255 58.8319 67.1456C58.8061 67.366 58.8666 67.5808 59.0153 67.7903C59.1617 68.0014 59.3433 68.1315 59.5581 68.1801C59.7729 68.2287 60.0122 68.1583 60.2733 67.9724C60.5299 67.7896 60.6732 67.5874 60.7013 67.3655C60.7313 67.1439 60.6709 66.9291 60.5244 66.7179Z" fill="#FFC43D"/>
<path d="M60.1519 65.3854L59.6023 65.7759L58.1728 66.7936L57.4401 65.7519L55.1128 62.4388L56.5441 61.4215L58.8714 64.7346L59.421 64.3441L60.1519 65.3854Z" fill="#FFC43D"/>
<path d="M55.1857 68.6369L54.7072 67.3303C54.7363 67.5013 54.7493 67.6632 54.7481 67.8165C54.7437 68.2065 54.6463 68.533 54.457 68.8002C54.2677 69.0675 53.9899 69.2681 53.6213 69.4038L53.5489 69.43C53.1777 69.5691 52.8329 69.5996 52.5208 69.5207C52.2086 69.4417 51.9248 69.2545 51.671 68.9612C51.6679 68.9567 51.6629 68.9517 51.6598 68.9472C51.6587 68.9529 51.6576 68.9587 51.6604 68.9652C51.6564 69.3532 51.5605 69.682 51.3693 69.9489C51.1804 70.2142 50.9025 70.4149 50.5355 70.5528L50.4631 70.579C50.09 70.7178 49.7452 70.7483 49.4247 70.6718C49.1064 70.5936 48.8181 70.4095 48.5559 70.1187C48.2956 69.8282 48.0709 69.4229 47.8799 68.9023L46.8383 66.0556L48.4802 65.445L49.5391 68.3368C49.6245 68.5663 49.7553 68.7346 49.9348 68.8443C50.1146 68.952 50.3207 68.9631 50.5488 68.8786C50.7768 68.7941 50.9272 68.6491 51.0009 68.4477C51.0728 68.246 51.0653 68.0233 50.9763 67.7812L49.9256 64.9089L51.5679 64.2963L52.6268 67.1881C52.71 67.4192 52.8426 67.5878 53.0225 67.6956C53.2023 67.8033 53.4061 67.816 53.6342 67.7315C53.8627 67.6451 54.0145 67.5024 54.0864 67.3006C54.1605 67.0973 54.1527 66.8765 54.0637 66.6344L53.0114 63.7598L54.6533 63.1492L56.4864 68.1532L55.1857 68.6369Z" fill="#FFC43D"/>
<path d="M46.2872 69.7355C46.0692 69.7561 45.8306 69.7808 45.5683 69.805C45.3064 69.8272 45.0567 69.8478 44.8196 69.8648C44.5825 69.8817 44.4041 69.8919 44.2823 69.8967C44.0264 69.9082 43.8402 69.855 43.7229 69.7411C43.6091 69.6299 43.5464 69.4585 43.5335 69.2228L44.3688 69.1874C44.8505 69.1668 45.2731 69.0912 45.641 68.9594C46.007 68.8272 46.2914 68.6338 46.4926 68.3768C46.6938 68.1198 46.7874 67.7925 46.7718 67.3928C46.7574 67.0392 46.6637 66.7384 46.4905 66.4903C46.3174 66.2422 46.0826 66.0583 45.7906 65.9353C45.4968 65.8119 45.1642 65.757 44.7925 65.7725C44.4209 65.7879 44.1121 65.8691 43.8644 66.0156C43.6166 66.1622 43.4256 66.3653 43.2912 66.625C43.2353 66.7321 43.1898 66.8471 43.1562 66.9723L43.1159 65.9798L41.7332 66.0373L41.8607 69.2733C41.8799 69.7694 41.9976 70.1745 42.2122 70.4862C42.4264 70.7999 42.7278 71.0303 43.1147 71.1752C43.5016 71.3202 43.968 71.3805 44.5134 71.358C44.7052 71.3504 44.9156 71.3383 45.1428 71.3215C45.3696 71.3066 45.5876 71.286 45.7999 71.2643C46.0102 71.2423 46.1923 71.2229 46.3446 71.2038L46.2872 69.7355ZM43.497 68.3147L43.4832 67.9373C43.4867 67.6987 43.5223 67.5101 43.594 67.3721C43.6657 67.2341 43.7599 67.1343 43.8763 67.0746C43.9926 67.0148 44.1276 66.9825 44.2815 66.9758C44.5195 66.9649 44.7038 67.0177 44.837 67.1306C44.9703 67.2436 45.0402 67.3983 45.0473 67.5911C45.0553 67.79 44.9968 67.9524 44.8742 68.0767C44.7516 68.2011 44.5703 68.2685 44.3324 68.2793L43.497 68.3147Z" fill="#FFC43D"/>
<path d="M39.8857 71.1313L39.6517 72.5046L38.0589 72.2373L38.2928 70.864L36.8572 70.6244L37.0674 69.3662L38.5049 69.6061L38.8297 67.6997C38.8684 67.4638 38.8368 67.2744 38.7334 67.1293C38.6319 66.9845 38.4629 66.8927 38.2302 66.8547L37.5096 66.7343L37.7519 65.2849L38.463 65.4034C39.0317 65.499 39.4741 65.6444 39.7877 65.8413C40.1037 66.0366 40.3095 66.3108 40.406 66.66C40.5045 67.0096 40.5064 67.4605 40.4138 68.0132L40.0981 69.8715L40.8609 69.9998L40.6503 71.2599L39.8857 71.1313Z" fill="#FFC43D"/>
<path d="M34.8856 70.7359C34.7954 70.5315 34.5964 70.3782 34.2924 70.2769C33.9961 70.177 33.7516 70.1806 33.5585 70.2896C33.3673 70.399 33.231 70.5746 33.1489 70.8202C33.0671 71.064 33.0685 71.2875 33.1571 71.4897C33.2435 71.6934 33.4386 71.846 33.7426 71.9473C34.0408 72.0476 34.2873 72.0443 34.4819 71.9376C34.6769 71.8289 34.8151 71.6537 34.8972 71.408C34.979 71.1643 34.9758 70.9404 34.8856 70.7359Z" fill="#FFC43D"/>
<path d="M36.155 69.1078L35.7495 70.319L35.1124 70.1029L33.4537 69.544L33.8589 68.3346L35.1497 64.4856L36.8084 65.0445L35.5175 68.8935L36.155 69.1078Z" fill="#FFC43D"/>
<path d="M32.0653 62.7537C32.4684 62.9914 32.7935 63.2643 33.0367 63.5714C33.28 63.8786 33.4481 64.2055 33.5412 64.552C33.6323 64.8982 33.6539 65.2453 33.6014 65.5962C33.549 65.9471 33.4298 66.2835 33.2418 66.6068L33.1245 66.8079C32.9305 67.1421 32.6897 67.4195 32.4006 67.638C32.1134 67.8568 31.7946 68.0119 31.4473 68.0977C31.0997 68.1855 30.7326 68.1978 30.3461 68.1347C29.9595 68.0716 29.5726 67.9267 29.1853 67.6999C28.793 67.4682 28.4768 67.2011 28.2355 66.8943C27.9941 66.5874 27.826 66.2606 27.731 65.9136C27.636 65.5667 27.6136 65.2136 27.6637 64.8542C27.7138 64.4948 27.8348 64.1489 28.0307 63.8151L28.148 63.614C28.336 63.2906 28.5693 63.0217 28.8484 62.8034C29.1273 62.5869 29.4399 62.4327 29.7837 62.3442C30.1295 62.2561 30.4947 62.2434 30.8815 62.3046C31.2681 62.3677 31.6638 62.5183 32.0673 62.7541L32.0653 62.7537ZM31.3257 64.0234C31.0936 63.8879 30.8718 63.824 30.6617 63.8341C30.4516 63.8442 30.2552 63.9187 30.0711 64.0534C29.889 64.1884 29.7298 64.3696 29.5975 64.5978C29.4572 64.8365 29.3753 65.0702 29.35 65.2987C29.3246 65.5271 29.3579 65.7388 29.4515 65.9359C29.545 66.1331 29.7025 66.2964 29.9238 66.426C30.1451 66.5556 30.3642 66.6129 30.5811 66.5981C30.798 66.5833 30.9983 66.5095 31.1843 66.3752C31.3703 66.2409 31.5324 66.0543 31.6727 65.8156C31.8051 65.5875 31.8858 65.3595 31.9147 65.1337C31.9435 64.9079 31.9079 64.6978 31.8109 64.508C31.7144 64.3163 31.5527 64.1541 31.3261 64.0215L31.3257 64.0234Z" fill="#FFC43D"/>
<path d="M29.1443 61.1347L25.3504 64.8753L24.3823 63.8828L26.0122 62.277L26.065 62.3328C25.6705 62.7208 25.296 62.9929 24.9378 63.1464C24.5797 63.3 24.2408 63.3416 23.9161 63.2662C23.5929 63.1932 23.292 63.0127 23.0146 62.7289L22.9617 62.6731C22.54 62.2404 22.3582 61.7655 22.4129 61.2455C22.4695 60.7258 22.7918 60.1747 23.3836 59.5928L25.5548 57.4514L26.7787 58.7056L24.5715 60.8801C24.3981 61.0526 24.3044 61.2442 24.2934 61.4595C24.2828 61.6728 24.3645 61.8697 24.5385 62.0501C24.7129 62.2287 24.9102 62.3178 25.1268 62.3149C25.3453 62.3124 25.5451 62.2205 25.7279 62.0398L27.9208 59.8785L29.1446 61.1327L29.1443 61.1347Z" fill="#FFC43D"/>
</g>
</g>
<defs>
<clipPath id="clip0_118_155">
<rect width="58" height="59" fill="white" transform="translate(20.1597 9.34717) rotate(10.7079)"/>
</clipPath>
</defs>
</svg>
