<svg width="112" height="112" viewBox="0 0 112 112" fill="none" xmlns="http://www.w3.org/2000/svg">
<path d="M38.3094 26.7361L40.2327 18.6544L47.3138 22.9985C48.4279 23.6819 49.8804 23.3919 50.6466 22.333L55.5162 15.6025L60.396 22.3257C61.1637 23.3834 62.6166 23.6713 63.7297 22.9862L70.8043 18.6316L72.7397 26.7104C73.0442 27.9814 74.2764 28.8034 75.5669 28.5964L83.7694 27.2806L82.4659 35.4851C82.2608 36.7759 83.0847 38.0068 84.3562 38.3094L92.4379 40.2328L88.0938 47.3139C87.4104 48.428 87.7004 49.8805 88.7593 50.6466L95.4898 55.5163L88.7667 60.396C87.7089 61.1637 87.421 62.6167 88.1061 63.7297L92.4608 70.8044L84.3819 72.7398C83.1109 73.0443 82.2889 74.2765 82.4959 75.567L83.8117 83.7695L75.6072 82.466C74.3164 82.2609 73.0855 83.0847 72.7829 84.3562L70.8595 92.4379L63.7784 88.0939C62.6643 87.4104 61.2118 87.7005 60.4457 88.7594L55.576 95.4899L50.6963 88.7667C49.9286 87.7089 48.4756 87.4211 47.3626 88.1062L40.288 92.4608L38.3525 84.382C38.048 83.1109 36.8159 82.289 35.5253 82.496L27.3228 83.8118L28.6263 75.6073C28.8314 74.3165 28.0076 73.0855 26.7361 72.7829L18.6544 70.8596L22.9984 63.7785C23.6819 62.6644 23.3918 61.2119 22.3329 60.4457L15.6024 55.5761L22.3256 50.6963C23.3834 49.9286 23.6712 48.4757 22.9861 47.3626L18.6315 40.288L26.7103 38.3526C27.9814 38.0481 28.8033 36.8159 28.5963 35.5254L27.2805 27.3229L35.485 28.6264C36.7758 28.8315 38.0068 28.0076 38.3094 26.7361Z" fill="white" stroke="#FFC43D" stroke-width="3"/>
<circle cx="56.1997" cy="55.8161" r="9" transform="rotate(-22.5429 56.1997 55.8161)" fill="#FFC43D"/>
<circle cx="56.1996" cy="55.8163" r="12" transform="rotate(-22.5429 56.1996 55.8163)" stroke="#FFC43D" stroke-width="2"/>
<g clip-path="url(#clip0_118_37)">
<g opacity="0.99">
<path d="M40.4402 72.2942L39.3464 73.4083L38.5116 72.5986C38.3546 72.4464 38.1865 72.3442 38.0087 72.2955C37.8308 72.2468 37.6535 72.2473 37.4739 72.3001C37.2943 72.3529 37.1289 72.4591 36.9729 72.6167C36.8132 72.7799 36.7099 72.9492 36.6604 73.1279C36.6108 73.3066 36.6159 73.4823 36.6716 73.6549C36.729 73.8267 36.8348 73.9903 36.9942 74.1436L37.829 74.9532L36.737 76.0666L35.9366 75.2921C35.5003 74.8704 35.1946 74.432 35.0214 73.9762C34.8471 73.5228 34.8093 73.0761 34.9055 72.6349C35.0017 72.1938 35.239 71.785 35.612 71.4049L35.7216 71.2941C36.0901 70.9178 36.4948 70.6767 36.935 70.5691C37.3751 70.4615 37.8268 70.4875 38.29 70.647C38.7533 70.8065 39.2034 71.0979 39.6398 71.5196L40.4402 72.2942ZM42.9217 72.0626L37.893 77.1837L36.5986 75.9304L41.6274 70.8092L42.9217 72.0626Z" fill="#FFC43D"/>
<path d="M38.8043 67.9257L32.5973 71.4291L31.7285 69.8984L35.2671 67.9018L35.3808 68.1037C34.9039 68.3727 34.4718 68.5383 34.0818 68.6033C33.6919 68.6683 33.3498 68.6325 33.057 68.499C32.7635 68.3639 32.5203 68.1289 32.3308 67.7925L32.2929 67.7252C32.0054 67.22 31.9716 66.7301 32.1898 66.2561C32.4073 65.7804 32.872 65.3425 33.5864 64.9392L36.2565 63.4316L37.1254 64.9624L34.3951 66.5028C34.1799 66.6238 34.039 66.789 33.9733 66.9961C33.9077 67.2032 33.9357 67.4149 34.056 67.6278C34.1763 67.8407 34.3461 67.9758 34.5606 68.0311C34.7757 68.088 34.9978 68.0511 35.2242 67.9236L37.9365 66.3926L38.8053 67.9233L38.8043 67.9257Z" fill="#FFC43D"/>
<path d="M35.628 60.2833C35.7366 60.7422 35.763 61.1661 35.7083 61.5583C35.653 61.9489 35.5306 62.2982 35.3429 62.6053C35.1552 62.9125 34.9143 63.1686 34.6211 63.3753C34.3295 63.5814 33.9994 63.7282 33.6309 63.816L33.4041 63.8706C33.0246 63.9609 32.653 63.9788 32.2926 63.9229C31.9322 63.8669 31.5975 63.743 31.2918 63.5497C30.9861 63.3564 30.7215 63.0987 30.4972 62.7747C30.273 62.4508 30.11 62.0678 30.0057 61.6289C29.9002 61.1825 29.8767 60.7654 29.9317 60.3789C29.9877 59.99 30.1084 59.6415 30.2971 59.3319C30.4842 59.023 30.728 58.7597 31.0243 58.5459C31.3223 58.3313 31.6608 58.1808 32.0396 58.0888L32.2681 58.0335C32.6349 57.9465 32.996 57.927 33.3491 57.9801C33.7016 58.0314 34.0309 58.1516 34.3369 58.3409C34.6428 58.5301 34.9068 58.7862 35.13 59.1125C35.3542 59.4364 35.519 59.8285 35.6277 60.2874L35.628 60.2833ZM34.1847 60.6275C34.1234 60.3644 34.0141 60.1587 33.8599 60.0132C33.7057 59.8677 33.5138 59.7754 33.2882 59.7367C33.0627 59.6979 32.8184 59.7103 32.559 59.7726C32.2869 59.8381 32.0582 59.9409 31.8747 60.0803C31.6912 60.2197 31.5596 60.3929 31.4809 60.5975C31.4022 60.8021 31.3928 61.0294 31.4516 61.2817C31.5098 61.5323 31.6211 61.7331 31.7834 61.8792C31.9441 62.0259 32.1391 62.1209 32.3661 62.163C32.5931 62.2052 32.8438 62.194 33.1159 62.1285C33.3754 62.0662 33.5979 61.9679 33.7822 61.8302C33.9671 61.6941 34.096 61.524 34.1689 61.3198C34.2417 61.1157 34.2463 60.8865 34.1871 60.6284L34.1847 60.6275Z" fill="#FFC43D"/>
<path d="M34.9865 54.3927C34.9805 54.9743 34.9033 55.4372 34.7573 55.7824C34.6113 56.1276 34.3718 56.3772 34.0387 56.5313C33.7057 56.6853 33.2563 56.7612 32.6907 56.7588L28.0971 56.7326L28.1138 55.1051L32.7553 55.1311C32.9952 55.1323 33.1805 55.0692 33.3077 54.9433C33.435 54.8173 33.5013 54.6357 33.5034 54.3956L33.511 53.6593L34.9935 53.6645L34.9858 54.391L34.9865 54.3927ZM30.7813 57.5276L29.4943 57.5223L29.5333 53.6462L30.8203 53.6515L30.7813 57.5276Z" fill="#FFC43D"/>
<path d="M35.725 50.6733C35.6078 51.1311 35.4329 51.5219 35.2036 51.8444C34.9726 52.1675 34.7031 52.4217 34.3939 52.6094C34.0847 52.797 33.7527 52.9151 33.3994 52.9629C33.0445 53.0114 32.6848 52.9907 32.3203 52.9009L32.0935 52.8448C31.7153 52.7508 31.3803 52.5974 31.087 52.3811C30.7938 52.1649 30.5568 51.9016 30.3754 51.5895C30.194 51.2774 30.0805 50.9273 30.0337 50.5356C29.9868 50.144 30.0201 49.729 30.1334 49.2906C30.248 48.8458 30.4207 48.4638 30.6489 48.1438C30.8789 47.823 31.1484 47.5688 31.4586 47.3788C31.7688 47.1888 32.1052 47.0669 32.4663 47.0139C32.8291 46.9601 33.1987 46.9806 33.5762 47.073L33.8029 47.129C34.1674 47.2189 34.4953 47.3694 34.7826 47.5762C35.0707 47.7847 35.3056 48.043 35.4873 48.351C35.669 48.6589 35.7841 49.0084 35.831 49.4001C35.8778 49.7917 35.8423 50.2156 35.725 50.6733ZM34.289 50.3188C34.3572 50.0553 34.3553 49.8248 34.2878 49.6236C34.2185 49.4231 34.0925 49.2541 33.9114 49.1158C33.7303 48.9775 33.5085 48.8759 33.2509 48.8128C32.9796 48.7456 32.7307 48.7323 32.5025 48.7737C32.2735 48.8134 32.0769 48.9068 31.9119 49.0524C31.7469 49.198 31.6323 49.3977 31.5684 49.6476C31.5045 49.8974 31.5098 50.1265 31.5829 50.3313C31.6584 50.5372 31.7858 50.7096 31.9666 50.8519C32.1491 50.9936 32.3739 51.0979 32.6452 51.1651C32.9035 51.2299 33.1459 51.2419 33.3739 51.2046C33.6018 51.1673 33.795 51.0752 33.9528 50.9267C34.1113 50.7799 34.2228 50.5775 34.2897 50.3205L34.289 50.3188Z" fill="#FFC43D"/>
<path d="M39.3957 46.6926C39.2592 46.9212 39.1094 47.1514 38.9486 47.3842C38.7878 47.6169 38.6333 47.8214 38.4898 47.9996L37.2164 47.2533C37.3544 47.0715 37.5066 46.8661 37.6694 46.6384C37.8323 46.4107 37.9744 46.1956 38.0931 45.9961C38.2993 45.6516 38.4323 45.3474 38.4913 45.0857C38.5503 44.8241 38.5368 44.5945 38.4488 44.4017C38.3601 44.2073 38.2 44.0426 37.9652 43.9048L37.0269 43.3555L36.6644 42.8281C37.0491 43.0676 37.3429 43.3429 37.5462 43.6499C37.7501 43.9585 37.8527 44.2875 37.8541 44.6368C37.8554 44.986 37.7454 45.3459 37.5268 45.7133C37.3412 46.0256 37.1167 46.2729 36.8547 46.4588C36.5926 46.6446 36.3074 46.765 35.999 46.8199C35.6906 46.8748 35.3669 46.8688 35.0331 46.7999C34.6975 46.7316 34.3651 46.5989 34.0362 46.4073L33.8354 46.289C33.5058 46.0958 33.2309 45.866 33.0089 45.6004C32.787 45.3348 32.6277 45.0472 32.5313 44.7334C32.4357 44.4213 32.4073 44.103 32.4472 43.7762C32.4878 43.451 32.6033 43.1284 32.7926 42.8106C33.0129 42.4425 33.2843 42.1737 33.6087 42.0035C33.9331 41.8332 34.2978 41.7649 34.7003 41.7974C35.1029 41.8299 35.5311 41.9723 35.9843 42.223L35.9421 42.4243L33.9164 41.2354L34.6364 40.0333L38.714 42.4259C39.2839 42.7606 39.6808 43.1354 39.9063 43.5536C40.1318 43.9719 40.1969 44.441 40.1038 44.9619C40.0108 45.4827 39.7741 46.0612 39.3947 46.695L39.3957 46.6926ZM36.5777 44.4649C36.687 44.2812 36.7456 44.0909 36.7495 43.8936C36.7534 43.6963 36.7031 43.5077 36.5971 43.3244C36.4918 43.1428 36.3269 42.986 36.1025 42.8538L35.9017 42.7355C35.6835 42.6087 35.472 42.5463 35.2673 42.5482C35.0617 42.5526 34.8746 42.6065 34.7061 42.7101C34.5383 42.8153 34.4019 42.953 34.2983 43.1264C34.1779 43.3266 34.119 43.5309 34.1241 43.7402C34.1268 43.9486 34.1896 44.1478 34.311 44.3346C34.4331 44.5231 34.61 44.6848 34.8448 44.8226C35.0795 44.9603 35.3058 45.0344 35.526 45.0458C35.7445 45.0579 35.9457 45.0139 36.1272 44.9128C36.3087 44.8118 36.4576 44.661 36.578 44.4609L36.5777 44.4649Z" fill="#FFC43D"/>
<path d="M39.8335 42.2639L35.9993 38.535L36.9848 37.535L38.6511 39.1557L38.6369 39.1695C38.099 38.6476 37.7888 38.1262 37.7055 37.6034C37.6205 37.0814 37.7864 36.6113 38.202 36.1897L38.3519 36.0366L39.4359 37.0907L39.1479 37.3822C38.8697 37.6637 38.73 37.9568 38.7306 38.261C38.7311 38.5651 38.8737 38.8557 39.1615 39.1355L41.0786 41L39.8318 42.2646L39.8335 42.2639Z" fill="#FFC43D"/>
<path d="M45.1524 37.8703L44.2963 36.5576L44.0511 36.7167L43.1357 35.314C43.0024 35.1084 42.854 34.9862 42.6926 34.9484C42.5313 34.9106 42.3411 34.9619 42.1244 35.1032C42.0205 35.1701 41.8694 35.2723 41.6705 35.4083C41.4715 35.5442 41.2652 35.6911 41.0466 35.8471C40.8297 36.0023 40.6319 36.1457 40.4531 36.2773L39.6486 35.0459C39.7728 34.9509 39.9214 34.8378 40.0941 34.7108C40.2668 34.5837 40.4488 34.4549 40.6392 34.3224C40.8303 34.1917 41.0065 34.0731 41.1702 33.9676C41.6338 33.6665 42.0725 33.4785 42.4863 33.4035C42.9001 33.3286 43.2805 33.3703 43.6293 33.528C43.9787 33.6873 44.2873 33.9742 44.56 34.3907L46.3316 37.1061L45.1524 37.8703ZM43.7935 38.9127C43.4756 39.1177 43.1587 39.2434 42.8385 39.2893C42.5184 39.3352 42.2194 39.2973 41.9407 39.1738C41.662 39.0503 41.4252 38.8403 41.232 38.543C41.0134 38.2088 40.9258 37.8776 40.9705 37.5527C41.0152 37.2278 41.1646 36.9148 41.418 36.612C41.6714 36.3092 42.0025 36.0255 42.4131 35.7602L43.2907 35.1923L43.7884 35.9541L42.9109 36.522C42.7081 36.6536 42.5848 36.8035 42.5417 36.9736C42.4969 37.1444 42.5296 37.3146 42.6385 37.4809C42.7437 37.6428 42.885 37.7383 43.0586 37.767C43.2321 37.7958 43.4206 37.7452 43.6234 37.6136C43.7541 37.5297 43.8547 37.4307 43.9264 37.3199C43.9981 37.2091 44.0279 37.0742 44.0196 36.9195C44.0105 36.7632 43.9473 36.5819 43.8274 36.3747L44.3823 36.4764C44.5553 36.8019 44.6519 37.1116 44.6674 37.4036C44.6836 37.6973 44.6213 37.9702 44.4788 38.223C44.3364 38.4758 44.1083 38.7049 43.7911 38.9117L43.7935 38.9127Z" fill="#FFC43D"/>
<path d="M47.4043 38.657L45.2588 31.7052L46.6019 31.288L47.2818 33.4882L47.1332 33.534C46.9975 33.0291 46.9678 32.573 47.0434 32.1641C47.1191 31.7552 47.2856 31.4114 47.5464 31.1312C47.8071 30.851 48.1431 30.6463 48.5534 30.5195C48.9071 30.4102 49.2471 30.3738 49.5717 30.411C49.8964 30.4482 50.1981 30.5502 50.4735 30.7186C50.7506 30.8862 50.9913 31.1104 51.1973 31.3905C51.4034 31.6706 51.5638 31.9993 51.6802 32.3759L51.7486 32.5985C51.8651 32.9751 51.9215 33.3371 51.9205 33.6853C51.9194 34.0336 51.8542 34.3572 51.7289 34.6562C51.6037 34.9552 51.4162 35.2149 51.1657 35.4335C50.9153 35.6521 50.6059 35.82 50.2328 35.9353C49.8352 36.0589 49.4593 36.0904 49.106 36.0276C48.7527 35.9647 48.4381 35.8028 48.1632 35.5394C47.889 35.2777 47.6697 34.9082 47.5096 34.4312L48.0751 34.8032L49.1018 38.1322L47.405 38.6587L47.4043 38.657ZM49.2914 34.7055C49.5159 34.636 49.6946 34.5184 49.8307 34.3512C49.9668 34.184 50.0509 33.9831 50.0846 33.7517C50.1175 33.5187 50.0953 33.2729 50.0156 33.0135C49.9337 32.749 49.8161 32.533 49.6584 32.3692C49.5023 32.2048 49.3232 32.0953 49.1227 32.0402C48.9223 31.985 48.7057 31.9919 48.4761 32.0635C48.2709 32.1269 48.0932 32.2323 47.9453 32.3807C47.7967 32.5273 47.6942 32.7082 47.6372 32.9216C47.5801 33.1351 47.5909 33.3678 47.6679 33.6204L47.7642 33.9342C47.838 34.1744 47.9611 34.3604 48.1302 34.4938C48.3009 34.6265 48.4894 34.7103 48.6981 34.7422C48.9059 34.7766 49.104 34.7635 49.2897 34.7062L49.2914 34.7055Z" fill="#FFC43D"/>
<path d="M52.8394 35.0725L52.7829 28.0007L54.5581 27.9754L54.5909 32.0054L54.3572 32.0095C54.3537 31.4675 54.4172 31.0103 54.551 30.6405C54.6848 30.2707 54.8814 29.9895 55.1437 29.7996C55.406 29.6097 55.7318 29.51 56.1206 29.5047L56.1982 29.5042C56.7835 29.4964 57.2328 29.6992 57.5444 30.1134C57.8567 30.5293 58.0157 31.1431 58.0222 31.9567L58.0459 34.9984L56.2708 35.0238L56.2447 31.9138C56.2424 31.6678 56.1673 31.4677 56.0164 31.3109C55.8656 31.1542 55.6666 31.0786 55.4189 31.0826C55.1712 31.0867 54.9714 31.1676 54.8167 31.3286C54.6621 31.4897 54.5856 31.6993 54.587 31.9576L54.6111 35.0486L52.836 35.0739L52.8394 35.0725Z" fill="#FFC43D"/>
<path d="M58.1109 37.2026L58.484 35.775L59.6823 36.076C59.8272 36.1127 59.9541 36.1253 60.0647 36.113C60.1753 36.1006 60.2723 36.0604 60.3574 35.9915C60.4425 35.9225 60.5205 35.8171 60.5912 35.675L63.1287 30.7381L64.7529 31.147L61.93 36.3625C61.7172 36.7631 61.4894 37.0651 61.246 37.267C61.0026 37.4688 60.7105 37.5822 60.3721 37.608C60.0336 37.6338 59.6152 37.5822 59.1188 37.4582L58.1092 37.2033L58.1109 37.2026ZM59.5406 35.2396L59.3477 29.7857L61.0657 30.2189L61.1654 35.6501L59.5413 35.2412L59.5406 35.2396ZM60.334 35.4399L60.678 34.1251L61.7726 34.402L61.4285 35.7168L60.333 35.4423L60.334 35.4399Z" fill="#FFC43D"/>
</g>
<g opacity="0.99">
<path d="M68.1704 39.0298L73.1991 33.9086L74.4935 35.162L69.4647 40.2831L68.1704 39.0298ZM70.6519 38.7982L71.744 37.6848L72.5788 38.4944C72.7358 38.6467 72.9039 38.7488 73.0817 38.7975C73.2596 38.8463 73.4369 38.8458 73.6165 38.793C73.7961 38.7402 73.9615 38.634 74.1175 38.4763C74.2772 38.3132 74.3805 38.1438 74.43 37.9651C74.4796 37.7865 74.4745 37.6107 74.4188 37.4381C74.3614 37.2663 74.2556 37.1027 74.0962 36.9495L73.2614 36.1398L74.3551 35.0257L75.1555 35.8003C75.5918 36.2219 75.8958 36.661 76.07 37.1144C76.2443 37.5678 76.2828 38.0163 76.1859 38.4557C76.089 38.8952 75.8524 39.3057 75.4794 39.6858L75.3698 39.7965C75.0013 40.1728 74.5966 40.4139 74.1564 40.5215C73.7163 40.6291 73.2646 40.6032 72.8014 40.4436C72.3381 40.2841 71.888 39.9927 71.4516 39.571L70.6512 38.7965L70.6519 38.7982Z" fill="#FFC43D"/>
<path d="M72.2872 43.1652L78.4942 39.6618L79.3637 41.1943L75.8269 43.1901L75.7132 42.9882C76.19 42.7192 76.6221 42.5536 77.0121 42.4886C77.4021 42.4236 77.7442 42.4594 78.0369 42.5929C78.3304 42.728 78.5736 42.963 78.7632 43.2994L78.8011 43.3667C79.0869 43.8726 79.1224 44.3618 78.9041 44.8358C78.6859 45.3098 78.222 45.7494 77.5075 46.1527L74.8374 47.6603L73.9679 46.1279L76.6982 44.5874C76.9133 44.4665 77.0542 44.3012 77.1199 44.0941C77.1855 43.887 77.1582 43.677 77.0372 43.4624C76.9169 43.2495 76.7488 43.1137 76.5327 43.0592C76.3175 43.0022 76.0954 43.0391 75.869 43.1666L73.1567 44.6977L72.2872 43.1652Z" fill="#FFC43D"/>
<path d="M75.4642 50.809C75.3556 50.3502 75.3293 49.9263 75.3839 49.534C75.4392 49.1434 75.5609 48.7925 75.7493 48.487C75.9378 48.1815 76.1779 47.9237 76.4712 47.717C76.7627 47.511 77.0928 47.3641 77.4614 47.2763L77.6881 47.2218C78.0676 47.1314 78.4392 47.1135 78.7996 47.1695C79.16 47.2254 79.4948 47.3493 79.8004 47.5426C80.1061 47.7359 80.3707 47.9937 80.595 48.3176C80.8192 48.6416 80.9822 49.0246 81.0866 49.4635C81.192 49.9098 81.2156 50.327 81.1605 50.7135C81.1045 51.1024 80.9838 51.4509 80.7951 51.7605C80.6064 52.07 80.3642 52.3326 80.0679 52.5465C79.77 52.7611 79.4314 52.9115 79.0526 53.0035L78.8242 53.0588C78.4573 53.1459 78.0963 53.1653 77.7431 53.1123C77.3899 53.0593 77.0613 52.9407 76.7554 52.7515C76.4494 52.5623 76.1855 52.3062 75.9622 51.9799C75.738 51.6559 75.5732 51.2638 75.4645 50.805L75.4642 50.809ZM76.9075 50.4649C76.9688 50.728 77.0781 50.9336 77.2323 51.0791C77.3865 51.2246 77.5784 51.3169 77.804 51.3557C78.0296 51.3945 78.2738 51.3821 78.534 51.3215C78.806 51.256 79.0347 51.1532 79.2182 51.0137C79.4018 50.8743 79.5334 50.7011 79.612 50.4965C79.6907 50.2919 79.7001 50.0647 79.6413 49.8124C79.5832 49.5618 79.4719 49.3609 79.3095 49.2149C79.1488 49.0681 78.9538 48.9732 78.7268 48.931C78.4998 48.8889 78.2491 48.9001 77.977 48.9656C77.7175 49.0278 77.495 49.1261 77.3108 49.2639C77.1258 49.3999 76.9969 49.57 76.9241 49.7742C76.8512 49.9784 76.8466 50.2076 76.9058 50.4656L76.9075 50.4649Z" fill="#FFC43D"/>
<path d="M76.1056 56.6993C76.1116 56.1177 76.1888 55.6548 76.3348 55.3096C76.4808 54.9644 76.7204 54.7148 77.0534 54.5607C77.3865 54.4066 77.8358 54.3308 78.4015 54.3332L82.9951 54.3593L82.9784 55.9869L78.3369 55.9609C78.0953 55.9604 77.9117 56.0227 77.7837 56.147C77.6564 56.273 77.5902 56.4546 77.5881 56.6946L77.5805 57.431L76.098 57.4258L76.1056 56.6993ZM80.3108 53.5643L81.5979 53.5696L81.5589 57.4457L80.2718 57.4404L80.3108 53.5643Z" fill="#FFC43D"/>
<path d="M75.3671 60.4193C75.4844 59.9616 75.6593 59.5707 75.8886 59.2483C76.1195 58.9251 76.3891 58.6709 76.6983 58.4833C77.0074 58.2957 77.3395 58.1776 77.6944 58.1291C78.0494 58.0806 78.4091 58.1012 78.7736 58.1911L79.0004 58.2471C79.3786 58.3412 79.7136 58.4946 80.0068 58.7108C80.3001 58.9271 80.5371 59.1904 80.7185 59.5024C80.8999 59.8145 81.0133 60.1647 81.0602 60.5563C81.107 60.948 81.0738 61.363 80.9605 61.8013C80.8459 62.2462 80.6739 62.6298 80.445 62.9482C80.215 63.2689 79.9454 63.5231 79.6353 63.7132C79.3251 63.9032 78.9886 64.0251 78.6259 64.0788C78.2631 64.1325 77.8935 64.112 77.516 64.0197L77.2892 63.9636C76.9247 63.8738 76.5969 63.7233 76.3096 63.5165C76.0215 63.308 75.7866 63.0497 75.6049 62.7417C75.4232 62.4337 75.3081 62.0842 75.2612 61.6926C75.2144 61.301 75.2499 60.8771 75.3671 60.4193ZM76.8032 60.7739C76.735 61.0374 76.7351 61.2685 76.8044 61.4691C76.8737 61.6696 76.9997 61.8386 77.1808 61.9769C77.3619 62.1152 77.5836 62.2168 77.8412 62.2799C78.1126 62.3471 78.3615 62.3604 78.5904 62.3207C78.8186 62.2793 79.0142 62.1882 79.1786 62.041C79.3436 61.8954 79.4582 61.6956 79.5221 61.4458C79.586 61.1959 79.5807 60.9669 79.5076 60.762C79.4321 60.5562 79.3047 60.3838 79.1239 60.2414C78.9414 60.0998 78.7166 59.9955 78.4452 59.9282C78.1869 59.8635 77.9445 59.8515 77.7166 59.8888C77.4887 59.9261 77.2955 60.0181 77.1376 60.1666C76.9791 60.3135 76.8676 60.5159 76.8007 60.7729L76.8032 60.7739Z" fill="#FFC43D"/>
<path d="M71.6981 64.3987C71.8346 64.1701 71.9845 63.9399 72.1452 63.7072C72.306 63.4744 72.4605 63.27 72.6041 63.0918L73.8774 63.838C73.7377 64.0205 73.5873 64.2253 73.4244 64.4529C73.2616 64.6806 73.1194 64.8958 73.0007 65.0952C72.7946 65.4397 72.6615 65.744 72.6025 66.0056C72.5436 66.2673 72.5571 66.4969 72.645 66.6896C72.7337 66.884 72.8939 67.0488 73.1269 67.1873L74.0652 67.7366L74.4278 68.264C74.0447 68.0237 73.7492 67.7492 73.546 67.4422C73.3421 67.1335 73.2394 66.8046 73.2381 66.4553C73.2361 66.1044 73.3467 65.7461 73.5653 65.3787C73.7526 65.0658 73.9772 64.8184 74.2375 64.6333C74.4978 64.4481 74.7847 64.3271 75.0931 64.2722C75.4008 64.2156 75.7228 64.2223 76.0591 64.2922C76.3947 64.3604 76.7271 64.4932 77.0567 64.6864L77.2574 64.8047C77.587 64.998 77.8619 65.2277 78.0839 65.4933C78.3059 65.7589 78.4652 66.0465 78.5615 66.3603C78.6572 66.6724 78.6855 66.9907 78.6456 67.3176C78.605 67.6427 78.4896 67.9654 78.3002 68.2831C78.08 68.6513 77.8085 68.9201 77.4841 69.0903C77.1597 69.2605 76.7958 69.3306 76.3925 69.2964C75.9893 69.2621 75.5618 69.1214 75.1086 68.8708L75.1507 68.6695L77.1765 69.8583L76.4564 71.0604L72.3788 68.6678C71.8097 68.3349 71.412 67.9584 71.1865 67.5401C70.961 67.1218 70.896 66.6527 70.989 66.1319C71.0821 65.611 71.3188 65.0325 71.6981 64.3987ZM74.5145 66.6271C74.4052 66.8108 74.3465 67.0012 74.3426 67.1985C74.3387 67.3958 74.3891 67.5844 74.4951 67.7676C74.6011 67.9509 74.7653 68.1061 74.989 68.2366L75.1897 68.3548C75.408 68.4817 75.6194 68.5441 75.8258 68.5414C76.0315 68.5371 76.2186 68.4831 76.3871 68.3796C76.5549 68.2744 76.6913 68.1367 76.7949 67.9633C76.9153 67.7631 76.9734 67.5571 76.969 67.3495C76.9663 67.1411 76.9035 66.9418 76.7821 66.7551C76.66 66.5666 76.4831 66.4048 76.2484 66.2671C76.0136 66.1293 75.7874 66.0553 75.5689 66.0432C75.3504 66.0311 75.1492 66.0751 74.9677 66.1761C74.7862 66.2772 74.6373 66.4279 74.5169 66.6281L74.5145 66.6271Z" fill="#FFC43D"/>
<path d="M71.2586 68.8285L75.0928 72.5574L74.1073 73.5574L72.441 71.9367L72.4553 71.9229C72.9931 72.4447 73.304 72.9679 73.3866 73.4889C73.4716 74.011 73.3057 74.4811 72.8908 74.9043L72.7409 75.0574L71.6569 74.0033L71.9449 73.7119C72.2231 73.4304 72.3621 73.1355 72.3622 72.8331C72.3617 72.5289 72.2191 72.2383 71.9314 71.9585L70.0142 70.094L71.261 68.8295L71.2586 68.8285Z" fill="#FFC43D"/>
<path d="M65.9397 73.2223L66.7959 74.535L67.0411 74.3759L67.9565 75.7786C68.0897 75.9842 68.2382 76.1064 68.3995 76.1441C68.5608 76.1819 68.751 76.1306 68.9677 75.9893C69.0716 75.9225 69.2227 75.8202 69.4217 75.6843C69.6206 75.5483 69.827 75.4014 70.0455 75.2455C70.2624 75.0902 70.4596 74.9452 70.6391 74.8153L71.4435 76.0467C71.3194 76.1417 71.1708 76.2548 70.998 76.3818C70.8253 76.5088 70.6434 76.6377 70.453 76.7701C70.2618 76.9008 70.0856 77.0195 69.9219 77.125C69.4583 77.4261 69.0197 77.6141 68.6059 77.689C68.192 77.764 67.8116 77.7222 67.4646 77.5639C67.1151 77.4046 66.8065 77.1177 66.5346 76.7028L64.763 73.9874L65.9421 73.2233L65.9397 73.2223ZM67.3004 72.1792C67.6183 71.9741 67.9352 71.8485 68.2553 71.8026C68.5754 71.7567 68.8745 71.7946 69.1532 71.9181C69.4319 72.0415 69.6687 72.2515 69.8619 72.5488C70.0804 72.883 70.168 73.2143 70.1233 73.5392C70.0786 73.8641 69.9293 74.1771 69.6759 74.4799C69.4225 74.7827 69.0914 75.0664 68.6808 75.3317L67.8032 75.8995L67.3054 75.1377L68.183 74.5699C68.3857 74.4383 68.509 74.2883 68.5521 74.1182C68.597 73.9474 68.5632 73.7796 68.4553 73.611C68.3502 73.4491 68.2088 73.3536 68.0353 73.3248C67.8617 73.2961 67.6732 73.3466 67.4705 73.4782C67.3397 73.5622 67.2392 73.6612 67.1675 73.772C67.0958 73.8828 67.066 74.0177 67.0726 74.1731C67.0816 74.3294 67.1449 74.5107 67.2648 74.7178L66.7098 74.6161C66.5368 74.2907 66.4402 73.981 66.4247 73.689C66.4086 73.3953 66.4709 73.1224 66.6133 72.8696C66.7558 72.6167 66.9839 72.3877 67.3011 72.1809L67.3004 72.1792Z" fill="#FFC43D"/>
<path d="M63.6879 72.4354L65.8333 79.3872L64.4902 79.8044L63.8104 77.6042L63.9606 77.5577C64.0964 78.0626 64.1261 78.5187 64.0504 78.9276C63.9765 79.3358 63.8083 79.6803 63.5475 79.9605C63.2867 80.2407 62.9507 80.4454 62.5405 80.5722C62.1851 80.6822 61.8468 80.7179 61.5221 80.6807C61.1974 80.6435 60.8974 80.5408 60.6203 80.3731C60.3433 80.2055 60.1026 79.9813 59.8965 79.7012C59.6905 79.4211 59.5301 79.0924 59.4137 78.7158L59.3452 78.4932C59.2288 78.1166 59.1723 77.7546 59.1734 77.4064C59.1745 77.0581 59.2397 76.7345 59.3649 76.4355C59.4902 76.1365 59.6777 75.8768 59.9281 75.6582C60.1786 75.4396 60.4879 75.2717 60.861 75.1563C61.2586 75.0328 61.6346 75.0013 61.9879 75.0641C62.3412 75.127 62.6558 75.2889 62.9307 75.5523C63.2049 75.8139 63.4241 76.1835 63.5842 76.6605L63.0188 76.2885L61.9921 72.9595L63.6889 72.433L63.6879 72.4354ZM61.8001 76.3852C61.5755 76.4547 61.3969 76.5723 61.2608 76.7395C61.1247 76.9067 61.0405 77.1076 61.0069 77.339C60.9739 77.5721 60.9961 77.8178 61.0759 78.0772C61.1577 78.3417 61.2753 78.5577 61.4331 78.7215C61.5891 78.886 61.7683 78.9954 61.9687 79.0506C62.1692 79.1057 62.3858 79.0988 62.6154 79.0272C62.8205 78.9638 62.9982 78.8584 63.1461 78.71C63.2947 78.5634 63.3972 78.3825 63.4543 78.1691C63.5113 77.9557 63.5005 77.723 63.4219 77.471L63.3255 77.1572C63.2518 76.9171 63.1287 76.731 62.9596 76.5976C62.7888 76.465 62.6004 76.3811 62.3916 76.3492C62.1838 76.3149 61.9857 76.3279 61.8001 76.3852Z" fill="#FFC43D"/>
<path d="M58.2545 76.0188L58.311 83.0906L56.5359 83.116L56.503 79.0859L56.7374 79.0835C56.741 79.6255 56.6774 80.0828 56.5436 80.4525C56.4098 80.8223 56.2133 81.1035 55.951 81.2934C55.6893 81.485 55.3629 81.583 54.9723 81.589L54.8948 81.5896C54.3094 81.5973 53.8601 81.3945 53.5485 80.9803C53.2363 80.5644 53.0772 79.9506 53.0707 79.137L53.0471 76.0953L54.8222 76.07L54.8465 79.1806C54.8489 79.4267 54.9239 79.6267 55.0765 79.7828C55.2291 79.9388 55.4263 80.0151 55.6723 80.0118C55.9201 80.0078 56.1199 79.9268 56.2745 79.7658C56.4291 79.6048 56.5057 79.3951 56.5042 79.1368L56.4784 76.0466L58.2535 76.0212L58.2545 76.0188Z" fill="#FFC43D"/>
<path d="M52.9772 73.8891L52.6042 75.3167L51.4052 75.014C51.2603 74.9773 51.1333 74.9648 51.0227 74.9771C50.9121 74.9894 50.8151 75.0297 50.73 75.0986C50.6449 75.1675 50.567 75.273 50.4963 75.415L47.9564 80.3509L46.3322 79.942L49.1551 74.7266C49.3662 74.3267 49.5939 74.0246 49.839 73.8221C50.0825 73.6202 50.3746 73.5069 50.713 73.4811C51.0514 73.4552 51.4699 73.5068 51.9662 73.6308L52.9758 73.8857L52.9772 73.8891ZM51.5493 75.8515L51.7422 81.3053L50.0242 80.8721L49.9251 75.4426L51.5493 75.8515ZM50.7559 75.6511L50.4118 76.9659L49.3173 76.689L49.6613 75.3742L50.7576 75.6504L50.7559 75.6511Z" fill="#FFC43D"/>
</g>
</g>
<path d="M61.7412 53.5162C60.4708 50.4557 56.9599 49.0045 53.8994 50.2749" stroke="white" stroke-width="3" stroke-linecap="round"/>
<defs>
<clipPath id="clip0_118_37">
<rect width="55" height="53" fill="white" transform="translate(19.9878 41.6138) rotate(-22.5429)"/>
</clipPath>
</defs>
</svg>
