<svg width="72" height="59" viewBox="0 0 72 59" fill="none" xmlns="http://www.w3.org/2000/svg">
<g clip-path="url(#clip0_118_202)">
<rect x="23.8113" y="15.7319" width="36.6742" height="30.9075" transform="rotate(10.8683 23.8113 15.7319)" fill="white"/>
<path d="M32.9315 32.5711C32.9987 33.0514 33.0521 33.5109 33.0846 33.8946L28.7281 33.0513C29.1262 32.3736 29.5582 31.6127 29.9522 30.7725C30.3942 29.9596 30.8191 29.1434 31.2373 28.3618C31.6216 27.6635 31.9545 26.9552 32.253 26.2403L32.2873 26.2469C32.3269 26.6859 32.3598 27.1594 32.4031 27.671C32.4431 28.1998 32.5002 28.732 32.5678 29.3022C32.6354 29.8723 32.6892 30.4218 32.7567 30.9919C32.8105 31.5414 32.8677 32.0736 32.9315 32.5711Z" fill="#FFC43D"/>
<path d="M55.4805 16.6484L28.8958 11.5023C24.8652 10.7221 20.9694 13.3822 20.1815 17.4526L15.1858 43.2602C14.3979 47.3306 17.0197 51.2523 21.0503 52.0325L47.635 57.1786C51.6656 57.9588 55.5614 55.2987 56.3493 51.2284L61.345 25.4207C62.1329 21.3503 59.5111 17.4286 55.4805 16.6484ZM37.8872 42.8208L34.3026 42.1269C34.1792 42.121 34.0759 42.0111 34.065 41.8832L33.4633 37.4541L33.4465 37.5407L27.0662 36.3056L24.9714 40.1409C24.9069 40.2902 24.7496 40.3675 24.5986 40.3203L21.3741 39.6962C21.1855 39.6597 21.1541 39.5458 21.2458 39.3479L29.8632 24.43C29.9482 24.2668 30.0298 24.1209 30.1387 23.9263C30.2777 23.5758 30.3857 23.2014 30.4595 22.8204C30.4591 22.7305 30.5445 22.6571 30.6336 22.6564L35.0758 23.5163C35.1959 23.5395 35.2716 23.6081 35.272 23.698L38.1124 42.5769C38.127 42.7773 38.0587 42.854 37.8872 42.8208ZM52.5968 38.6241C52.4988 38.9465 52.4347 39.1857 52.3874 39.3383C52.3467 39.4562 52.2237 39.5402 52.1037 39.5169C52.0008 39.497 51.8087 39.4778 51.531 39.442C51.2498 39.4235 50.9206 39.3778 50.5261 39.3014C50.1316 39.2251 49.7334 39.0761 49.2875 38.9898L43.8505 37.9373C43.8151 38.4875 43.8827 39.0577 44.0838 39.5818C44.302 40.1092 44.6603 40.5559 45.1347 40.8634C45.7637 41.2906 46.4882 41.5926 47.2462 41.7213C47.8499 41.8202 48.4602 41.8845 49.0668 41.8761C49.612 41.9097 50.1533 41.8708 50.6704 41.7732C50.7696 41.7205 50.8144 41.7651 50.7808 41.9383L50.2679 44.5884C50.2544 44.6577 50.2239 44.7236 50.1933 44.7896C50.149 44.8349 50.1079 44.8629 50.0498 44.8876C49.454 45.0239 48.8545 45.0875 48.2341 45.0752C47.3978 45.0751 46.5782 44.9883 45.7583 44.8116C44.4548 44.5593 43.3974 44.139 42.5826 43.5679C41.8126 43.0415 41.1857 42.3272 40.74 41.5042C40.3219 40.7224 40.075 39.884 39.9958 39.0061C39.9133 38.1455 39.9575 37.2736 40.1251 36.4076C40.3062 35.4722 40.6211 34.5808 41.087 33.7366C41.5291 32.9237 42.1121 32.2099 42.8327 31.6127C43.5328 31.0294 44.3433 30.6113 45.2265 30.3689C46.1098 30.1266 47.0971 30.174 48.1948 30.3865C49.1071 30.5451 49.9826 30.8943 50.7493 31.438C51.3922 31.8859 51.9191 32.4731 52.282 33.1723C52.6139 33.8475 52.8467 34.5754 52.9288 35.346C53.0177 36.082 52.9831 36.812 52.8457 37.5222C52.7652 37.9379 52.6776 38.2983 52.5968 38.6241ZM47.4947 33.3597C46.5614 33.1251 45.5723 33.4548 44.9587 34.2345C44.6758 34.593 44.4753 34.9855 44.34 35.4085L47.9589 36.109C48.4049 36.1954 48.7307 36.2584 48.9399 36.281C49.0805 36.2902 49.2244 36.2821 49.3612 36.2188L49.3947 36.0456C49.4383 35.8204 49.4443 35.6059 49.4159 35.3848C49.2949 34.3551 48.5133 33.5209 47.4947 33.3597Z" fill="#FFC43D"/>
</g>
<rect x="50.9565" y="8.75635" width="19.1826" height="19.1826" stroke="#FFC43D"/>
<rect x="56.4607" y="14.2607" width="8.17389" height="8.17389" stroke="#FFC43D"/>
<rect x="56.4607" y="14.2607" width="8.17389" height="8.17389" stroke="#FFC43D"/>
<rect x="49.5391" y="7.33936" width="2.75217" height="2.75217" fill="#FFC43D"/>
<rect x="55.0435" y="12.8438" width="2.75217" height="2.75217" fill="#FFC43D"/>
<rect x="49.5391" y="26.6045" width="2.75217" height="2.75217" fill="#FFC43D"/>
<rect x="55.0435" y="21.1001" width="2.75217" height="2.75217" fill="#FFC43D"/>
<rect x="68.8042" y="7.33936" width="2.75217" height="2.75217" fill="#FFC43D"/>
<rect x="63.2998" y="12.8438" width="2.75217" height="2.75217" fill="#FFC43D"/>
<rect x="68.8042" y="26.6045" width="2.75217" height="2.75217" fill="#FFC43D"/>
<rect x="63.2998" y="21.1001" width="2.75217" height="2.75217" fill="#FFC43D"/>
<path d="M61.0064 18.3478L57.3368 5.04563L44.4934 2.29346L35.3195 7.79779L20.6412 6.8804L12.3847 13.3021L2.29346 5.96301" stroke="#FFC43D"/>
<rect x="42.7" y="0.5" width="3.58695" height="3.58695" fill="white" stroke="#FFC43D"/>
<rect x="55.5435" y="3.25195" width="3.58695" height="3.58695" fill="white" stroke="#FFC43D"/>
<rect x="59.42" y="47.7876" width="1.71233" height="3.0685" transform="rotate(-45 59.42 47.7876)" fill="white" stroke="#FFC43D"/>
<rect x="4.37678" y="49.6226" width="1.71233" height="3.0685" transform="rotate(-45 4.37678 49.6226)" fill="white" stroke="#FFC43D"/>
<rect x="6.29402" y="23.0181" width="1.71233" height="3.0685" transform="rotate(-45 6.29402 23.0181)" fill="white" stroke="#FFC43D"/>
<rect x="68.5883" y="54.5342" width="1.71233" height="3.0685" transform="rotate(135 68.5883 54.5342)" fill="white" stroke="#FFC43D"/>
<rect x="13.5451" y="56.3687" width="1.71233" height="3.0685" transform="rotate(135 13.5451 56.3687)" fill="white" stroke="#FFC43D"/>
<rect x="15.4623" y="29.7646" width="1.71233" height="3.0685" transform="rotate(135 15.4623 29.7646)" fill="white" stroke="#FFC43D"/>
<rect x="67.3777" y="46.5767" width="1.71233" height="3.0685" transform="rotate(45 67.3777 46.5767)" fill="white" stroke="#FFC43D"/>
<rect x="12.3342" y="48.4112" width="1.71233" height="3.0685" transform="rotate(45 12.3342 48.4112)" fill="white" stroke="#FFC43D"/>
<rect x="14.2517" y="21.8072" width="1.71233" height="3.0685" transform="rotate(45 14.2517 21.8072)" fill="white" stroke="#FFC43D"/>
<rect x="60.6309" y="55.745" width="1.71233" height="3.0685" transform="rotate(-135 60.6309 55.745)" fill="white" stroke="#FFC43D"/>
<rect x="5.5874" y="57.58" width="1.71233" height="3.0685" transform="rotate(-135 5.5874 57.58)" fill="white" stroke="#FFC43D"/>
<rect x="7.50488" y="30.9755" width="1.71233" height="3.0685" transform="rotate(-135 7.50488 30.9755)" fill="white" stroke="#FFC43D"/>
<rect x="33.5261" y="6.00439" width="3.58695" height="3.58695" fill="white" stroke="#FFC43D"/>
<rect x="18.8479" y="5.08691" width="3.58695" height="3.58695" fill="white" stroke="#FFC43D"/>
<rect x="10.5913" y="11.5088" width="3.58695" height="3.58695" fill="white" stroke="#FFC43D"/>
<rect x="0.5" y="4.16943" width="3.58695" height="3.58695" fill="white" stroke="#FFC43D"/>
<defs>
<clipPath id="clip0_118_202">
<rect width="41.9276" height="41.2825" fill="white" transform="translate(21.6064 10.0913) rotate(10.9554)"/>
</clipPath>
</defs>
</svg>
