<svg width="76" height="67" viewBox="0 0 76 67" fill="none" xmlns="http://www.w3.org/2000/svg">
<g clip-path="url(#clip0_118_190)">
<rect x="28" y="19" width="31" height="27" fill="white"/>
<path d="M41.7028 30.4974C41.5929 29.948 41.4981 29.4177 41.3882 28.8683C41.2782 28.3189 41.1815 27.8057 41.1018 27.2944C41.0201 26.8002 40.9516 26.3421 40.8792 25.9182L40.845 25.9143C40.6067 26.6314 40.3342 27.3446 40.0104 28.0518C39.6597 28.8426 39.305 29.6675 38.9333 30.4905C38.5938 31.3344 38.2451 32.1081 37.9062 32.7963L42.2466 33.2957C42.1856 32.9233 42.0978 32.4821 41.9953 32.0184C41.8944 31.541 41.7977 31.0278 41.7028 30.4974ZM59.5089 14.4871L33.0221 11.4396C29.0063 10.9776 25.386 13.8508 24.9239 17.8665L21.9944 43.3281C21.5324 47.3439 24.4056 50.9642 28.4213 51.4263L54.9082 54.4738C58.924 54.9358 62.5443 52.0626 63.0064 48.0468L65.9359 22.5852C66.3979 18.5695 63.5247 14.9491 59.5089 14.4871ZM47.6293 41.7412L44.0562 41.3301C43.9363 41.3336 43.8265 41.2344 43.8061 41.1108L42.8728 36.8826L36.5159 36.1512L34.7552 40.0175C34.7033 40.1674 34.5548 40.2542 34.4028 40.2211L31.1902 39.8515C31.0022 39.8299 30.9629 39.7197 31.0376 39.5223L38.3628 24.3128C38.4338 24.1478 38.5067 23.9657 38.5986 23.7685C38.7082 23.4175 38.7857 23.0455 38.8289 22.6696C38.8217 22.5822 38.8999 22.5046 38.9873 22.4973L43.4131 23.0066C43.5498 23.0223 43.6123 23.0814 43.6196 23.1688L47.8317 41.4874C47.8615 41.6796 47.8002 41.7609 47.6293 41.7412ZM53.4689 42.1534C53.4472 42.3413 53.3708 42.4191 53.217 42.4014L49.8659 42.0158C49.6951 41.9962 49.6216 41.8821 49.6411 41.7129L51.155 28.5549C51.1747 28.3841 51.2526 28.3238 51.4064 28.3415L54.7899 28.7308C54.9437 28.7484 55.0005 28.8416 54.9828 28.9953L53.4689 42.1534ZM54.8871 26.6815C54.4452 27.0462 53.8386 27.2015 53.2616 27.1005C52.6957 27.0527 52.1744 26.7676 51.8078 26.3272C51.4639 25.8548 51.3238 25.2673 51.4077 24.6882C51.4575 24.1053 51.7425 23.584 52.1961 23.238C52.6549 22.8925 53.2253 22.7504 53.7892 22.8153C54.4574 22.8921 54.943 23.1558 55.2755 23.5923C55.6042 24.0456 55.7464 24.6161 55.6644 25.178C55.6146 25.761 55.3447 26.3013 54.8871 26.6815Z" fill="#FFC43D"/>
</g>
<path d="M61.5929 11.7326L31.4943 8.27131C26.931 7.74655 22.8134 11.0446 22.284 15.6485L18.9271 44.8392C18.3977 49.4431 21.6592 53.5897 26.2225 54.1145L56.3211 57.5757C60.8845 58.1005 65.002 54.8025 65.5314 50.1986L68.8883 21.0078C69.4177 16.4039 66.1563 12.2573 61.5929 11.7326Z" stroke="#FFC43D" stroke-width="2" stroke-dasharray="4 4"/>
<rect x="22.0173" y="8.49609" width="4.58695" height="4.58695" transform="rotate(-34.4253 22.0173 8.49609)" fill="#FFC43D"/>
<rect x="59.7324" y="55.0259" width="4.58695" height="4.58695" transform="rotate(-27.0309 59.7324 55.0259)" fill="#FFC43D"/>
<path d="M1.83472 25.6871C2.17902 24.9932 25.2187 9.49655 36.6955 1.83496" stroke="#FFC43D"/>
<path d="M49.3887 62.9739C49.6793 62.5478 65.8822 54.5662 73.9473 50.6287" stroke="#FFC43D"/>
<circle cx="1.83478" cy="25.6868" r="1.83478" fill="#FFC43D"/>
<circle cx="48.7315" cy="63.0913" r="1.83478" transform="rotate(8.97859 48.7315 63.0913)" fill="#FFC43D"/>
<circle cx="36.6956" cy="1.83478" r="1.83478" fill="#FFC43D"/>
<circle cx="73.1412" cy="50.919" r="1.83478" transform="rotate(8.97859 73.1412 50.919)" fill="#FFC43D"/>
<defs>
<clipPath id="clip0_118_190">
<rect width="41.2825" height="41.2825" fill="white" transform="translate(25.8186 10.0913) rotate(6.5634)"/>
</clipPath>
</defs>
</svg>
