<?xml version="1.0" encoding="UTF-8"?>
<svg id="Layer_2" data-name="Layer 2" xmlns="http://www.w3.org/2000/svg" viewBox="0 0 1573.24 471.86">
  <defs>
    <style>
      .cls-1 {
        fill: #bc2020;
      }
    </style>
  </defs>
  <g id="a">
    <path class="cls-1" d="M1043.4,33.7L930.48,0l-54.14,49.96h-180.4v-2.16l39.34-36.31h-188.64v171.29c-.06,66.79,2.03,213.46-12.06,273.76l-3.41,15.31,13.42-8.13c1.47-.89,145.07-89.71,151.13-242.96h173.61v228.2h149.3v-186.92l-137.62-41.27h137.62V56.58l24.77-22.86v-.02ZM695.94,92.61h173.38v85.51h-173.38v-85.51h0Z"/>
    <path class="cls-1" d="M383.84,0l-54.14,49.96h-180.4V11.5H0v437.45h149.3v-228.2h173.38v228.2h149.3V56.55l7.14-6.59,17.63-16.27L383.83,0h0ZM322.68,178.12h-173.38v-85.51h173.38v85.51Z"/>
    <polygon class="cls-1" points="1242.57 406.32 1242.57 62.96 1274.71 92.61 1462.38 92.61 1494.74 122.41 1573.24 49.97 1235.56 49.97 1181.42 0 1068.5 33.7 1086.13 49.97 1093.27 56.57 1093.27 448.95 1093.26 448.96 1572.7 448.96 1526.49 406.32 1242.57 406.32"/>
  </g>
</svg>