<?xml version="1.0" encoding="utf-8"?>
<!-- Generator: Adobe Illustrator 22.1.0, SVG Export Plug-In . SVG Version: 6.00 Build 0)  -->
<svg version="1.1" id="Layer_1_copy" xmlns="http://www.w3.org/2000/svg" xmlns:xlink="http://www.w3.org/1999/xlink" x="0px"
	 y="0px" viewBox="0 0 109 34" style="enable-background:new 0 0 109 34;" xml:space="preserve">
<style type="text/css">
	.st0{fill:#E31837;}
	.st1{fill:#2F353F;}
</style>
<title>mkmLogo</title>
<g id="mkmLogo_1_">
	<path class="st0" d="M35.1,0c-6.9,4.3-15.4,14.6-17.9,26.7H15c-0.7-10-8.1-18.6-8.1-18.6h6.3c2.7,2.5,3.6,11,3.6,11
		S18.9,8.2,26.5,0H35.1z M25.9,27.6c-0.4,0.4-0.8,0.7-1.2,1.1H109v-1.1H25.9z"/>
	<path class="st1" d="M30,14.9c-0.4-2.4-1.5-4.6-3-6.4c0.5-0.6,0.9-1.1,1.4-1.7c1.2,1.4,2.2,3,2.9,4.7L30,14.9z M109,11.9v14.8h-2.5
		V15.4l-4.1,5.5l-4.1-5.5v11.4h-2.5V11.9h2.7l3.9,5.1l3.9-5.1H109z M89.1,19l-0.9-2.5c-0.3-0.9-0.5-1.5-0.8-2.3
		c-0.2,0.7-0.4,1.4-0.7,2.3L85.8,19H89.1z M86,11.9h2.9l5.7,14.9h-2.7l-2-5.5h-4.8L83,26.8h-2.7L86,11.9z M79.2,11.9v14.9h-2.5v-7.1
		h-6.8v7.1h-2.5V11.9h2.5v5.5h6.8v-5.5H79.2z M54.8,11.9h2.5v6.2l5.8-6.2h3.2l-6.4,6.7l6.4,8.2h-3.2L57.3,19v7.7h-2.5V11.9
		L54.8,11.9z M44.2,17.8h2.1c1.8,0,2.6-0.6,2.6-1.9S48.1,14,46.3,14h-2L44.2,17.8L44.2,17.8z M41.7,11.9h5c3.2,0,4.9,1.3,4.9,3.8
		c0.1,1.8-1.2,3.3-3,3.5c1.1,0.5,1.5,0.9,2.2,2.5c0.8,1.8,1.7,3.6,3,5.2h-3.2c-0.5-0.9-1-1.8-1.3-2.8l-0.5-1.2
		c-0.9-2.3-1.6-2.8-3.8-2.8h-0.7v6.8h-2.5v-15H41.7z M35.1,19l-0.9-2.5c-0.3-0.9-0.5-1.5-0.8-2.3c-0.2,0.7-0.4,1.4-0.7,2.3L31.8,19
		H35.1z M32,11.9h2.9l5.7,14.9h-2.7l-2-5.5h-4.8L29,26.8h-2.7L32,11.9z M22.4,15.3v11.4h3.1V10.4C24.3,12,23.3,13.6,22.4,15.3z
		 M6.8,9.4v17.3H10V14.3l-0.1-0.2C9,12.4,8,10.9,6.8,9.4z M16.2,31.5c-7.7,0-14-6.4-13.9-14.1s6.4-14,14.1-13.9
		c1.9,0,3.8,0.4,5.5,1.2c0.4-0.6,0.8-1.2,1.2-1.8C15-1,5.4,2.4,1.5,10.5S1.1,28.3,9.2,32.1c6.3,3,13.9,1.6,18.7-3.5h-3.2
		C22.2,30.5,19.3,31.5,16.2,31.5z"/>
</g>
</svg>
