<svg width="1636" height="1636" viewBox="0 0 1636 1636" fill="none" xmlns="http://www.w3.org/2000/svg">
<path d="M369.966 658.563C369.366 658.563 368.766 658.763 368.166 658.763C369.966 658.563 371.366 658.263 373.166 657.963C372.066 658.163 370.966 658.363 369.966 658.463V658.563ZM800.066 468.963C800.666 469.163 801.366 469.363 802.066 469.563C801.366 469.363 800.766 469.163 800.066 468.963ZM825.966 760.463C825.966 760.863 825.966 761.263 826.066 761.663C826.066 761.163 826.066 760.763 825.966 760.463ZM964.366 522.963C964.366 522.963 964.365 522.963 964.266 523.063C964.466 522.963 964.666 522.763 964.766 522.663L964.366 522.963ZM964.866 522.563C965.166 522.463 965.366 522.263 965.566 522.063C965.366 522.163 965.166 522.363 964.966 522.563H964.866ZM997.166 515.263C997.466 514.963 997.766 514.763 997.966 514.463C997.666 514.763 997.466 514.963 997.166 515.263ZM1115.57 566.063C1115.57 566.063 1115.67 566.063 1115.77 566.063C1115.77 566.063 1115.67 566.063 1115.57 566.063ZM1175.77 1156.16L1174.77 1155.96C1175.37 1156.06 1175.77 1156.16 1176.37 1156.26C1176.17 1156.26 1175.97 1156.26 1175.77 1156.16ZM866.166 1089.86C866.166 1089.86 866.166 1089.86 866.066 1089.86C866.066 1089.86 866.266 1089.86 866.366 1089.86H866.266H866.166ZM834.066 835.563C834.066 835.763 834.266 835.963 834.366 836.063C834.266 835.863 834.166 835.763 834.066 835.563ZM673.366 1030.86C673.366 1031.06 673.466 1031.36 673.566 1031.56L673.366 1030.86Z" fill="black"/>
<path d="M655.966 619.663C658.166 619.163 660.966 618.363 663.966 617.463C641.766 653.963 617.966 703.263 602.766 740.263C600.266 746.763 591.566 749.463 585.966 745.263C537.966 711.163 508.866 678.663 494.666 660.563C492.366 657.363 490.866 652.563 492.566 648.863C530.166 649.063 559.366 644.863 586.466 641.463C604.466 641.063 625.066 633.863 640.266 624.563C645.466 622.763 650.266 620.963 656.066 619.663H655.966Z" fill="black"/>
<path d="M684.266 515.863C684.166 515.663 684.066 515.363 683.966 515.063C683.966 515.363 684.166 515.663 684.266 515.863Z" fill="black"/>
<path d="M684.666 516.663C684.466 516.463 684.266 516.263 684.166 515.863C684.266 516.163 684.466 516.363 684.666 516.663Z" fill="black"/>
<path d="M820.565 394.763C815.265 401.463 816.065 409.563 813.065 416.763C803.865 429.263 800.365 440.863 805.665 454.963C790.165 449.363 773.365 451.663 757.765 454.763C743.865 455.363 722.865 460.963 709.565 464.663C698.965 468.463 686.865 468.363 678.265 476.863C669.865 488.163 668.865 500.263 668.565 513.363C650.165 522.063 629.865 526.963 610.665 535.663C604.065 539.063 589.865 540.963 581.865 541.563C571.465 542.963 555.565 545.863 544.565 549.063C617.865 441.763 741.065 331.463 868.665 341.463C860.665 345.263 854.765 353.463 851.065 361.063C840.265 365.963 836.965 364.063 828.065 368.763C819.365 372.863 815.065 384.463 820.465 394.663L820.565 394.763Z" fill="black"/>
<path d="M820.666 432.863C820.266 433.463 819.966 433.963 819.666 434.563C819.966 433.863 820.266 433.463 820.666 432.863Z" fill="black"/>
<path d="M657.165 1026.56C657.165 1027.06 657.365 1027.66 657.465 1028.26C533.965 1006.86 430.365 920.463 372.465 814.163C366.965 783.363 380.465 730.763 398.165 667.163C408.465 664.263 421.865 658.763 431.065 654.163C480.165 736.063 553.165 799.063 635.865 830.363C631.565 853.263 630.165 872.163 629.665 896.463C629.665 908.163 629.165 916.663 631.465 926.963C634.865 934.263 638.065 945.763 642.865 952.963C648.765 959.663 646.665 966.363 649.165 973.863C654.965 989.463 653.365 1010.06 657.165 1026.56Z" fill="black"/>
<path d="M854.865 905.663C854.765 904.863 854.565 904.763 854.865 904.263C858.465 896.363 858.465 888.663 858.965 880.063C873.365 903.263 885.365 929.463 894.665 957.463C894.665 957.463 894.465 957.563 894.465 957.663C888.465 951.663 885.265 943.063 879.165 937.263C876.065 933.263 871.865 931.163 868.765 927.363C865.065 920.863 857.165 912.863 854.965 905.663H854.865Z" fill="black"/>
<path d="M673.565 1031.56C673.565 1031.36 673.465 1031.06 673.365 1030.86L673.565 1031.56Z" fill="black"/>
<path d="M559.066 457.063C530.466 489.863 504.766 526.663 482.566 566.863C479.266 567.663 478.166 567.763 478.166 567.763C471.766 567.563 466.066 571.663 459.266 571.963C453.066 572.563 450.166 572.063 444.066 574.763C442.666 575.063 441.766 575.063 440.166 575.363C431.966 559.863 571.766 401.063 559.066 456.963V457.063Z" fill="black"/>
<path d="M1036.07 570.363C1023.97 567.663 1008.67 563.163 997.465 559.163C989.765 557.563 990.765 550.363 985.965 545.763C995.265 539.463 1003.17 530.063 1011.97 521.663C1018.57 529.063 1022.37 541.763 1028.17 550.863C1031.37 556.563 1034.77 564.763 1036.07 570.363Z" fill="black"/>
<path d="M826.066 761.763C826.066 761.263 826.066 760.863 825.966 760.563C825.966 760.963 825.966 761.363 826.066 761.763Z" fill="black"/>
<path d="M964.766 522.663C964.566 522.763 964.466 522.963 964.266 523.063C964.366 523.063 964.666 522.763 964.766 522.663Z" fill="black"/>
<path d="M978.165 562.263C978.165 562.063 978.065 561.863 977.965 561.663C977.965 561.863 978.065 562.063 978.165 562.263Z" fill="black"/>
<path d="M997.966 514.463C997.666 514.763 997.466 514.963 997.166 515.263C997.466 514.963 997.766 514.663 997.966 514.463Z" fill="black"/>
<path d="M1011.47 501.763C1011.17 501.963 1010.87 502.263 1010.47 502.563C1010.77 502.263 1011.17 501.963 1011.47 501.763Z" fill="black"/>
<path d="M1224.87 539.663C1222.07 545.863 1215.07 545.363 1209.27 545.163C1179.07 545.163 1153.57 548.163 1125.37 553.463C1119.77 545.463 1112.67 535.163 1107.97 528.863C1102.27 522.863 1095.77 515.963 1090.57 508.463C1085.37 502.063 1082.87 496.563 1079.57 490.463C1073.77 484.163 1067.47 473.263 1062.27 467.463C1061.27 466.263 1059.67 463.563 1059.27 462.363C1057.97 458.863 1053.27 449.963 1052.07 445.863C1051.27 433.663 1052.97 430.163 1045.67 417.563C1068.07 417.363 1084.47 412.063 1099.67 416.663C1122.77 430.963 1179.37 476.163 1223.67 529.063C1226.17 531.963 1226.57 536.063 1224.97 539.563L1224.87 539.663Z" fill="black"/>
<path d="M1280.17 612.263C1277.17 607.463 1273.47 595.963 1267.17 591.763C1259.77 588.163 1250.97 590.463 1242.87 589.863C1239.07 589.863 1235.67 591.963 1233.97 595.263C1232.27 598.563 1232.47 602.563 1234.57 605.663C1266.87 654.263 1291.87 704.963 1309.17 756.463C1311.47 761.363 1323.07 759.263 1322.97 752.363C1316.17 704.663 1301.87 657.563 1280.27 612.163L1280.17 612.263Z" fill="black"/>
<path d="M796.866 1267.86C754.666 1267.86 713.266 1263.86 673.566 1255.86C669.766 1255.06 665.966 1257.26 664.766 1261.06C660.466 1282.36 812.866 1309.46 833.066 1301.96C840.066 1297.16 841.366 1290.16 846.966 1281.96C848.866 1278.76 848.766 1274.66 846.766 1271.56C844.766 1268.36 841.166 1266.56 837.466 1266.76C823.766 1267.56 810.066 1267.96 796.766 1267.96L796.866 1267.86Z" fill="black"/>
<path d="M1103.67 657.263C1103.17 657.263 1102.77 657.363 1102.37 657.363C1102.77 657.363 1103.27 657.363 1103.67 657.263Z" fill="black"/>
<path d="M1176.37 1156.26C1175.87 1156.16 1175.37 1156.06 1174.77 1155.96C1175.17 1155.96 1175.97 1156.16 1176.37 1156.26Z" fill="black"/>
<path d="M1282.07 1016.86C1278.37 1028.46 1274.57 1038.46 1270.37 1047.56C1256.47 1033.36 1243.17 1034.26 1224.97 1034.76C1220.97 1038.26 1209.87 1048.56 1205.97 1051.36C1201.17 1053.26 1198.37 1055.76 1194.87 1059.36C1191.97 1062.46 1187.57 1063.96 1185.07 1067.56C1203.77 930.563 1142.27 783.663 1054.27 666.963C1063.47 667.163 1071.87 666.963 1077.57 668.063C1085.07 669.763 1093.67 672.263 1101.17 672.563C1121.87 669.963 1151.07 665.263 1158.27 642.463C1160.57 636.263 1160.87 627.263 1156.57 619.463C1154.27 612.463 1151.77 604.663 1147.57 597.963C1157.17 596.763 1164.17 592.963 1172.47 596.863C1259.07 697.763 1322.17 891.963 1282.07 1016.96V1016.86Z" fill="black"/>
<path d="M917.766 876.863C907.266 855.163 888.466 837.463 876.166 816.663C887.566 771.563 942.766 692.563 990.666 666.963C993.466 667.063 996.266 668.263 998.066 670.463C1054.67 735.663 1099.87 814.363 1122.77 892.563C1088.57 863.763 1052.97 874.863 998.066 873.363C989.566 873.163 989.166 873.963 983.366 872.063C962.466 865.663 937.766 867.463 917.666 876.963L917.766 876.863Z" fill="black"/>
<path d="M1339.47 1221.66C1338.77 1208.76 1337.07 1195.36 1329.67 1184.46C1325.67 1177.46 1321.77 1164.36 1317.17 1156.56C1305.37 1136.36 1294.17 1132.56 1287.07 1105.26C1281.67 1089.76 1275.77 1073.66 1263.37 1062.36C1256.17 1055.66 1249.37 1049.46 1239.37 1050.66H1230.77L1222.07 1058.46C1217.27 1062.66 1212.57 1066.26 1211.57 1066.26C1208.77 1066.56 1202.27 1074.76 1199.47 1075.76C1195.77 1076.46 1192.87 1086.06 1191.27 1092.06C1163.77 1088.36 1119.27 1075.86 1098.07 1063.96C1097.17 1062.86 1088.07 1058.96 1081.37 1056.86C1072.87 1053.86 1063.77 1050.56 1056.97 1044.66C1033.37 1031.26 1031.57 1031.76 997.566 1032.46C965.966 1033.36 967.966 1032.46 948.166 1028.36C932.966 1025.76 947.966 1021.16 953.766 1016.66C961.066 1012.86 969.266 1008.56 975.466 1001.96C983.166 1001.46 1002.37 1002.26 1004.67 998.163C1011.87 991.963 1009.77 983.163 1021.87 978.963C1024.67 977.263 1030.87 977.963 1032.37 974.863C1032.37 974.163 1033.07 973.863 1033.77 973.863C1034.57 973.863 1036.97 972.063 1039.17 969.863C1045.37 963.263 1059.47 954.863 1069.17 951.663C1077.47 949.463 1113.27 947.163 1113.87 941.763C1122.27 934.663 1123.67 924.463 1118.67 914.063C1112.87 901.163 1103.87 895.463 1082.17 890.663C1073.17 888.663 1064.07 888.563 998.466 889.463C987.066 889.563 983.966 889.263 978.066 887.063C969.266 884.463 959.466 884.263 950.366 884.563C938.666 885.463 924.166 889.763 915.866 897.263C907.866 907.763 912.666 915.563 913.166 929.763C913.766 936.463 914.366 942.463 914.766 943.263C911.266 954.363 908.566 947.563 910.966 964.463C895.066 981.063 884.766 975.163 873.666 955.363C869.966 949.963 864.766 944.663 859.766 941.363C855.666 936.563 851.966 930.063 847.866 924.863C832.166 903.863 844.866 900.963 843.966 881.063C845.066 873.363 841.866 871.463 838.666 865.563C837.666 857.563 838.766 843.063 834.466 837.163C833.666 835.863 832.966 834.463 832.866 833.063C831.866 830.263 830.066 827.563 828.366 824.663C822.666 815.763 819.166 809.463 825.366 807.763C829.566 806.763 828.866 802.163 828.966 797.663C829.466 790.163 827.566 786.663 823.466 781.163C811.866 764.063 825.566 773.763 826.066 767.663C828.166 756.963 818.666 752.663 813.766 744.863C812.566 741.163 816.966 737.663 820.266 735.663C834.066 728.863 841.066 723.163 849.666 717.963C856.366 714.663 863.966 708.563 870.966 704.363C879.866 698.363 894.766 691.163 900.866 685.863C902.966 683.963 905.566 679.263 906.666 675.563C908.466 672.663 911.466 669.863 913.966 667.163C911.966 669.163 910.066 671.263 908.066 673.263C912.866 668.163 921.066 659.263 926.066 656.763C931.066 655.363 935.166 651.463 937.966 647.063C947.066 647.363 980.966 648.263 983.966 649.663C988.066 654.963 1069.87 650.963 1082.17 654.763C1085.77 655.763 1088.47 656.363 1089.07 655.863C1098.97 659.163 1104.77 659.063 1115.17 656.063C1126.57 652.563 1141.07 650.763 1144.37 637.763C1146.37 630.663 1142.97 628.163 1140.87 620.663C1136.97 606.663 1122.87 590.763 1120.37 579.363C1120.37 576.463 1116.87 567.263 1115.77 567.263C1115.27 567.263 1114.77 566.763 1114.77 566.263C1112.67 561.563 1100.57 545.863 1098.17 541.963C1090.77 534.063 1068.97 508.263 1067.97 501.663C1065.97 498.163 1063.27 496.363 1059.37 490.063C1052.57 479.863 1047.17 475.063 1043.27 464.663C1035.27 449.863 1037.87 447.663 1035.87 432.463C1026.67 421.763 1031.27 402.163 1031.17 387.163C1025.67 382.163 1019.07 376.963 1018.97 369.963C1018.17 364.263 1014.17 360.063 1010.47 355.763C1003.47 348.763 998.966 351.463 993.866 361.763C988.666 369.963 990.966 372.463 984.366 366.463C973.366 355.963 929.566 329.163 910.966 333.463C906.666 334.763 903.166 338.463 903.066 341.863C902.966 345.863 898.866 349.763 895.066 350.463C886.166 351.863 876.566 355.163 872.666 358.163C867.866 361.363 864.166 371.863 860.766 374.763C849.266 380.963 842.966 379.263 834.066 384.463C832.166 386.063 833.766 387.763 834.266 389.563C837.866 399.263 838.366 398.063 832.466 405.563C828.166 412.663 831.366 418.663 825.866 426.263C821.166 432.863 816.566 440.363 819.066 448.763C820.466 454.263 825.966 458.963 831.266 461.963C835.466 464.063 839.366 473.163 837.166 475.863C833.266 481.263 804.266 471.463 792.366 468.463C780.266 466.463 765.466 470.763 754.566 471.663C737.066 473.463 719.466 479.563 701.766 483.963C695.266 485.563 690.866 487.163 689.466 488.663C685.066 495.163 683.166 508.163 683.866 515.963C684.966 518.863 686.266 520.663 682.766 523.563C671.866 531.963 656.966 535.663 644.566 540.663C626.066 546.163 604.466 558.163 583.866 558.063C551.866 561.563 503.866 580.963 478.466 584.263C475.966 584.263 475.166 585.063 473.466 585.863C469.966 587.063 460.866 588.663 456.666 588.663C451.866 588.563 449.566 590.963 445.066 591.363C431.666 592.363 411.166 600.063 398.966 600.963C377.466 596.563 357.066 586.363 335.766 587.263C327.966 588.163 324.066 596.563 331.166 603.363L335.066 608.063C326.166 611.763 319.966 615.363 310.766 619.763C303.366 623.363 300.966 626.263 297.966 634.963C293.566 645.263 296.966 651.963 304.066 655.763C306.966 655.763 310.466 655.863 313.566 655.863C331.466 655.063 321.766 669.463 353.866 662.763C371.766 659.863 386.766 657.363 404.366 650.963C417.866 646.463 427.866 638.363 442.066 638.663C461.266 637.263 478.266 634.963 497.566 635.163C536.666 635.363 559.066 630.663 586.766 627.863C602.866 628.163 623.766 618.463 636.466 611.563C647.366 607.363 661.766 604.763 674.866 599.463C683.166 596.263 690.366 593.963 696.066 593.363C696.266 600.963 695.766 604.063 691.466 614.363C687.366 624.063 686.866 625.763 687.466 631.663C688.566 638.963 684.666 647.163 683.266 653.463C681.566 664.463 677.766 693.963 675.566 708.263C672.566 713.563 665.666 736.763 659.966 755.963C657.066 761.263 657.166 779.463 656.666 792.863C656.066 826.863 655.166 817.963 650.466 837.163C646.066 861.163 644.666 888.463 645.166 912.563C645.466 917.063 645.166 921.463 646.666 925.563C649.666 930.263 650.466 936.263 653.066 941.263C656.366 948.563 662.366 954.163 662.666 962.463C664.366 977.463 669.166 985.963 669.466 1002.36C670.866 1024.06 673.366 1034.76 680.166 1052.86C682.066 1057.36 682.366 1061.66 683.766 1065.96C685.766 1071.76 686.566 1073.66 687.966 1081.26C689.766 1092.36 691.666 1099.56 694.466 1108.26C702.566 1135.46 710.066 1155.66 730.766 1170.86C742.266 1175.16 757.066 1172.86 769.066 1170.26C773.666 1168.66 779.966 1162.76 784.066 1160.16C791.966 1156.06 798.766 1149.96 805.166 1143.76C811.766 1137.26 819.466 1131.46 825.866 1125.06C826.666 1123.46 838.666 1113.96 842.766 1108.56C843.566 1107.56 843.166 1105.96 844.466 1105.96C848.266 1103.66 851.666 1099.86 855.666 1097.36C872.566 1082.76 881.666 1100.56 896.166 1108.86C905.966 1113.06 916.766 1113.16 927.266 1114.86C950.266 1117.86 960.466 1121.96 981.366 1121.46C1002.17 1120.86 1027.67 1127.66 1049.87 1132.06C1077.97 1137.06 1098.67 1140.76 1106.17 1142.16C1116.27 1144.06 1135.27 1145.36 1143.87 1149.16C1148.27 1150.46 1152.97 1150.86 1157.37 1152.06C1163.57 1154.26 1169.67 1156.36 1176.17 1157.66C1181.17 1158.96 1190.57 1162.26 1185.37 1164.86C1183.47 1167.46 1183.77 1171.86 1185.57 1174.46C1194.77 1186.86 1201.37 1177.26 1207.77 1185.66C1215.87 1196.16 1230.77 1178.16 1250.87 1199.96C1257.27 1207.36 1269.07 1212.76 1275.67 1220.26C1278.87 1223.96 1280.87 1227.56 1283.27 1232.36C1288.37 1240.86 1296.27 1249.16 1304.77 1254.46C1309.17 1256.26 1318.27 1257.56 1323.47 1254.96C1326.07 1252.96 1334.77 1247.66 1335.57 1246.46C1340.87 1238.56 1340.47 1232.76 1339.77 1222.26L1339.47 1221.66ZM940.166 531.563L941.766 533.863C949.066 529.463 959.166 527.263 966.666 522.663C968.366 523.163 966.866 530.563 970.166 533.163C974.166 545.663 1002.97 507.463 1013.37 501.463C1016.67 502.263 1020.97 508.263 1022.17 511.163C1022.17 512.163 1023.47 512.663 1024.37 513.263C1025.27 514.063 1026.57 516.263 1027.47 517.763C1032.17 526.563 1036.57 535.963 1041.37 544.763C1050.37 560.363 1049.77 573.163 1060.47 586.163C1061.87 589.663 1057.17 590.563 1053.67 588.963C1051.37 588.163 1044.77 587.163 1038.97 586.763C1033.87 586.263 1030.27 586.163 1027.17 584.963C1025.37 583.263 1020.17 583.363 1017.77 582.463C961.066 566.063 992.766 570.763 965.266 547.563C960.666 546.063 954.966 543.563 950.766 542.563C949.666 542.563 948.766 542.163 948.766 541.463C948.966 540.663 946.366 539.763 945.066 539.363C941.766 537.463 938.266 534.163 936.666 531.063C935.866 528.563 938.266 528.763 940.266 531.563H940.166Z" fill="black"/>
<path d="M1057.47 1044.26C1057.47 1044.26 1057.47 1044.26 1057.37 1044.16C1057.37 1044.16 1057.37 1044.16 1057.47 1044.26Z" fill="black"/>
<path d="M1064.17 1048.56C1063.47 1048.16 1062.87 1047.86 1062.27 1047.46C1062.87 1047.76 1063.57 1048.16 1064.17 1048.56Z" fill="black"/>
<path d="M963.765 1119.16C962.465 1119.06 961.265 1118.96 960.065 1118.76C961.265 1118.86 962.465 1119.06 963.765 1119.16Z" fill="black"/>
<path d="M1115.37 1157.16C1102.67 1184.16 1088.27 1223.16 1072.67 1240.96C1048.77 1253.76 981.266 1280.26 913.366 1292.16C909.566 1292.86 905.866 1291.16 903.666 1288.06C901.466 1284.86 901.366 1280.76 903.366 1277.46C929.466 1234.36 948.966 1181.16 957.666 1133.56C969.866 1135.36 988.166 1134.06 1001.67 1136.16C1036.27 1142.56 1090.77 1153.86 1115.37 1157.16Z" fill="black"/>
<path d="M1139.77 1063.26C1129.57 1059.86 1115.97 1055.86 1107.87 1051.66C1104.07 1048.56 1101.87 1047.96 1097.67 1045.96C1088.47 1041.96 1077.57 1039.36 1068.67 1033.86C1064.77 1030.86 1062.37 1028.46 1057.87 1026.56C1032.97 1012.66 1009.27 1016.36 980.266 1016.66L981.366 1015.66L988.566 1015.46C1005.67 1016.16 1018.67 1010.26 1024.47 993.763C1027.47 990.563 1032.57 991.463 1035.97 989.463C1040.77 987.063 1045.97 983.163 1049.97 979.163C1078.57 949.863 1117.07 976.363 1134.17 937.363C1142.97 979.763 1144.97 1022.16 1139.77 1063.26Z" fill="black"/>
<path d="M732.066 1170.06C731.966 1170.06 731.866 1169.96 731.666 1169.86C732.066 1170.06 732.466 1170.16 732.966 1170.36C732.566 1170.36 732.266 1170.16 731.966 1170.06H732.066Z" fill="black"/>
<path d="M740.465 1171.26C739.565 1171.26 738.665 1171.26 737.865 1171.06C738.665 1171.06 739.565 1171.16 740.465 1171.26Z" fill="black"/>
<path d="M893.466 1122.46C896.866 1123.66 900.866 1124.56 905.766 1125.36C898.166 1161.96 888.866 1211.06 874.566 1218.26C708.766 1241.36 473.566 1186.86 409.366 1022.26C404.066 1009.76 357.566 903.963 394.466 926.063C465.266 1008.56 559.466 1058.96 671.766 1077.16C677.766 1111.06 696.666 1184.76 739.066 1186.16C759.566 1186.66 775.366 1185.76 791.266 1171.36C798.566 1167.56 806.966 1160.96 813.066 1154.76C825.266 1143.26 831.366 1138.76 841.966 1128.16C851.266 1120.66 856.966 1111.16 868.066 1105.26C876.866 1110.16 882.866 1119.06 893.466 1122.36V1122.46Z" fill="black"/>
</svg>
