<?xml version="1.0" encoding="UTF-8"?>
<svg id="Layer_1" data-name="Layer 1" xmlns="http://www.w3.org/2000/svg" viewBox="0 0 741.33 381.85">
  <defs>
    <style>
      .cls-1 {
        fill: #fff;
      }
    </style>
  </defs>
  <path d="M452.03,19.92c-13.08,3.62-21.96,17.46-24.86,30.22-8.31,36.52,13.8,83.79,32.2,114.73l16.41,25.7c-19.65-16.13-39.58-32.12-58.32-49.31-23.65-21.69-71.85-67.72-78.15-98.97-9.28-46.05,66.86-32.73,91.86-27.78,5.69,1.13,13.7,2.35,18.99,4.05.8.26,1.74.24,1.87,1.36Z"/>
  <path d="M355.08,132.72c17,17.09,34.92,35.36,46.67,56.65,28.7,52.01-18.91,56.1-57.99,51.51-15.44-1.81-30.54-5.89-45.81-8.56l10.02-6.17c36.92-29.08,3.22-105.07-16.38-136.86l-17.4-27.6c28.32,21.99,55.64,45.65,80.89,71.03Z"/>
  <path d="M376.19,298.12c48.78-.35,50.1,69.06,3.5,72.47-52.08,3.82-55.31-72.1-3.5-72.47ZM372.65,310.28c-29.81,4.04-24.23,50.01,4.1,48.78,33.39-1.45,29.44-53.33-4.1-48.78Z"/>
  <path d="M269.87,343.21v-43.2h12.96v71.28l-50.4-44.16v42h-12.6s-.71-51.49-.36-70.56l50.4,44.64Z"/>
  <path d="M736.43,369.13h-14.04l-6.2-12.88-31.12.03-6.24,12.84h-14.4l35.29-72,36.71,72ZM710.51,345.37l-10.44-21.61-9.72,21.61h20.16Z"/>
  <polygon points="159.71 300.01 159.71 311.53 131.63 311.53 131.63 326.67 154.67 326.65 154.67 338.17 131.63 338.17 131.63 356.89 162.59 356.89 162.59 369.13 118.67 369.13 118.67 300.01 159.71 300.01"/>
  <path d="M19.32,351.13c5.55,5.85,23.35,12.23,27.97,3.15,6.11-11.99-16.13-17.38-22.89-23.01-5.77-4.81-8.08-11.1-6.34-18.46,4.13-17.46,31.57-19.12,41.46-6.09l-6.02,9.12c-4.37-6.22-22.99-9.51-22.47.98.33,6.71,14.76,10.97,20.04,14.42,16.73,10.92,13.96,33.31-5.85,38.26-11.92,2.98-22.9-.67-32.1-8.27l6.19-10.1Z"/>
  <polygon points="469.31 300.01 489.82 344.65 509.27 300.01 523.31 300.01 489.11 372.74 454.19 300.01 469.31 300.01"/>
  <polygon points="577.31 300.01 596.75 345.37 617.27 300.01 631.31 300.01 597.11 372.74 562.19 300.01 577.31 300.01"/>
  <path class="cls-1" d="M372.65,310.28c33.54-4.54,37.5,47.34,4.1,48.78-28.34,1.23-33.91-44.74-4.1-48.78Z"/>
  <polygon class="cls-1" points="710.51 345.37 690.35 345.37 700.07 323.76 710.51 345.37"/>
</svg>