<?xml version="1.0" encoding="UTF-8"?>
<svg xmlns="http://www.w3.org/2000/svg" viewBox="0 0 1963 675">
  <defs>
    <style>
      .cls-1 {
        fill: #b7292d;
      }
    </style>
  </defs>
  <g id="Layer_5" data-name="Layer 5">
    <polygon points="1603.66 296.52 1614.44 256.88 1720.04 256.88 1816.8 256.88 1839.08 174.94 1742.32 174.94 1636.72 174.94 1539.97 174.94 1517.69 256.88 1506.91 296.52 1484.63 378.48 1473.85 418.12 1451.57 500.07 1548.33 500.07 1653.93 500.07 1750.69 500.07 1772.96 418.12 1783.74 378.48 1806.02 296.52 1764.6 296.52 1709.26 296.52 1659 296.52 1636.72 378.48 1686.99 378.48 1676.21 418.12 1570.61 418.12 1581.39 378.48 1603.66 296.52"/>
  </g>
  <g id="Layer_3" data-name="Layer 3">
    <polygon points="1361.7 174.94 1331.96 290.44 1261.94 352.06 1225.15 293.97 1256.7 174.94 1158.89 174.94 1116.51 332.25 1176.08 427.61 1185.65 442.93 1222.69 500.07 1293.75 438.88 1308.73 425.97 1417.66 332.16 1458.95 178.7 1459.96 174.94 1361.7 174.94"/>
  </g>
  <g id="Layer_4" data-name="Layer 4">
    <polygon points="968.25 256.89 1066.69 256.89 1088.42 174.93 989.97 174.93 887.64 174.93 789.2 174.93 767.47 256.89 757.03 296.26 735.31 378.21 833.75 378.21 936.08 378.21 925.65 417.58 823.32 417.58 724.87 417.58 703.14 499.53 801.59 499.53 903.92 499.53 1002.37 499.53 1024.09 417.58 1034.53 378.21 1056.26 296.26 957.81 296.26 855.48 296.26 865.92 256.89 968.25 256.89"/>
  </g>
  <g id="Layer_7" data-name="Layer 7">
    <path class="cls-1" d="M516.15,313.65h-185.18l60.53-60.53,40.2,40.19h64.12l-86.09-86.09c-10.07-10.07-26.38-10.07-36.45,0l-112.05,112.05c-10.07,10.06-10.07,26.38,0,36.45l4.14,4.14h188.16l-62.02,62.02-41.69-41.69h-64.12l87.58,87.58c10.07,10.07,26.38,10.07,36.45,0l107.92-107.92,22.36-22.36-23.86-23.86Z"/>
  </g>
  <g id="Layer_6" data-name="Layer 6">
    <path d="M649.42,314.19l-.55-.55h-132.72l23.85,23.86-22.36,22.36h65.95l-192.09,192.09-214.45-214.45,214.45-214.46,154.31,154.31h66.77l-197.77-197.77c-12.87-12.87-33.74-12.87-46.61,0l-234.62,234.61c-12.87,12.87-12.87,33.74,0,46.61l234.62,234.61c12.87,12.87,33.74,12.87,46.61,0l234.61-234.61c12.87-12.87,12.87-33.74,0-46.61"/>
  </g>
</svg>