<?xml version="1.0" encoding="UTF-8"?>
<svg id="Border" xmlns="http://www.w3.org/2000/svg" viewBox="0 0 1041.67 974.11">
  <defs>
    <style>
      .cls-1 {
        font-family: Harabara-Bold, Harabara;
        font-size: 250px;
        font-weight: 700;
      }

      .cls-2, .cls-3 {
        fill: none;
      }

      .cls-2, .cls-3, .cls-4, .cls-5, .cls-6 {
        stroke: #000;
      }

      .cls-2, .cls-3, .cls-5 {
        stroke-width: 8px;
      }

      .cls-2, .cls-3, .cls-5, .cls-6 {
        stroke-miterlimit: 10;
      }

      .cls-3 {
        stroke-linecap: round;
      }

      .cls-4, .cls-5, .cls-6 {
        fill: #fff;
      }

      .cls-4, .cls-6 {
        stroke-width: 4.59px;
      }
    </style>
  </defs>
  <g>
    <path class="cls-2" d="M581.45,275.82l20.52,12.5v47.32l-66.51-193.98v-32.49l-22.17,7.88-22.17-9.61v35.25l-66.51,192.97v-47.32l20.1-10.98"/>
    <path class="cls-2" d="M513.88,234.67V19.66l38.37,34.1v35.24l-38.37-34.24"/>
    <path class="cls-5" d="M491.12,300.85v-50.98l22.17-14.32,22.17,14.32v50.98"/>
    <path class="cls-5" d="M380.26,664.64v-195.33c27.31-16.18,90.74-54.38,132.92-79.37,37.72,20.37,84.6,50.84,133.13,77.05v202.03"/>
    <path class="cls-2" d="M380.26,468.89v-53.27l22.17-38.46,22.17,13.41"/>
    <path class="cls-2" d="M646.51,468.89v-53.27s-22.17-38.46-22.17-38.46l-22.17,13.41"/>
    <path class="cls-5" d="M424.6,683.05v-188.1l88.68-52.68,88.68,52.68v188.1"/>
    <path class="cls-5" d="M513.29,289.03v99.65c0,.07.02.15.05.21.04.06.09.12.15.16l87.83,52.71c.07.04.14.06.21.06.08,0,.15-.02.21-.06.07-.04.12-.09.16-.16s.06-.14.06-.22v-105.5c0-.08-.02-.15-.06-.22-.04-.07-.1-.12-.16-.16l-87.83-46.88c-.06-.03-.14-.05-.21-.05-.08,0-.15.02-.21.06-.06.04-.12.1-.15.16s-.05.14-.05.21Z"/>
    <path class="cls-5" d="M532.38,321.44v57.28l50.49,30.31v-60.64l-50.49-26.95Z"/>
    <path class="cls-6" d="M555.97,357.43v11.74c0,.67.54,1.22,1.21,1.22h1.18c.67,0,1.21-.54,1.21-1.22v-11.74c0-.67-.54-1.21-1.21-1.21h-1.18c-.67,0-1.21.54-1.21,1.21Z"/>
    <path class="cls-4" d="M559.65,368.6l3.32,2.42,4.12,3c.39.4.1,1.6-.38,2.07-.19.22-.46.37-.76.39s-.59-.06-.82-.25l-8.74-6.19c-.4-.4,1.53-1.8,2.01-2.28l.39-.03c.48-.48.47.47.86.86Z"/>
    <path class="cls-5" d="M513.29,288.7v100.1s-.01.08-.03.11c-.02.03-.05.06-.08.08l-88.21,52.95s-.08.03-.12.03c-.04,0-.08-.01-.12-.03-.04-.02-.07-.05-.09-.08-.02-.04-.03-.08-.03-.12v-105.95s.01-.08.03-.12c.02-.04.05-.07.09-.09l88.21-47.08s.07-.03.11-.03c.04,0,.08.01.11.03.03.02.06.05.08.08.02.03.03.07.03.11Z"/>
    <path class="cls-5" d="M494.19,321.44v57.28l-50.49,30.31v-60.64l50.49-26.95Z"/>
    <path class="cls-6" d="M464.23,357.43v11.74c0,.67.54,1.22,1.21,1.22h1.18c.67,0,1.21-.54,1.21-1.22v-11.74c0-.67-.54-1.22-1.21-1.22h-1.18c-.67,0-1.21.54-1.21,1.22Z"/>
    <path class="cls-4" d="M465.73,368.03l9.8-.86c.3,0,.58.12.79.33.21.21.33.49.33.79l.1,1.18c.05.29-.02.59-.19.84-.17.24-.43.41-.72.46l-9.8.86c-.56.05-1.64-1.26-1.7-1.93l.47-.36c-.05-.29.02-.59.19-.84.17-.24.43-.41.72-.46Z"/>
    <path class="cls-3" d="M536.1,621.75v69.35"/>
    <path d="M536.1,630.89c6.18,0,11.2-5.02,11.2-11.21s-5.01-11.22-11.2-11.22-11.2,5.02-11.2,11.22,5.01,11.21,11.2,11.21Z"/>
    <path class="cls-3" d="M559.2,553.72v133.97"/>
    <path d="M559.2,563.44c6.18,0,11.2-5.02,11.2-11.22s-5.01-11.21-11.2-11.21-11.2,5.02-11.2,11.21,5.01,11.22,11.2,11.22Z"/>
    <path class="cls-3" d="M582.3,513.94v171.6"/>
    <path d="M582.3,522.37c6.18,0,11.2-5.02,11.2-11.22s-5.01-11.21-11.2-11.21-11.2,5.02-11.2,11.21,5.01,11.22,11.2,11.22Z"/>
    <path class="cls-3" d="M489.9,621.75v69.35"/>
    <path d="M489.9,630.89c6.18,0,11.2-5.02,11.2-11.21s-5.01-11.22-11.2-11.22-11.2,5.02-11.2,11.22,5.01,11.21,11.2,11.21Z"/>
    <path class="cls-3" d="M466.8,553.72v133.97"/>
    <path d="M466.8,563.44c6.18,0,11.2-5.02,11.2-11.22s-5.01-11.21-11.2-11.21-11.2,5.02-11.2,11.21,5.01,11.22,11.2,11.22Z"/>
    <path class="cls-3" d="M443.7,513.94v168.61"/>
    <path d="M443.7,522.37c6.19,0,11.2-5.02,11.2-11.22s-5.01-11.21-11.2-11.21-11.2,5.02-11.2,11.21,5.01,11.22,11.2,11.22Z"/>
    <path class="cls-2" d="M513,486.62v207.38"/>
    <path d="M513,500.9c6.18,0,11.2-5.02,11.2-11.22s-5.01-11.21-11.2-11.21-11.2,5.02-11.2,11.21,5.01,11.22,11.2,11.22Z"/>
    <path class="cls-3" d="M726.45,64.64c59.72,43.77,103.97,105.46,126.33,176.11,22.35,70.66,21.65,146.61-2.01,216.84-23.66,70.23-69.05,131.08-129.58,173.73-60.53,42.65-133.05,64.87-207.04,63.45-73.99-1.42-145.61-26.42-204.46-71.36-58.85-44.94-101.87-107.49-122.82-178.58-20.95-71.09-18.75-147.01,6.3-216.75,25.04-69.75,71.62-129.69,132.98-171.13"/>
  </g>
  <text class="cls-1" transform="translate(10.34 953.33)"><tspan x="0" y="0">uOttaHack</tspan></text>
</svg>