<?xml version="1.0" encoding="utf-8"?>
<!-- Generator: Adobe Illustrator 22.1.0, SVG Export Plug-In . SVG Version: 6.00 Build 0)  -->
<svg version="1.1" id="Layer_1" xmlns="http://www.w3.org/2000/svg" xmlns:xlink="http://www.w3.org/1999/xlink" x="0px" y="0px"
	 width="250.5px" height="239.68px" viewBox="0 0 250.5 239.68" enable-background="new 0 0 250.5 239.68" xml:space="preserve">
<g>
	<path d="M241.05,50.53c-2.02-1.45-50.13-35.49-111.95-34.39l-1.04,0c-0.92-0.02-1.83-0.02-2.74-0.02
		c-60.68,0-106.54,34.05-108.49,35.52L12.9,54.6l2.11,7.32c1.38,5.32,26.71,99.38,108.34,172.28l4.83,5.23l5.26-4.74
		C216.38,159.9,242.51,63.07,243.57,59.04l1.52-5.61L241.05,50.53z"/>
	<path fill="#FFFFFF" d="M239.11,53.24c-1.98-1.42-49.26-34.74-110.01-33.77l-1.1,0c-60.88-1-107.22,33.36-109.16,34.83l-2.1,1.58
		l1.47,5.1c0.25,0.97,25.9,98.04,107.48,170.83l2.69,2.92l2.8-2.53c82.21-74.13,108.9-173.09,109.16-174.05l0.91-3.38L239.11,53.24z
		 M238.04,57.54c-0.26,0.97-26.76,99.25-108.45,172.9l-1.05,0.95l-1.22-1.33C46.27,157.84,20.77,61.36,20.52,60.39l-1.03-3.59
		l0.78-0.59c0.47-0.35,47.67-35.32,107.68-34.35h1.14c60.06-1.04,108.14,32.98,108.62,33.32l0.81,0.58L238.04,57.54z"/>
	<path fill="#FFD105" d="M128.63,229.38c82.32-74.22,108.03-172.21,108.03-172.21l0.22-0.82c0,0-47.49-34.07-107.78-33.05h-1.16
		c-60.29-1.02-106.8,34.06-106.8,34.06l0.77,2.68c0,0,24.7,96.19,106.46,169.06"/>
</g>
<g>
	<path fill="#FFFFFF" d="M163.26,171.45c-3.16-0.07-5.02-2.99-5.05-3.04c-1.09-1.7-1.1-2.53-1.09-2.85h17.04l-0.19-1.89
		c-2.17-22.1-8.83-29.92-9.09-30.21c-2.45-2.92-5.11-5.28-7.79-7.19l5.02-6.79c8.26,5.01,13.18,10.38,13.28,10.49l1.32,1.47
		l16.02-18.86l-1.1-1.12c-43.02-43.85-90.94-21.99-91.37-21.78c-6.18,2.65-11.74,6.11-16.51,10.28l-0.34,0.37
		c-29.79,26.01-15.74,74.64-15,77.1c6.62,32.46-14,49.98-14.21,50.15l-3.68,3.05h10.88l0.48-0.39
		c24.15-19.69,22.33-45.68,21.08-53.68l6.92-2.06c0.85,4.61,1.87,7.6,1.9,7.7c6.84,18.95-1.55,28.11-1.9,28.48l-5.62,5.81l7.5-3.01
		c30.07-12.07,41.52-2.2,41.72-2.02c21.38,17.04,45.7,22.75,46.72,22.99l2.41,0.55l-8.17-63.23L163.26,171.45z"/>
	<path d="M124.8,109.88c-10.55,1.52-18.14,6.1-18.14,6.1c-3.84,2.05-33.98,18.69-25.87,58.45c0,0,8.24,31.42-20.01,54.46H55.3
		c0,0,21.76-17.92,14.79-51.91c0,0-15.56-49.56,14.74-75.62l0.06-0.13c4.44-3.88,9.74-7.28,16.06-10c0,0,46.8-22.08,89.46,21.41
		l-13.73,16.16C176.67,128.82,155.05,104.67,124.8,109.88 M180.58,232.76c0,0-24.71-5.67-46.03-22.66c0,0-11.73-10.95-43.43,1.77
		c0,0,9.61-9.94,2.28-30.26c0,0-11.49-32.82,10.33-50.14c1.5-0.93,0.33-2.29,0.33-2.29c-0.92-0.92-2.57,0.7-2.57,0.7
		s-7.8,6.61-12.02,19.21c0,0-3.59,9.94-0.78,23.95l-5.23,1.56c0,0-9.59-36.62,23.12-55.94c0,0,24.58-15.71,53.42,0.77l-3.56,4.82
		c-9.78-6.14-20.65-7.23-20.65-7.23c-2.4-0.08-2.31,1.22-2.31,1.22c-0.2,1.49,2.03,1.67,2.03,1.67s16.58,0.97,28.05,14.67
		c0,0,6.56,7.47,8.7,29.27h-15.67c0,0-2.75,0.91,0.17,5.5c0,0,2.28,3.75,6.47,3.84l9.69,0.26L180.58,232.76z M129.66,199.87
		c-45.24-21.59-25.61-61.47-25.61-61.47c-14.85,17.55-3.16,42.68-3.16,42.68c5.79,13.3,2.18,20.96,2.18,20.96
		C119.79,195.47,129.66,199.87,129.66,199.87z M154.15,148.36l8.29,0.16c-0.94-16.27-22.63-22.08-22.63-22.08
		C155.83,132.67,154.15,148.36,154.15,148.36z"/>
</g>
<g>
	<path d="M246.16,100.09l0.33,0.22l-0.01-3.44l1.32,0.87l-0.12-28.83l-9.84-6.57l-7.84-4.86l0,0.37c-2.19-2.54-4.82-4.99-8.16-6.95
		c-5.01-2.66-9.92-2.83-13.81-0.48c-0.97,0.59-1.82,1.33-2.61,2.17c-1.16-5.47-4.48-9.93-9.31-12.09l-5.26-2.19l-6.81-2.48
		c-1.33-0.49-2.54-0.89-3.61-1.19l-4.25-1.19l0.02,5.23c-2.8-4.8-6.74-8.19-11.33-9.27c-3.68-0.73-7.17,0.16-10.08,2.56
		c-0.91,0.75-1.71,1.66-2.46,2.65l-0.03-6.38l-6.04-0.78l-12.63-1.09l0.02,4.52c-1.94-2.72-4.91-4.29-8.62-4.31l-5.16,0.15
		c-0.36,0.02-0.73,0.03-1.1,0.04c-0.78,0.03-1.58,0.05-2.36,0.12l-9.87,0.9l0.01,2.73c-1.98-1.46-4.48-2.03-7.38-1.59l-8.62,1.68
		l-9.32,2.29l0,0.07l-8.08,2.48l-4.4,1.56l-4.41,1.67l-4.09,1.73l0-0.04l-1.23,0.56l-1.01,0.42l0,0.03l-6.4,2.92l-10.93,5.78v-0.1
		l-1.56,0.93l-1.32,0.7l0,0.09l-12.9,7.8l-11.41,7.74L0.25,77.39l0.07,21.59l1.31-1.07l0.01,3.3l3.32-2.72l9.79,38.82l0.09-0.06
		l0.73,2.88l4.66-3.3l7.86-5.14l0.61-3.84l0.58-0.38l1.24-8.38L31,116.1l1.99,9.14l0.25-0.15l0.66,3.11l7.05-4.11l5.64-2.9
		l0.68-3.87l0.47-0.24l5.86-33.5l0.02,5.18l1.3-0.56l0.01,3.57L66,87.07l9.09-3.26l8.7-2.58l7.02-1.68l7.39-1.45l12.48-1.84
		l8.92-0.75l8.65-0.16l7.43,0.18l4.23,0.3l11.26,1.11l-0.01-3.67l1.31,0.13l-0.01-2.74c2.63,5.17,6.66,8.71,11.47,9.63
		c0.93,0.21,1.84,0.32,2.73,0.32c2.42,0,4.66-0.78,6.59-2.32c1.19-0.96,2.21-2.18,3.07-3.62l0.02,3.97l1.3,0.43l0.01,3.6l9.85,3.27
		l0.87,0.32c0.64,0.24,1.3,0.48,1.89,0.74l2.89,1.3v-0.12l2.99,1.23l6.57,3.08l0.08,23.34l1.31,0.67l0.01,3.53l14.83,7.56
		l-0.01-1.85c2.35,3.28,5.61,6.86,10.45,9.64c3.61,2.21,6.57,2.97,8.91,2.97c1.96,0,3.5-0.53,4.65-1.17
		c2.24-1.26,4.83-4.01,5.71-9.94c0.97-2.37,1.61-5.49,1.59-9.63C250.23,111.55,248.88,105.76,246.16,100.09z M56.1,72.11l-0.53,0.29
		l1.15-6.38l0.52-0.23L56.1,72.11z M83.58,62.46l-2.94-13.62l0-0.56l1.31-0.32l0-0.38l0.65-0.16l0.02,3.63l1.06-0.25l0.04,11.63
		L83.58,62.46z M108.96,50.62c0.02-0.05,0.03-0.11,0.04-0.16l0,0.27C108.98,50.69,108.97,50.65,108.96,50.62z M135.18,56.79
		l-0.01-1.95c0-1.67-0.15-3.02-0.43-4.17c0.66-1.41,1.13-3.26,1.15-5.71l0.27,0.02l0.04,11.88L135.18,56.79z M165.36,59.28
		c-0.17,0.14-0.22,0.12-0.39,0.08c-1.35-0.27-3.41-3.41-3.42-7.53c0-0.16,0.01-0.31,0.01-0.47c0.23-0.34,0.47-0.62,0.71-0.81
		c0.38-0.31,0.76-0.46,1.18-0.46c0.12,0,0.25,0.01,0.38,0.04c1.04,0.26,2.12,1.31,2.95,2.93c0.04,0.43,0.08,0.87,0.08,1.34
		C166.87,56.93,166.09,58.7,165.36,59.28z"/>
	<g>
		<path fill="#FFFFFF" d="M238.39,90.71c-0.8-0.95-1.62-1.84-2.46-2.67l10.32,6.87l-0.1-25.16l-9.12-6.1l-5.5-3.41l0,2.05
			c-2.62-3.63-5.79-7.31-10.41-10.02c-4.53-2.4-8.89-2.58-12.3-0.52c-4.15,2.51-6.51,8.13-6.48,15.42
			c0.05,14.44,7.18,22.01,14.11,27.49c0.17,0.15,0.34,0.29,0.52,0.43l-12.73-6.59l0.09,26.42l14.38,7.31l0-2.19
			c2.37,3.42,5.7,7.24,10.8,10.17c3.57,2.19,6.48,2.93,8.79,2.93c1.91,0,3.41-0.51,4.53-1.14c2.71-1.53,5.94-5.26,5.9-14.38
			C248.69,108.19,245.32,99.41,238.39,90.71z M219.89,69.47c0.09-0.05,0.23-0.09,0.43-0.09c0.42,0,1.1,0.16,2.04,0.72
			c2.25,1.34,5.6,4.85,8.97,13.92c-1.2-0.94-2.39-1.81-3.53-2.65c-4.86-3.57-8.37-6.14-8.38-10.34
			C219.42,70.24,219.6,69.64,219.89,69.47z M231.18,112.29c-0.25,0.15-1.06,0.19-2.43-0.6c-4.67-2.73-7.6-9.65-9.54-14.24
			l-0.37-0.88c1.09,0.85,2.16,1.66,3.21,2.45c5.35,4.03,9.57,7.22,9.58,11.74C231.62,111.55,231.45,112.13,231.18,112.29z"/>
		<path fill="#FFFFFF" d="M205.66,76.5l-2.22-1.06l-0.09-4.31c-0.01-3.46-0.52-5.32-1.87-7.07c1.63-1.04,2.9-3.07,2.89-7.19
			c-0.03-6.78-3.41-12.51-8.87-14.95l-5.19-2.16l-6.81-2.48c-1.29-0.48-2.47-0.86-3.49-1.15l-2.31-0.65l0.04,11.69l2.32,0.71
			l0.07,18.38l-2.33-0.69l0.05,11.95l9.7,3.23l0.89,0.33c0.64,0.24,1.3,0.48,1.88,0.74l2.57,1.15v-0.1l3.31,1.35l9.48,4.45
			L205.66,76.5z M191.85,70.36l-1.06-0.47l-0.01-4.08c1.42,0.85,1.93,2.15,2.02,5.02L191.85,70.36z M193.29,56.06
			c-0.25-0.04-0.73-0.17-1.61-0.55l-0.94-0.4l-0.01-3.39l0.63,0.31c1.42,0.57,2.01,1.48,2.01,3.14
			C193.38,55.63,193.33,55.9,193.29,56.06z"/>
		<path fill="#FFFFFF" d="M164.57,30.92c-3.21-0.63-6.27,0.14-8.81,2.24c-4.11,3.39-6.45,9.81-6.43,17.6
			c0.04,12.68,6.09,22.69,14.63,24.33c0.91,0.21,1.81,0.31,2.68,0.31c2.37,0,4.56-0.77,6.45-2.27c3.92-3.13,6.06-9.08,6.03-16.75
			C179.08,43.81,172.85,32.87,164.57,30.92z M166.31,60.48c-0.5,0.4-1.01,0.53-1.63,0.39c-2.19-0.43-4.64-4.24-4.65-9.03
			c-0.01-3.49,1.07-5.62,2.09-6.45c0.41-0.34,0.85-0.51,1.33-0.51c0.14,0,0.28,0.01,0.43,0.04c2.16,0.54,4.5,4.3,4.52,9.48
			C168.4,57.08,167.58,59.47,166.31,60.48z"/>
		<polygon fill="#FFFFFF" points="150.89,59.77 148.38,59.44 148.32,40.88 150.83,41.18 150.79,29.6 146.12,28.99 135.18,28.05 
			135.22,39.7 137.67,39.89 137.74,58.51 135.28,58.33 135.32,70.28 139.92,70.61 150.94,71.7 		"/>
		<path fill="#FFFFFF" d="M135.99,58.6l-2.33-0.16l-0.01-3.69c-0.01-3.36-0.46-5.22-1.88-6.54c1.47-1.49,2.92-3.98,2.9-8.44
			c-0.03-7.1-3.76-11.71-9.59-11.74l-6.21,0.19c-0.77,0.02-1.56,0.05-2.33,0.11l-8.46,0.76l0.04,11.76l2.37-0.38l0.07,18.64
			l-2.38,0.22l0.05,11.92l4.82-0.47l5.56-0.42l8.66-0.17l8.78,0.21L135.99,58.6z M121.19,58.45l-0.02-4.53
			c0.68-0.02,1.05,0.09,1.28,0.31c0.66,0.64,0.7,2.94,0.7,4.04L121.19,58.45z M121.23,43.51l-0.09,0.01l-0.01-3.74l1.32-0.03
			c0.48-0.01,0.82,0.06,0.95,0.19c0.08,0.07,0.32,0.39,0.32,1.44C123.73,43.35,123.19,43.45,121.23,43.51z"/>
		<path fill="#FFFFFF" d="M110.67,59.27l-2.33,0.19l-0.01-3.36c-0.01-3.33-0.48-5.2-1.87-6.37c1.47-1.66,2.9-4.3,2.89-8.83
			c-0.01-3.94-1.14-6.98-3.25-8.8c-1.71-1.48-3.98-2.06-6.63-1.67l-8.54,1.66l-8.16,2.01l0.04,11.68l2.36-0.57l0.07,18.5l-2.37,0.55
			l0.05,11.95l7.84-1.88l5.73-1.13l14.21-2.16L110.67,59.27z M95.87,61.41l-0.02-4.49l0.23-0.03c0.68-0.13,1.06-0.08,1.18,0.02
			c0.37,0.31,0.57,1.6,0.58,3.83l0,0.34L95.87,61.41z M95.82,46.52l-0.02-3.71l1.61-0.31c0.54-0.1,0.75-0.04,0.77-0.04
			c0.02,0.02,0.21,0.28,0.21,1.2C98.4,45.79,97.64,46.17,95.82,46.52z"/>
		<path fill="#FFFFFF" d="M84.97,63.67l-2.55,0.67L78.7,47.18l1.7-0.41l-0.04-11.92l-6.7,2.06l-4.37,1.54l-4.36,1.65l-5.39,2.28
			L59.6,54.4L61,53.75L57.46,73.2l-2.35,1.18l0.04,12.04l10.76-4.56l9.11-3.26l10-2.96L84.97,63.67z M69.74,68.4v0.11l-1.68,0.52
			l0.17-1l3.34-1.2l0.2,0.8L69.74,68.4z"/>
		<path fill="#FFFFFF" d="M58.73,42.75l-6.57,3l-12.82,6.79l0.06,17.16l2.15-1.15L39.2,83.37l-1.59-7.46
			c-0.14-0.7-0.29-1.4-0.44-2.11c-0.17-0.78-0.34-1.58-0.49-2.37L39.24,70l-0.07-17.33l-13.4,8.1l-4.3,2.93l0.06,17.22l2.16-1.37
			L22.07,89.8c-0.16,1.4-0.44,2.96-0.71,4.47c-0.02,0.09-0.03,0.17-0.05,0.26l-0.35-1.59c-0.18-1.15-0.44-2.32-0.69-3.48
			c-0.16-0.74-0.33-1.48-0.48-2.26l-0.96-4.37l0.82-0.6l1.55-0.83l-0.06-17.45l-6.88,4.64l-12.5,9.56l0.06,17.62l3.31-2.72
			l10.53,41.74l4.4-3.13l7.77-5.08l2.99-18.88c0.12,0.54,0.23,1.08,0.32,1.62l2.89,13.56l6.79-3.97l5.55-2.86l7.38-42.21l2.31-12.78
			l2.73-1.19L58.73,42.75z"/>
	</g>
	<path d="M233.36,68.13v-1.16l-0.01-1.24l0-1.08l0-1.16l2.73,1.69l2.73,1.85l2.73,1.84l2.81,1.85l0.02,5.11l0.02,5.18l0.02,5.27
		l0.02,5.26l-2.82-1.85l-2.73-1.85l-2.73-1.85l-2.81-1.77c-1.08-3.01-4.5-12.36-10.04-15.67c-3.22-1.92-5.7-0.98-5.68,2.49
		c0.03,8.52,11.35,11.18,19.39,20.82c5.72,7.18,9.88,15.6,9.91,25.73c0.04,12.53-6.54,17.12-16.47,11.04
		c-7.77-4.46-11.26-11.18-13.59-14.96l0.01,1.32l0,1.39l0.01,1.39l0,1.47l-2.73-1.39l-2.65-1.38l-2.73-1.3l-2.64-1.38l-0.02-5.73
		l-0.02-5.57l-0.02-5.5l-0.02-5.57l2.73,1.38l2.73,1.46l2.81,1.46l2.81,1.46c2.08,4.87,5.17,12.82,10.71,16.06
		c3.22,1.85,5.61,0.91,5.6-2.5c-0.03-7.12-7.96-10.88-15.82-17.51c-7.12-5.62-13.42-12.72-13.46-26.11
		c-0.04-12.14,6.7-18.28,16.12-13.29C226.56,57.56,230.12,63.42,233.36,68.13 M179.64,70.01l0,2.02l0.01,2.06l0.01,2.1l2.82,0.88
		l2.87,1.02l2.86,0.97c0.94,0.36,1.97,0.71,2.87,1.11l-0.01-2.1l-0.01-2.05l0-2.01l-0.01-2.01l-0.54-0.27l-0.49-0.18l-0.54-0.18
		l-0.49-0.18l0-2.05l-0.01-2.01l-0.01-2.01l0-2.01l0.4,0.13l0.45,0.18l0.45,0.18l0.45,0.18c3.49,1.46,3.9,4.19,3.92,7.94l0,2.45
		l0.01,2.47l0.01,2.5l0.01,2.5l2.28,0.93l2.33,1.02l2.29,1.11l2.33,1.11l0-2.1l0-2.01l-0.01-2.01l0-2.01l-0.58-0.27l-0.59-0.3
		l-0.58-0.27l-0.54-0.27l-0.01-1.39l0-1.34l-0.01-1.34l0-1.34c-0.02-4.42-0.87-5.63-3.29-7.85c1.79-0.28,4.33-0.77,4.32-6.4
		c-0.02-6.17-3.03-11.17-7.77-13.3l-1.66-0.71l-3.44-1.41l-3.36-1.24l-3.45-1.24c-1.07-0.4-2.24-0.79-3.36-1.11l0,1.93l0,1.97
		l0.01,2.06l0.01,2.01l0.58,0.18l0.58,0.18l0.59,0.18l0.58,0.17l0.02,5.54l0.02,5.54l0.02,5.5l0.02,5.59l-0.58-0.18l-0.58-0.18
		l-0.58-0.18L179.63,68 M192.04,50.34c1.66,0.67,3.14,1.96,3.15,4.82c0.01,3.62-2.22,2.87-4.19,2.02l-0.54-0.22l-0.49-0.22
		l-0.54-0.18l-0.49-0.17l-0.01-1.84l0-1.88l-0.01-1.79l-0.01-1.83l0.76,0.27l0.76,0.31l0.8,0.31L192.04,50.34 M151.15,50.76
		c0.04,11.8,5.44,21.08,13.22,22.57c7.51,1.72,12.99-5.05,12.95-16.94c-0.04-11.62-5.62-21.93-13.09-23.69
		C156.62,31.2,151.11,39.23,151.15,50.76 M164.26,43.16c3.13,0.75,5.92,5.29,5.94,11.24c0.02,5.28-2.65,8.99-5.87,8.25
		c-3.36-0.66-6.1-5.48-6.12-10.8C158.19,46.13,160.86,42.45,164.26,43.16 M137.6,38.07l0.63,0.04l0.58,0.04l0.67,0.09l0.02,5.5
		l0.02,5.59l0.02,5.59l0.02,5.59l-0.67-0.09l-0.58-0.04l-0.63-0.05l-0.58-0.04l0.01,2.06l0.01,2.1l0.01,2.01l0,2.15l2.95,0.21
		l3,0.26l2.99,0.26l3.04,0.34l-0.01-2.14l-0.01-2.01l0-2.1l-0.01-2.05l-0.67-0.09l-0.58-0.08l-0.67-0.09l-0.58-0.04l-0.02-5.59
		l-0.02-5.54l-0.02-5.59l-0.02-5.49l0.59,0.04l0.67,0.09l0.58,0.09l0.68,0.08L149,37.13l-0.01-2.01l0-2.01l-0.01-1.92l-3.04-0.4
		l-3-0.3l-3-0.21l-2.95-0.25l0.01,1.96l0.01,1.97l0,2.01l0.01,2.06 M110.01,63.06l0.01,2.06l0.01,2.01l0.01,2.14l2.86-0.28
		l2.81-0.24l2.86-0.19l2.91-0.06l-0.01-2.14l-0.01-2.01l-0.01-2.06l0-2.06l-0.54,0.05l-0.53,0h-0.54l-0.45,0l-0.01-2.06l0-2.01
		l-0.01-2.06l-0.01-2.06h0.81l0.45,0l0.45,0c3.49-0.1,3.9,2.45,3.91,6.29l0.01,2.46l0.01,2.51l0.01,2.5l0.01,2.54l2.28-0.01
		l2.28,0.04l2.32,0.03l2.33,0.08l-0.01-2.14l0-2.01l-0.01-2.05l-0.01-2.06l-0.62-0.04l-0.54,0l-0.58,0l-0.58-0.04l0-1.39l0-1.38
		l0-1.34l-0.01-1.34c-0.01-4.47-0.82-5.32-3.24-6.38c1.78-1.12,4.28-2.88,4.26-8.6c-0.02-6.26-3.03-9.91-7.72-9.94l-1.65,0.05
		l-3.45,0.1c-1.07,0.05-2.23,0.05-3.35,0.15l-3.4,0.28l-3.39,0.33l0.01,1.97l0.01,1.97l0.01,2.01l0.01,2.06l0.58-0.09l0.62-0.05
		l0.54-0.04l0.63-0.05l0.02,5.54l0.01,5.59l0.02,5.59l0.02,5.59l-0.63,0l-0.54,0.04l-0.63,0.09L110,61 M122.39,37.94
		c1.65-0.05,3.14,0.57,3.14,3.43c0.01,3.67-2.22,3.9-4.14,3.95l-0.54,0.05l-0.53,0h-0.54l-0.45,0.01l0-1.83l-0.01-1.88l-0.01-1.83
		l0-1.83l0.72,0l0.76,0l0.81-0.05L122.39,37.94 M84.7,67.71l0.01,2.06l0.01,2.06l0.01,2.1l2.85-0.68l2.82-0.68l2.85-0.59l2.91-0.55
		l-0.01-2.14l-0.01-2.01l0-2.06l-0.01-2.01l-0.54,0.09l-0.54,0.09l-0.54,0.09l-0.45,0.09l-0.01-2.06l0-2.01l-0.01-2.06l-0.01-2.01
		l0.4-0.09l0.4-0.09l0.44-0.09l0.45-0.05c3.49-0.68,3.9,1.82,3.91,5.62l0.01,2.46l0.01,2.5l0.01,2.5l0.01,2.55l2.28-0.37l2.28-0.28
		l2.32-0.32l2.32-0.32l-0.01-2.15l-0.01-2.01l0-2.05l0-2.01l-0.63,0.05l-0.54,0.09l-0.58,0.05l-0.58,0.14l-0.01-1.38l0-1.39l0-1.34
		l0-1.34c-0.02-4.47-0.82-5.23-3.24-5.93c1.78-1.4,4.28-3.5,4.26-9.27c-0.02-6.22-3.03-9.38-7.72-8.69l-1.65,0.32l-3.44,0.64
		l-3.35,0.68l-3.4,0.86l-3.39,0.82l0.01,1.92l0,2.01l0.01,2.01l0.01,2.02l0.58-0.14l0.63-0.13l0.54-0.14l0.62-0.18L87,48.44
		l0.02,5.59l0.02,5.54l0.02,5.59l-0.63,0.14l-0.53,0.13l-0.63,0.14l-0.58,0.14 M97.07,40.72c1.65-0.32,3.13,0.07,3.14,2.94
		c0.01,3.66-2.22,4.29-4.14,4.66l-0.54,0.09L95,48.5l-0.54,0.09l-0.45,0.09l-0.01-1.83L94,44.97l-0.01-1.83l-0.01-1.83l0.72-0.14
		l0.76-0.14l0.81-0.18L97.07,40.72 M59.76,82.46l2.76-1.17l2.77-1.13l2.77-0.99l-0.01-2.1l-0.01-2.06l-0.01-2.06l-0.01-2.01
		l-0.58,0.18l-0.54,0.18l-0.57,0.22l-0.58,0.23l0.22-1.3l0.22-1.25l0.22-1.25l0.22-1.25l1.57-0.58l1.61-0.59l1.56-0.54l1.61-0.54
		l0.22,1.02c0.05,0.36,0.19,0.76,0.19,1.12l0.27,1.12l0.23,1.12L73.25,69l-0.53,0.23l-0.58,0.18l-0.58,0.23l0.01,2.01l0.01,2.1
		l0.01,2.06l0.01,2.1l2.9-1.04l2.86-0.86l2.95-0.86l2.9-0.86l-0.01-2.1l-0.01-2.06l-0.01-2.1l-0.01-2.01l-0.54,0.14l-0.54,0.18
		l-0.54,0.14l-0.49,0.18l-1.14-5.22l-1.13-5.18l-1.09-5.13l-1.14-5.18l0.49-0.14l0.49-0.18l0.49-0.14l0.54-0.13l-0.01-2.06
		l-0.01-2.01l-0.01-2.01l0-1.97l-4.29,1.31l-4.33,1.53l-4.29,1.63l-4.27,1.81l0.01,1.96l0,1.97l0.01,2.06l0.01,2.01l0.49-0.23
		l0.49-0.18l0.49-0.22l0.54-0.23l-1.09,5.95l-1.1,5.95l-1.1,5.95l-1.05,5.99l-0.58,0.18l-0.53,0.23l-0.54,0.22l-0.49,0.27l0.01,2.01
		l0,2.1l0.01,2.01l0.01,2.1 M70.25,50.69l0.5,2.46l0.5,2.46l0.55,2.41l-1.03,0.36l-0.98,0.36L68.8,59.1l-1.03,0.4l0.48-2.82
		l0.52-2.86l0.48-2.77l0.48-2.77L70.25,50.69z M3.61,82.22l0.01,3.19l0.01,3.26l0.01,3.26l0.64-0.52l0.63-0.45l0.63-0.53l0.7-0.44
		l2.63,10.3l2.64,10.45l2.56,10.36l2.71,10.67l2.31-1.64l2.32-1.49l2.38-1.56l2.38-1.57l1.03-6.97l1.17-6.9l1.1-6.9l1.17-6.82
		c0.29,1.85,0.79,3.7,1.07,5.48c0.36,1.85,0.93,3.77,1.22,5.55l1.15,5.56l1.21,5.56l2.32-1.34l2.38-1.42l2.39-1.27l2.38-1.2
		l2.41-13.8l2.41-13.72l2.4-13.8l2.48-13.72l0.56-0.22l0.7-0.37l0.56-0.23l0.7-0.3l-0.01-3.34l-0.01-3.33l-0.01-3.26l-0.01-3.19
		l-3.92,1.79l-3.99,2.09l-3.92,2.09l-3.93,2.09l0.01,3.19l0.01,3.26l0.01,3.34l0.01,3.26l0.7-0.37l0.63-0.3l0.7-0.38l0.7-0.37
		l-1.17,7.04l-1.1,6.98l-1.1,7.05l-1.1,7.12l-1.22-5.78l-1.21-5.7l-1.21-5.71c-0.36-1.85-0.86-3.77-1.14-5.7l0.63-0.45l0.69-0.37
		l0.71-0.45l0.7-0.37l-0.01-3.26l-0.01-3.34l-0.01-3.26l-0.01-3.19l-3.5,2.09l-3.58,2.16l-3.5,2.16l-3.51,2.39l0.01,3.19l0.01,3.27
		l0.01,3.26l0.01,3.26l0.7-0.45l0.63-0.52l0.76-0.45l0.7-0.45l-1.17,7.2l-1.1,7.05c-0.27,2.3-0.82,4.97-1.17,7.2l-1.03,7.27
		l-1.29-5.7l-1.21-5.55c-0.29-1.86-0.79-3.78-1.15-5.64l-1.22-5.55l0.56-0.38l0.7-0.52l0.63-0.45l0.7-0.37l-0.01-3.26l-0.01-3.27
		l-0.01-3.26l-0.01-3.19l-3.99,2.68L11.44,73l-3.92,3.05L3.6,79.04"/>
</g>
<path d="M67,23.45L61.46,11.4l3-0.93l3.41,8.75l-1.63-9.3l3.16-0.98l3.59,8.69L71.16,8.4l2.6-0.81l2.25,13.07l-3.43,1.06l-4.14-9.33
	l1.94,10.01 M88.76,12.13l1.19-0.24l-1.6-5.59 M88.9,14.26l0.16,3.27l-2.54,0.5L86.12,4.7l4.13-0.83l4.25,12.56l-3,0.6l-0.97-3.1
	L88.9,14.26z M105.91,14.78l3.09-0.35l-1.23-11.09l2.08-0.23l-0.22-1.98l-7.3,0.81l0.22,1.95l2.14-0.23 M126.97,11.4l-3.27,0.09
	l-0.12-4.3l3.17-0.09l-0.06-1.97l-3.16,0.09l-0.08-2.9l3.23-0.09l-0.05-1.99l-6.35,0.18l0.37,13.14l6.4-0.18 M140.11,2.38
	l-0.19,3.39l0.45,0.03c0.43,0.02,0.72-0.1,0.9-0.39c0.17-0.28,0.28-0.74,0.31-1.38c0.04-0.61-0.03-1.02-0.19-1.25
	c-0.16-0.23-0.41-0.35-0.73-0.37 M139.48,13.65l-3.07-0.17l0.73-13.13l4.22,0.23c1.23,0.07,2.11,0.38,2.65,0.94
	c0.54,0.56,0.78,1.32,0.73,2.29c-0.05,0.97-0.34,1.69-0.86,2.18c-0.37,0.35-0.94,0.58-1.71,0.67l0,0.07
	c0.79,0.04,1.37,0.26,1.74,0.67c0.37,0.41,0.53,1.03,0.48,1.86l-0.15,2.67c-0.02,0.47-0.01,0.85,0.05,1.15
	c0.05,0.29,0.16,0.57,0.31,0.84l-3.2-0.18c-0.21-0.41-0.29-1.04-0.24-1.9l0.11-1.97c0.03-0.67,0.01-1.13-0.04-1.38
	c-0.06-0.26-0.18-0.45-0.34-0.57c-0.22-0.16-0.45-0.25-0.7-0.26l-0.39-0.02L139.48,13.65z M160.42,13.81l-3.3-0.47l1.55-11.05
	l-3.04-0.43l-1.83,13.02l6.36,0.89 M175.08,7.28c-0.17,0.11-0.29,0.32-0.36,0.64l-1.69,7.49c-0.07,0.35-0.07,0.61,0.04,0.79
	c0.1,0.17,0.28,0.29,0.52,0.35c0.24,0.05,0.46,0.02,0.63-0.1c0.18-0.11,0.3-0.36,0.38-0.72l1.65-7.32c0.08-0.38,0.08-0.67-0.02-0.85
	c-0.1-0.18-0.27-0.29-0.52-0.35C175.46,7.14,175.24,7.17,175.08,7.28 M179.19,7.51c0.16,0.57,0.13,1.3-0.08,2.22l-1.4,6.19
	c-0.14,0.65-0.4,1.22-0.77,1.71c-0.37,0.49-0.88,0.83-1.52,1.02c-0.64,0.19-1.42,0.18-2.33-0.02c-0.71-0.16-1.29-0.4-1.76-0.72
	c-0.46-0.32-0.81-0.71-1.04-1.17c-0.18-0.34-0.28-0.76-0.3-1.26c-0.01-0.3,0.04-0.69,0.14-1.17l1.43-6.38
	c0.16-0.69,0.38-1.24,0.69-1.64c0.4-0.53,0.93-0.9,1.58-1.1c0.65-0.2,1.42-0.21,2.31,0c0.93,0.2,1.63,0.51,2.11,0.89
	C178.72,6.47,179.04,6.95,179.19,7.51 M192.88,12.02c-0.18,0.1-0.32,0.3-0.42,0.61l-2.31,7.32c-0.11,0.34-0.11,0.6-0.03,0.78
	c0.09,0.19,0.26,0.32,0.49,0.39c0.25,0.08,0.46,0.06,0.64-0.04c0.18-0.11,0.33-0.34,0.44-0.7l2.26-7.15
	c0.11-0.37,0.13-0.65,0.05-0.84c-0.08-0.19-0.25-0.32-0.49-0.4C193.27,11.92,193.05,11.93,192.88,12.02 M196.95,12.61
	c0.1,0.58,0.01,1.31-0.27,2.21l-1.91,6.06c-0.2,0.63-0.51,1.18-0.92,1.64c-0.42,0.45-0.95,0.75-1.61,0.88
	c-0.66,0.13-1.43,0.06-2.32-0.22c-0.69-0.22-1.25-0.51-1.68-0.87c-0.43-0.36-0.75-0.78-0.94-1.25c-0.14-0.35-0.21-0.78-0.19-1.28
	c0.01-0.3,0.1-0.69,0.24-1.16l1.97-6.23c0.21-0.68,0.48-1.21,0.82-1.58c0.45-0.5,1-0.82,1.66-0.97c0.66-0.14,1.43-0.08,2.3,0.2
	c0.9,0.28,1.58,0.64,2.03,1.07C196.58,11.53,196.85,12.03,196.95,12.61"/>
</svg>
