<?xml version="1.0" encoding="UTF-8"?>
<svg xmlns="http://www.w3.org/2000/svg" version="1.1" viewBox="0 0 50 50">
  <defs>
    <style>
      .cls-1 {
        fill: #ffc43d;
      }
    </style>
  </defs>
  <!-- Generator: Adobe Illustrator 28.6.0, SVG Export Plug-In . SVG Version: 1.2.0 Build 709)  -->
  <g>
    <g id="Layer_1">
      <path class="cls-1" d="M20.1,23.4c2.8-1.3,4.2-3.3,4.2-6.4,0-6.1-4.6-7.6-9.8-7.6H0v30.8h14.9c5.6,0,10.8-2.7,10.8-8.9s-1.8-6.7-5.6-7.8ZM6.8,14.6h6.3c2.4,0,4.6.7,4.6,3.5s-1.7,3.7-4.1,3.7h-6.9v-7.2ZM14,34.9h-7.2v-8.5h7.4c3,0,4.9,1.2,4.9,4.4s-2.2,4.1-5,4.1ZM45.1,14h-12.5v-3h12.5v3ZM50,29.3c0-6.6-3.9-12.1-10.8-12.1s-11.4,5.1-11.4,11.8,4.4,11.7,11.4,11.7,8.8-2.4,10.4-7.5h-5.4c-.6,1.9-3,2.9-4.8,2.9-3.6,0-5.5-2.1-5.5-5.7h16.1c0-.4,0-.8,0-1.1ZM33.9,26.6c.2-2.9,2.1-4.8,5.1-4.8s4.6,1.8,4.9,4.8h-10Z"/>
    </g>
  </g>
</svg>