<?xml version="1.0" encoding="UTF-8"?>
<svg xmlns="http://www.w3.org/2000/svg" version="1.1" viewBox="0 0 50 50">
  <defs>
    <style>
      .cls-1 {
        fill: #ffc43d;
      }
    </style>
  </defs>
  <!-- Generator: Adobe Illustrator 28.6.0, SVG Export Plug-In . SVG Version: 1.2.0 Build 709)  -->
  <g>
    <g id="Layer_1">
      <path class="cls-1" d="M25,13.8c-6.2,0-11.2,5-11.2,11.2s5,11.2,11.2,11.2,11.2-5,11.2-11.2-5-11.2-11.2-11.2ZM25,32.3c-4,0-7.3-3.3-7.3-7.3s3.3-7.3,7.3-7.3,7.3,3.3,7.3,7.3-3.3,7.3-7.3,7.3ZM39.3,13.3c0,1.5-1.2,2.6-2.6,2.6s-2.6-1.2-2.6-2.6,1.2-2.6,2.6-2.6,2.6,1.2,2.6,2.6ZM46.7,16c-.2-3.5-1-6.6-3.5-9.2-2.6-2.6-5.7-3.4-9.2-3.5-3.6-.2-14.4-.2-18.1,0-3.5.2-6.6,1-9.2,3.5-2.6,2.6-3.4,5.7-3.5,9.2-.2,3.6-.2,14.4,0,18.1.2,3.5,1,6.6,3.5,9.2,2.6,2.6,5.7,3.4,9.2,3.5,3.6.2,14.4.2,18.1,0,3.5-.2,6.6-1,9.2-3.5,2.6-2.6,3.4-5.7,3.5-9.2.2-3.6.2-14.4,0-18ZM42.1,37.9c-.8,1.9-2.2,3.4-4.2,4.2-2.9,1.1-9.7.9-12.9.9s-10,.3-12.9-.9c-1.9-.8-3.4-2.2-4.2-4.2-1.1-2.9-.9-9.7-.9-12.9s-.3-10,.9-12.9c.8-1.9,2.2-3.4,4.2-4.2,2.9-1.1,9.7-.9,12.9-.9s10-.3,12.9.9c1.9.8,3.4,2.2,4.2,4.2,1.1,2.9.9,9.7.9,12.9s.3,10-.9,12.9Z"/>
    </g>
  </g>
</svg>