<?xml version="1.0" encoding="UTF-8"?>
<svg xmlns="http://www.w3.org/2000/svg" version="1.1" viewBox="0 0 50 50">
  <defs>
    <style>
      .cls-1 {
        fill: #ffc43d;
      }
    </style>
  </defs>
  <!-- Generator: Adobe Illustrator 28.6.0, SVG Export Plug-In . SVG Version: 1.2.0 Build 709)  -->
  <g>
    <g id="Layer_1">
      <path class="cls-1" d="M12.9,43.8H3.8V14.5h9.1v29.2ZM8.4,10.6c-2.9,0-5.3-2.4-5.3-5.3s.6-2.7,1.5-3.7C5.6.6,7,0,8.4,0s2.7.6,3.7,1.5c1,1,1.5,2.3,1.5,3.7,0,2.9-2.4,5.3-5.3,5.3ZM46.9,43.8h-9.1v-14.2c0-3.4,0-7.7-4.7-7.7s-5.4,3.7-5.4,7.5v14.5h-9.1V14.5h8.7v4h.1c1.2-2.3,4.2-4.7,8.6-4.7,9.2,0,10.9,6,10.9,13.9v16h0Z"/>
    </g>
  </g>
</svg>