<?xml version="1.0" encoding="utf-8"?>
<!-- Generator: Adobe Illustrator 28.0.0, SVG Export Plug-In . SVG Version: 6.00 Build 0)  -->
<svg version="1.1" id="Layer_1" xmlns="http://www.w3.org/2000/svg" xmlns:xlink="http://www.w3.org/1999/xlink" x="0px" y="0px"
	 viewBox="0 0 1000 1000" style="enable-background:new 0 0 1000 1000;" xml:space="preserve">
<style type="text/css">
	.st0{fill:#FFFFFF;}
	.st1{fill:#2A3881;}
	.st2{fill:#FDD83A;}
</style>
<g>
	<polygon class="st0" points="21.7,32.6 21.7,960.6 153.3,960.6 163.9,848.6 306.2,841.5 306.2,960.6 443.1,960.6 434.2,32.6 	"/>
	<polygon class="st0" points="562.2,702.8 562.2,981.9 715.1,981.9 715.1,842.3 846.5,842.3 830.7,960.6 978.2,981.9 978.2,717 
		770.2,567.7 	"/>
	<polygon class="st0" points="675.3,202.7 682.1,274.3 770.2,324.6 846.5,290.3 880.5,210.3 806.9,126.6 716.8,126.6 	"/>
	<path class="st1" d="M270.6,1002V865.4h-79.9v134.8H-0.2V-1.3l460.6,1.6v999.5L270.6,1002z M135.3,810.1h190.6V946l79.1-0.9V55.6
		L55.1,54.4v890.5h80.1V810.1z"/>
	<path class="st1" d="M810.1,1002V865.5h-79.9v134.5l-189.9,2V688.4l233.1-155.3L1000,688.7v311.3L810.1,1002z M674.8,810.1h190.6
		V946l79.1-0.9V717.8L772.9,599.9L595.6,718v227.9l79.1-0.9L674.8,810.1L674.8,810.1z"/>
	<path class="st2" d="M774.3,353.3c-70.4,0-127.6-57.3-127.6-127.6S704,98.1,774.3,98.1S902,155.2,902,225.6
		S844.7,353.3,774.3,353.3z M774.3,153.4c-39.8,0-72.2,32.4-72.2,72.2s32.4,72.2,72.2,72.2c39.8,0,72.2-32.4,72.2-72.2
		S814.2,153.4,774.3,153.4z"/>
	<rect x="741.8" y="2.3" class="st2" width="55.4" height="60.5"/>
	<rect x="751.5" y="388.5" class="st2" width="55.4" height="60.5"/>
	<rect x="937.2" y="193.1" class="st2" width="60.5" height="55.4"/>
	<rect x="551" y="202.7" class="st2" width="60.5" height="55.4"/>
	
		<rect x="886.6" y="328.6" transform="matrix(0.7071 -0.7071 0.7071 0.7071 14.073 751.5857)" class="st2" width="55.4" height="60.5"/>
	
		<rect x="606.7" y="62.3" transform="matrix(0.7071 -0.7071 0.7071 0.7071 120.3813 475.6571)" class="st2" width="55.4" height="60.5"/>
	
		<rect x="877.2" y="58" transform="matrix(0.7071 -0.7071 0.7071 0.7071 205.2246 666.7617)" class="st2" width="60.5" height="55.4"/>
	
		<rect x="610.9" y="337.9" transform="matrix(0.7071 -0.7071 0.7071 0.7071 -70.7511 560.4339)" class="st2" width="60.5" height="55.4"/>
</g>
</svg>
