<svg width="343" height="343" viewBox="0 0 343 343" fill="none" xmlns="http://www.w3.org/2000/svg">
<g clip-path="url(#clip0_294_313)">
<path d="M171.5 6C262.903 6.00005 337 80.0969 337 171.5C337 262.903 262.903 337 171.5 337C80.0969 337 6 262.903 6 171.5C6 80.0969 80.0969 6 171.5 6Z" stroke="white" stroke-width="12"/>
<path d="M171.5 47.8286C217.674 47.8286 259.25 61.9871 289.15 84.5942C319.047 107.199 337 137.982 337 171.498C337 205.014 319.047 235.797 289.15 258.402C259.25 281.009 217.674 295.167 171.5 295.167C125.326 295.167 83.7497 281.009 53.8496 258.402C23.9531 235.797 6 205.014 6 171.498C6.00011 137.982 23.9533 107.199 53.8496 84.5942C83.7497 61.9871 125.326 47.8286 171.5 47.8286Z" stroke="white" stroke-width="12"/>
<path d="M171.5 106.388C218.267 106.388 260.327 114.26 290.471 126.758C305.556 133.013 317.371 140.309 325.322 148.103C333.253 155.878 337 163.78 337 171.498C337 179.215 333.253 187.117 325.322 194.891C317.371 202.685 305.556 209.981 290.471 216.236C260.327 228.734 218.267 236.606 171.5 236.606C124.733 236.606 82.6734 228.734 52.5293 216.236C37.4438 209.981 25.6288 202.686 17.6777 194.891C9.74703 187.117 6.00014 179.215 6 171.498C6 163.78 9.74689 155.878 17.6777 148.103C25.6288 140.309 37.4438 133.013 52.5293 126.758C82.6734 114.26 124.733 106.388 171.5 106.388Z" stroke="white" stroke-width="12"/>
<path d="M171.5 6C205.016 6.00009 235.801 23.9534 258.405 53.8496C281.012 83.7493 295.17 125.325 295.17 171.498C295.17 217.672 281.012 259.247 258.405 289.146C235.801 319.043 205.016 336.996 171.5 336.996C137.983 336.996 107.199 319.043 84.5947 289.146C61.9875 259.247 47.8291 217.672 47.8291 171.498C47.8291 125.324 61.9874 83.7494 84.5947 53.8496C107.199 23.9533 137.983 6 171.5 6Z" stroke="white" stroke-width="12"/>
<path d="M171.499 6C179.216 6 187.118 9.74698 194.893 17.6777C202.688 25.6287 209.984 37.443 216.239 52.5283C228.738 82.6721 236.609 124.731 236.609 171.498C236.609 218.265 228.738 260.324 216.239 290.468C209.984 305.553 202.688 317.367 194.893 325.318C187.118 333.249 179.216 336.996 171.499 336.996C163.781 336.996 155.879 333.249 148.104 325.318C140.31 317.367 133.014 305.553 126.759 290.468C114.261 260.324 106.389 218.265 106.389 171.498C106.389 124.731 114.261 82.6721 126.759 52.5283C133.014 37.4433 140.31 25.6287 148.104 17.6777C155.879 9.74709 163.781 6.00011 171.499 6Z" stroke="white" stroke-width="12"/>
<path d="M166.79 93.2144C168.369 88.7859 174.631 88.7859 176.21 93.2143L194.987 145.897C195.506 147.355 196.671 148.49 198.142 148.971L252.476 166.748C257.069 168.251 257.069 174.749 252.476 176.252L198.142 194.029C196.671 194.51 195.506 195.645 194.987 197.103L176.21 249.786C174.631 254.214 168.369 254.214 166.79 249.786L148.013 197.103C147.494 195.645 146.329 194.51 144.858 194.029L90.5243 176.252C85.9307 174.749 85.9307 168.251 90.5243 166.748L144.858 148.971C146.329 148.49 147.494 147.355 148.013 145.897L166.79 93.2144Z" fill="white"/>
</g>
<defs>
<clipPath id="clip0_294_313">
<rect width="343" height="343" fill="white"/>
</clipPath>
</defs>
</svg>
