<svg width="61" height="61" viewBox="0 0 61 61" fill="none" xmlns="http://www.w3.org/2000/svg">
<path d="M59.7499 30.5003C59.7499 46.6548 46.6543 59.7506 30.5 59.7506C14.3457 59.7506 1.25 46.6548 1.25 30.5003C1.25 14.3458 14.3457 1.25 30.5 1.25C46.6543 1.25 59.7499 14.3458 59.7499 30.5003Z" stroke="#FFC43D" stroke-width="2.5"/>
<path d="M59.75 30.4984C59.75 36.3892 56.595 41.8141 51.3129 45.8079C46.03 49.8023 38.6757 52.3094 30.5 52.3094C22.3244 52.3094 14.9701 49.8023 9.68718 45.8079C4.40502 41.8141 1.25006 36.3892 1.25006 30.4984C1.25006 24.6077 4.40502 19.1828 9.68718 15.189C14.9701 11.1946 22.3244 8.6875 30.5 8.6875C38.6757 8.6875 46.03 11.1946 51.3129 15.189C56.595 19.1828 59.75 24.6077 59.75 30.4984Z" stroke="#FFC43D" stroke-width="2.5"/>
<path d="M59.75 30.4989C59.75 31.8073 59.1158 33.1684 57.7281 34.5288C56.3362 35.8932 54.2577 37.1796 51.588 38.2865C46.2543 40.498 38.7992 41.8952 30.5 41.8952C22.2008 41.8952 14.7458 40.498 9.41206 38.2865C6.74238 37.1796 4.66382 35.8932 3.27195 34.5288C1.8843 33.1684 1.25006 31.8073 1.25006 30.4989C1.25006 29.1905 1.8843 27.8293 3.27195 26.469C4.66382 25.1045 6.74238 23.8182 9.41206 22.7112C14.7458 20.4997 22.2008 19.1025 30.5 19.1025C38.7992 19.1025 46.2543 20.4997 51.588 22.7112C54.2577 23.8182 56.3362 25.1045 57.7281 26.469C59.1158 27.8293 59.75 29.1905 59.75 30.4989Z" stroke="#FFC43D" stroke-width="2.5"/>
<path d="M52.311 30.5C52.311 38.6756 49.8039 46.0299 45.8095 51.3128C41.8157 56.595 36.3908 59.7499 30.5 59.7499C24.6092 59.7499 19.1844 56.595 15.1906 51.3128C11.1962 46.0299 8.68909 38.6756 8.68909 30.5C8.68909 22.3243 11.1962 14.97 15.1906 9.68712C19.1844 4.40495 24.6092 1.25 30.5 1.25C36.3908 1.25 41.8157 4.40495 45.8095 9.68712C49.8039 14.97 52.311 22.3243 52.311 30.5Z" stroke="#FFC43D" stroke-width="2.5"/>
<path d="M41.8964 30.5C41.8964 38.7992 40.4992 46.2542 38.2877 51.5879C37.1807 54.2576 35.8944 56.3362 34.5299 57.728C33.1696 59.1157 31.8084 59.7499 30.5 59.7499C29.1916 59.7499 27.8305 59.1157 26.4701 57.728C25.1057 56.3362 23.8193 54.2576 22.7124 51.5879C20.5009 46.2542 19.1037 38.7992 19.1037 30.5C19.1037 22.2008 20.5009 14.7457 22.7124 9.412C23.8193 6.74232 25.1057 4.66376 26.4701 3.27189C27.8305 1.88424 29.1916 1.25 30.5 1.25C31.8084 1.25 33.1696 1.88424 34.5299 3.27189C35.8944 4.66376 37.1807 6.74232 38.2877 9.412C40.4992 14.7457 41.8964 22.2008 41.8964 30.5Z" stroke="#FFC43D" stroke-width="2.5"/>
<path d="M30.5 14.8789L34.4767 26.5241L46.122 30.5008L34.4767 34.4775L30.5 46.1228L26.5234 34.4775L14.8781 30.5008L26.5234 26.5241L30.5 14.8789Z" fill="#1E50D0"/>
</svg>
