<svg width="95" height="94" viewBox="0 0 95 94" fill="none" xmlns="http://www.w3.org/2000/svg">
<path d="M92.4987 46.999C92.4987 71.8519 72.3517 91.999 47.4992 91.999C22.6467 91.999 2.49976 71.8519 2.49976 46.999C2.49976 22.1462 22.6467 1.99902 47.4992 1.99902C72.3517 1.99902 92.4987 22.1462 92.4987 46.999Z" stroke="#FFC43D" stroke-width="4"/>
<path d="M92.4987 46.9971C92.4987 56.0465 87.6523 64.3859 79.5267 70.5297C71.3999 76.6743 60.0831 80.5333 47.4992 80.5333C34.9154 80.5333 23.5986 76.6743 15.4718 70.5297C7.34616 64.3859 2.49976 56.0465 2.49976 46.9971C2.49976 37.9478 7.34616 29.6083 15.4718 23.4646C23.5986 17.3199 34.9154 13.4609 47.4992 13.4609C60.0831 13.4609 71.3999 17.3199 79.5267 23.4646C87.6523 29.6083 92.4987 37.9478 92.4987 46.9971Z" stroke="#FFC43D" stroke-width="4"/>
<path d="M92.4987 46.9983C92.4987 48.9887 91.5343 51.0684 89.4052 53.1556C87.2693 55.2494 84.0754 57.2271 79.9668 58.9306C71.7587 62.334 60.2808 64.4859 47.4992 64.4859C34.7177 64.4859 23.2398 62.334 15.0316 58.9306C10.923 57.2271 7.72917 55.2494 5.59329 53.1556C3.46416 51.0684 2.49976 48.9887 2.49976 46.9983C2.49976 45.008 3.46416 42.9283 5.59329 40.8411C7.72917 38.7473 10.923 36.7696 15.0316 35.066C23.2398 31.6626 34.7177 29.5107 47.4992 29.5107C60.2808 29.5107 71.7587 31.6626 79.9668 35.066C84.0754 36.7696 87.2693 38.7473 89.4052 40.8411C91.5343 42.9283 92.4987 45.008 92.4987 46.9983Z" stroke="#FFC43D" stroke-width="4"/>
<path d="M81.0355 46.9985C81.0355 59.5823 77.1765 70.8991 71.0319 79.0259C64.8881 87.1516 56.5487 91.998 47.4993 91.998C38.45 91.998 30.1105 87.1516 23.9668 79.0259C17.8221 70.8991 13.9631 59.5823 13.9631 46.9985C13.9631 34.4146 17.8221 23.0979 23.9668 14.9711C30.1105 6.84543 38.45 1.99902 47.4993 1.99902C56.5487 1.99902 64.8881 6.84543 71.0319 14.9711C77.1765 23.0979 81.0355 34.4146 81.0355 46.9985Z" stroke="#FFC43D" stroke-width="4"/>
<path d="M64.9871 46.9985C64.9871 59.7801 62.8352 71.258 59.4319 79.4661C57.7283 83.5747 55.7506 86.7686 53.6568 88.9044C51.5696 91.0336 49.4899 91.998 47.4995 91.998C45.5092 91.998 43.4295 91.0336 41.3423 88.9044C39.2485 86.7686 37.2708 83.5747 35.5672 79.4661C32.1639 71.258 30.012 59.7801 30.012 46.9985C30.012 34.2169 32.1639 22.739 35.5672 14.5309C37.2708 10.4223 39.2485 7.22844 41.3423 5.09255C43.4295 2.96343 45.5092 1.99902 47.4995 1.99902C49.4899 1.99902 51.5696 2.96343 53.6568 5.09255C55.7506 7.22844 57.7283 10.4223 59.4319 14.5309C62.8352 22.739 64.9871 34.2169 64.9871 46.9985Z" stroke="#FFC43D" stroke-width="4"/>
<path d="M47.4997 22.9258L53.6277 40.8711L71.573 46.9992L53.6277 53.1273L47.4997 71.0726L41.3716 53.1273L23.4263 46.9992L41.3716 40.8711L47.4997 22.9258Z" fill="white"/>
</svg>
