<svg width="205" height="57" viewBox="0 0 205 57" fill="none" xmlns="http://www.w3.org/2000/svg">
<path d="M28.5 0L35.1052 8.17117L45.2519 5.44302L45.7927 15.9361L55.6051 19.693L49.875 28.5L55.6051 37.307L45.7927 41.0639L45.2519 51.557L35.1052 48.8288L28.5 57L21.8948 48.8288L11.7481 51.557L11.2073 41.0639L1.39489 37.307L7.125 28.5L1.39489 19.693L11.2073 15.9361L11.7481 5.44302L21.8948 8.17117L28.5 0Z" fill="white"/>
<path d="M102.5 0L106.903 14.9474L119.252 5.44302L114.028 20.1241L129.605 19.693L116.75 28.5L129.605 37.307L114.028 36.8759L119.252 51.557L106.903 42.0526L102.5 57L98.0965 42.0526L85.7481 51.557L90.9715 36.8759L75.3949 37.307L88.25 28.5L75.3949 19.693L90.9715 20.1241L85.7481 5.44302L98.0965 14.9474L102.5 0Z" fill="#FFC43D"/>
<path d="M176.5 0L178.702 21.7237L193.252 5.44302L182.264 24.312L203.605 19.693L183.625 28.5L203.605 37.307L182.264 32.688L193.252 51.557L178.702 35.2763L176.5 57L174.298 35.2763L159.748 51.557L170.736 32.688L149.395 37.307L169.375 28.5L149.395 19.693L170.736 24.312L159.748 5.44302L174.298 21.7237L176.5 0Z" fill="white"/>
</svg>
