<svg width="96" height="343" viewBox="0 0 96 343" fill="none" xmlns="http://www.w3.org/2000/svg">
<path d="M95.9995 48L82.2375 59.1246L86.8323 76.2137L69.1598 77.1246L62.8323 93.6507L47.9995 84L33.1667 93.6507L26.8392 77.1246L9.1667 76.2137L13.7615 59.1246L-0.00048275 48L13.7615 36.8754L9.1667 19.7863L26.8392 18.8754L33.1667 2.34929L47.9995 12L62.8323 2.34929L69.1598 18.8754L86.8323 19.7863L82.2375 36.8754L95.9995 48Z" fill="white"/>
<path d="M95.9995 171.5L70.8249 178.839L86.8323 199.42L62.1064 190.714L62.8323 216.675L47.9995 195.25L33.1667 216.675L33.8927 190.714L9.1667 199.42L25.1742 178.839L-0.000482728 171.5L25.1742 164.161L9.1667 143.58L33.8927 152.286L33.1667 126.325L47.9995 147.75L62.8323 126.325L62.1064 152.286L86.8323 143.58L70.8249 164.161L95.9995 171.5Z" fill="white"/>
<path d="M95.9995 295L59.4122 298.708L86.8323 323.214L55.0529 304.708L62.8323 340.651L47.9995 307L33.1667 340.651L40.9461 304.708L9.1667 323.214L36.5868 298.708L-0.00048275 295L36.5868 291.292L9.1667 266.786L40.9461 285.292L33.1667 249.349L47.9995 283L62.8323 249.349L55.0529 285.292L86.8323 266.786L59.4122 291.292L95.9995 295Z" fill="white"/>
</svg>
