<svg width="204" height="57" viewBox="0 0 204 57" fill="none" xmlns="http://www.w3.org/2000/svg">
<path d="M28.5 0L34.3632 20.4301L55.6051 19.693L37.9868 31.5824L45.2519 51.557L28.5 38.475L11.7481 51.557L19.0132 31.5824L1.39489 19.693L22.6368 20.4301L28.5 0Z" fill="#FFC43D"/>
<path d="M102.5 0L107.487 19.8614L127.182 14.25L112.475 28.5L127.182 42.75L107.487 37.1386L102.5 57L97.5125 37.1386L77.8183 42.75L92.525 28.5L77.8183 14.25L97.5125 19.8614L102.5 0Z" fill="white"/>
<path d="M175.5 0L179.317 19.2843L195.653 8.34746L184.716 24.6827L204 28.5L184.716 32.3173L195.653 48.6525L179.317 37.7157L175.5 57L171.683 37.7157L155.347 48.6525L166.284 32.3173L147 28.5L166.284 24.6827L155.347 8.34746L171.683 19.2843L175.5 0Z" fill="#FFC43D"/>
</svg>
