<svg width="96" height="344" viewBox="0 0 96 344" fill="none" xmlns="http://www.w3.org/2000/svg">
<path d="M96 48L59.8794 59.8794L48 96L36.1206 59.8794L5.53125e-06 48L36.1206 36.1206L48 -2.09815e-06L59.8794 36.1206L96 48Z" fill="white"/>
<path d="M48 124L57.8748 158.409L93.6507 157.167L63.9777 177.191L76.2137 210.833L48 188.8L19.7863 210.833L32.0223 177.191L2.34929 157.167L38.1252 158.409L48 124Z" fill="white"/>
<path d="M48 248L56.4 281.451L89.5692 272L64.8 296L89.5692 320L56.4 310.549L48 344L39.6 310.549L6.43078 320L31.2 296L6.43078 272L39.6 281.451L48 248Z" fill="white"/>
</svg>
