<svg width="848" height="528" viewBox="0 0 848 528" fill="none" xmlns="http://www.w3.org/2000/svg">
<path d="M848 31.7693L785.611 426.838L733.824 429.616L657.23 146.012L629.21 255.421L577.839 242.265L630.863 35.2224L682.146 34.8868L752.616 295.814L795.62 23.498L848 31.7693Z" fill="white"/>
<path d="M556.862 152.304L563.19 183.747L460.337 396.174L412.608 373.065L506.686 178.762L403.848 88.0878L435.57 295.398L383.151 303.419L340.381 23.8982L384.126 0L556.862 152.304Z" fill="white"/>
<path d="M403.979 449.427L366.496 480.631L269.908 431.19L294.07 383.986L335.364 405.123L294.621 268.998L244.852 517.174L192.859 506.747L263.535 154.313L314.933 151.924L403.979 449.427Z" fill="white"/>
<path d="M211.334 15.7677L244.18 121.633L193.532 137.346L174.591 76.2961L55.4099 210.054L114.246 341.404L181.961 291.89L213.262 334.696L119.094 403.552L79.2459 392.988L0 216.069L4.4018 187.591L166.215 5.98633L211.334 15.7677Z" fill="white"/>
<path d="M666.187 327.219L587.744 338.752L519.25 473.312L624.279 471.026L625.434 524.041L476.093 527.295L451.886 488.759L546.702 302.486L566.474 288.281L658.472 274.754L666.187 327.219Z" fill="white"/>
<path d="M641.178 428.333L510.417 445.404L503.553 392.822L634.312 375.75L641.178 428.333Z" fill="white"/>
<path d="M444.432 166.49L457.31 184.201L479.213 184.22L461.493 197.089L461.484 218.992L448.605 201.281L426.702 201.272L444.422 188.393L444.432 166.49Z" fill="#FFC43D"/>
</svg>
