<svg width="800" height="473" viewBox="0 0 800 473" fill="none" xmlns="http://www.w3.org/2000/svg">
<path d="M774.962 26.6445L716.138 399.149L619.14 40.0017L569.145 235.219" stroke="#1D50D0" stroke-width="50" stroke-linejoin="bevel"/>
<path d="M411.634 363.24L508.613 162.946L345.743 19.3406L386.07 282.896" stroke="#1D50D0" stroke-width="50" stroke-linejoin="bevel"/>
<path d="M206.446 483.309L273.086 151.004L357.045 431.515L265.974 384.897" stroke="#1D50D0" stroke-width="50" stroke-linejoin="bevel"/>
<path d="M206.446 122.683L175.477 22.8647L22.9058 194.098L97.6257 360.912L186.415 295.989" stroke="#1D50D0" stroke-width="50" stroke-linejoin="bevel"/>
<path d="M624.591 284.384L537.847 297.139L448.446 472.773L589.258 469.705" stroke="#1D50D0" stroke-width="50" stroke-linejoin="bevel"/>
<path d="M478.118 395.761L601.41 379.665" stroke="#1D50D0" stroke-width="50" stroke-linejoin="bevel"/>
<path d="M419.139 157.569L431.282 174.268L451.934 174.286L435.226 186.42L435.217 207.072L423.074 190.373L402.422 190.364L419.13 178.221L419.139 157.569Z" fill="#FFC53E"/>
</svg>
