<svg width="800" height="498" viewBox="0 0 800 498" fill="none" xmlns="http://www.w3.org/2000/svg">
<path d="M775.056 26.6445L716.232 399.149L619.235 40.0017L569.239 235.219" stroke="#FFC43D" stroke-width="50" stroke-linejoin="bevel"/>
<path d="M411.728 363.24L508.707 162.946L345.837 19.3406L386.164 282.896" stroke="#FFC43D" stroke-width="50" stroke-linejoin="bevel"/>
<path d="M206.54 483.309L273.18 151.004L357.14 431.515L266.068 384.897" stroke="#FFC43D" stroke-width="50" stroke-linejoin="bevel"/>
<path d="M206.54 122.683L175.571 22.8647L23 194.098L97.7199 360.912L186.509 295.989" stroke="#FFC43D" stroke-width="50" stroke-linejoin="bevel"/>
<path d="M624.685 284.384L537.941 297.139L448.54 472.773L589.352 469.705" stroke="#FFC43D" stroke-width="50" stroke-linejoin="bevel"/>
<path d="M478.213 395.761L601.504 379.665" stroke="#FFC43D" stroke-width="50" stroke-linejoin="bevel"/>
<path d="M419.233 157.569L431.376 174.268L452.028 174.286L435.32 186.42L435.311 207.072L423.168 190.373L402.516 190.364L419.224 178.221L419.233 157.569Z" fill="#1D50D0"/>
</svg>
