<svg width="50" height="50" viewBox="0 0 50 50" fill="none" xmlns="http://www.w3.org/2000/svg">
<g clip-path="url(#clip0_60_61)">
<path d="M20.1389 23.3679C22.8993 22.0484 24.3403 20.0519 24.3403 16.9443C24.3403 10.8158 19.7743 9.32275 14.5052 9.32275H0V40.0866H14.9132C20.5035 40.0866 25.7552 37.4044 25.7552 31.1544C25.7552 27.2915 23.9236 24.4356 20.1389 23.3679ZM6.76215 14.5745H13.1076C15.5469 14.5745 17.7431 15.2603 17.7431 18.0901C17.7431 20.703 16.033 21.7533 13.6198 21.7533H6.76215V14.5745ZM13.9931 34.8609H6.76215V26.3887H14.1319C17.1094 26.3887 18.9931 27.63 18.9931 30.7811C18.9931 33.8887 16.7448 34.8609 13.9931 34.8609ZM45.1128 13.9669H32.6389V10.9373H45.1128V13.9669ZM50 29.2707C50 22.6821 46.1458 17.1873 39.158 17.1873C32.3698 17.1873 27.7604 22.2915 27.7604 28.9755C27.7604 35.9113 32.1267 40.6682 39.158 40.6682C44.4792 40.6682 47.9253 38.2724 49.5833 33.1769H44.184C43.6024 35.078 41.2066 36.0849 39.349 36.0849C35.7639 36.0849 33.8802 33.9842 33.8802 30.4165H49.9479C49.974 30.0519 50 29.6613 50 29.2707ZM33.8889 26.5623C34.0885 23.637 36.033 21.8054 38.967 21.8054C42.0399 21.8054 43.5851 23.6109 43.8455 26.5623H33.8889Z" fill="white"/>
</g>
<defs>
<clipPath id="clip0_60_61">
<rect width="50" height="50" fill="white"/>
</clipPath>
</defs>
</svg>
