<svg width="55" height="49" viewBox="0 0 55 49" fill="none" xmlns="http://www.w3.org/2000/svg">
<path d="M54.381 42.0707C56.1435 45.1257 53.9312 48.9444 50.411 48.9444H4.58852C1.06155 48.9444 -1.14055 45.1197 0.618491 42.0707L23.53 2.34578C25.2933 -0.710638 29.7099 -0.7051 31.47 2.34578L54.381 42.0707V42.0707ZM27.5 33.8576C25.0742 33.8576 23.1077 35.8242 23.1077 38.25C23.1077 40.6758 25.0742 42.6423 27.5 42.6423C29.9258 42.6423 31.8924 40.6758 31.8924 38.25C31.8924 35.8242 29.9258 33.8576 27.5 33.8576ZM23.3299 18.0694L24.0382 31.0555C24.0713 31.6632 24.5738 32.1389 25.1823 32.1389H29.8178C30.4263 32.1389 30.9287 31.6632 30.9619 31.0555L31.6702 18.0694C31.706 17.413 31.1834 16.8611 30.5261 16.8611H24.4739C23.8166 16.8611 23.2941 17.413 23.3299 18.0694V18.0694Z" fill="#FAFF00"/>
</svg>
