<?xml version="1.0" encoding="utf-8"?>
<!-- Generator: Adobe Illustrator 28.0.0, SVG Export Plug-In . SVG Version: 6.00 Build 0)  -->
<svg version="1.1" id="Art_Work" xmlns="http://www.w3.org/2000/svg" xmlns:xlink="http://www.w3.org/1999/xlink" x="0px" y="0px"
	 viewBox="0 0 1125.3 1000" style="enable-background:new 0 0 1125.3 1000;" xml:space="preserve">
<style type="text/css">
	.st0{fill:#ED1C24;stroke:#000000;stroke-width:10;stroke-linecap:round;stroke-linejoin:round;}
	.st1{fill:#010101;}
	.st2{fill:none;stroke:#010101;stroke-width:10;stroke-linecap:round;stroke-linejoin:round;}
	.st3{fill:#FCF0C0;stroke:#010101;stroke-width:10;stroke-linecap:round;stroke-linejoin:round;}
	.st4{fill:#FEDC4B;stroke:#010101;stroke-width:10;stroke-linecap:round;stroke-linejoin:round;}
	.st5{fill:#ED1C24;stroke:#010101;stroke-width:10;stroke-linecap:round;stroke-linejoin:round;}
	.st6{fill:#FFFFFF;stroke:#010101;stroke-width:10;stroke-linecap:round;stroke-linejoin:round;}
	.st7{fill:#010101;stroke:#010101;stroke-width:10;stroke-linecap:round;stroke-linejoin:round;}
</style>
<g id="Dragon_s_Head">
	<path class="st0" d="M413,702.9c-30-69.3-73.5-72.7-79.7-113.3c-2.3-15,4.6-28.9,12.7-39.3c-18.5-47.4-46.9-32-59.7-84.4
		c-10.8-43.9,21.6-54.3,12.3-143.3c10.4,25.4,19.7,68.2,74,67l57.2-68.8c0-12.8,14-23.1,31.2-23.1s31.2,10.4,31.2,23.1h141
		c0-12.8,14-23.1,31.2-23.1s31.2,10.4,31.2,23.1l57.2,68.8c54.3,1.2,63.6-41.6,74-67c-9.2,89,23.1,99.4,12.3,143.3
		c-12.9,52.4-41.2,37-59.7,84.4c8.1,10.4,15,24.3,12.7,39.3c-6.2,40.6-49.7,43.9-79.7,113.3c-30.1,69.3,8.1,270-149.1,270
		S443,772.3,413,702.9L413,702.9z"/>
	<polygon class="st1" points="362.6,574.6 349.3,582.6 340.8,603 346.5,621.9 408.3,612.6 384.1,584.8 	"/>
	<polygon class="st1" points="762.7,573.6 776.1,581.6 784.6,602 781.4,614.5 754.5,616.3 718.5,614.2 741.2,583.8 	"/>
	<path class="st2" d="M314.8,407.8c0,0-1.2,20.8,24.3,38.1c28.7,19.5,6.9,45.1,27.7,74"/>
	<path class="st2" d="M810.6,407.8c0,0,1.2,20.8-24.3,38.1c-28.7,19.5-6.9,45.1-27.7,74"/>
	<path class="st3" d="M694.1,622.8c57.3,22,161.5-25.7,119-72.5c33-10.5,57.7,54.9,89.4,46.8c31.7-8,55-32.8,18.6-61.1
		c29.2-10.9,35.3-36.1,32.9-51.6c-4.4-28.6-28.5-46.6-15.5-70.5c21.8-40.1,80.7,7.5,64.6-78c0,0,63.7,58.8,23.3,94.5
		c33.6,5.7,64.9,59.4,38.3,89.4c-29.8,33.7,34.6,19.4,38.9,108.5c2.3,47.4-33.5,63.6-82,60.1c0,0,12.7,28.9-11.6,43.9
		c-24.3,15-43.9,3.5-53.2-9.2c-19.7,45.1-61.1-3.6-73.7,31.5c-6.1,17,28.1,39.9,4.1,76.4c-13.7,20.8-53.9,16-86.4-9.6
		c25.4,71.7-68.2,99.4-110.9,74c-40.5-24.1-20.3,42-127.1,42s-86.6-66.1-127.1-42c-42.8,25.4-136.4-2.3-111-74
		c-32.5,25.6-72.7,30.4-86.4,9.6c-24-36.5,10.2-59.4,4.1-76.4c-12.7-35.1-54.1,13.6-73.7-31.5c-9.2,12.7-28.9,24.3-53.2,9.2
		c-24.3-15-11.6-43.9-11.6-43.9c-48.5,3.5-84.4-12.7-82-60.1c4.3-89.1,68.7-74.8,38.9-108.5c-26.6-30,4.7-83.8,38.3-89.4
		c-40.4-35.7,23.3-94.5,23.3-94.5c-16.1,85.5,42.8,37.9,64.6,78c13,24-11.1,41.9-15.5,70.5c-2.4,15.5,3.8,40.7,33,51.6
		c-36.4,28.3-13.2,53,18.5,61.1c31.7,8,56.3-57.4,89.4-46.8c-42.5,46.8,61.7,94.5,119,72.5"/>
	<path class="st2" d="M100.6,430.8c0,0,44.5-5.2,44.5,30.6c0,28-16.4,40.5-42.8,40.5s-25.4-49.7,1.2-49.7s25.4,28.9,3.5,28.9"/>
	<path class="st2" d="M323.6,823.3c0,0,11.8-33.6,52.6-18.8c31,11.3,15.6,72.7-18.8,62c-30.1-9.4-20.8-48.5,0-47
		c25.4,1.9,28.2,31,0.9,25.4"/>
	<path class="st2" d="M103.7,687.3c0,0,11.3-60,64.1-39.4c34.1,13.2,11.7,78.7-28.1,60.3c-33.5-15.5-6.7-51.5,11.7-44.3
		c22.5,8.8,14.5,34.3-4.6,26.6"/>
	<path class="st2" d="M1024.8,430.8c0,0-44.5-5.2-44.5,30.6c0,28,16.4,40.5,42.8,40.5s25.4-49.7-1.2-49.7
		c-25.4,0-25.4,28.9-3.5,28.9"/>
	<path class="st2" d="M801.7,823.3c0,0-11.8-33.6-52.6-18.8c-31,11.3-15.6,72.7,18.8,62c30.1-9.4,20.8-48.5,0-47
		c-25.4,1.9-28.2,31-0.9,25.4"/>
	<path class="st2" d="M1021.6,687.3c0,0-11.3-60-64.1-39.4c-34.1,13.2-11.7,78.7,28.1,60.3c33.5-15.5,6.7-51.5-11.7-44.3
		c-22.5,8.8-14.5,34.3,4.6,26.6"/>
	<path class="st4" d="M329.8,684.4c0,0,72.8,58.9,135.2,25.4c25.3-13.6-19.2-62.9-28.9-52C426.4,668.8,413,691.4,329.8,684.4
		L329.8,684.4z"/>
	<path class="st4" d="M795.5,684.4c0,0-72.8,58.9-135.2,25.4c-25.3-13.6,19.2-62.9,28.9-52C698.9,668.8,712.3,691.4,795.5,684.4
		L795.5,684.4z"/>
	<path class="st2" d="M780.5,612.8c4.6-6.9,5.8-15-1.2-26.6c-35.9-59.9-126,131.8-126,131.8s18.5,94.8-90.7,94.8
		S471.9,718,471.9,718s-83.5-184.8-126-131.8c-4.6,5.8-8.1,15-1.2,25.4"/>
	<path class="st5" d="M390.1,589.6C429.8,624.5,472,718,472,718s-18.5,92.8,90.7,92.8s90.7-92.8,90.7-92.8s45.3-96.5,84.5-131.2"/>
	<path class="st4" d="M326.3,20.3c0,0,5.9,214,136.5,323.8c5.2,46.8-34.1,73.4-74.4,60.7C289.4,244.7,326.3,20.3,326.3,20.3
		L326.3,20.3z"/>
	<path class="st4" d="M799,20.3c0,0-5.9,214-136.5,323.8c-5.2,46.8,34.1,73.4,74.4,60.7C835.9,244.7,799,20.3,799,20.3L799,20.3z"/>
	<path class="st2" d="M590.7,587.8c0-11.5-12.6-20.8-28.1-20.8s-28.1,9.3-28.1,20.8"/>
	<path class="st2" d="M533.6,427.3c16.3,0,29.6-15.3,29.6-34.3s-13.2-34.3-29.6-34.3"/>
	<path class="st2" d="M594,358.8c-16.3,0-29.6,15.3-29.6,34.3s13.2,34.3,29.6,34.3"/>
	<path class="st2" d="M600.1,628.1c0-15.3-16.8-27.7-37.4-27.7s-37.4,12.4-37.4,27.7"/>
	<path class="st2" d="M609.5,668.8c0-19.2-21-34.7-46.8-34.7s-46.8,15.5-46.8,34.7"/>
	<path class="st5" d="M642.4,326.7c0-38.3-35.7-69.3-79.7-69.3s-79.7,31-79.7,69.3"/>
	<path class="st2" d="M610,527.4c0,13.1-10.1,23.7-22.5,23.7S565,540.5,565,527.4c0,13.1-10.1,23.7-22.5,23.7S520,540.5,520,527.4"
		/>
	<path class="st4" d="M419.5,826.4c0,0,3.8,86.8,51.8,95.9c28.2,5.4,30.4-24,16-26.4C472.8,893.6,450.4,881.2,419.5,826.4z"/>
	<path class="st4" d="M491.6,929.8c0,0-20.8-39.5-5.3-84.7c0,0,5.3,50.2,36.5,76.5C512.4,950.2,491.6,929.8,491.6,929.8L491.6,929.8
		z"/>
	<path class="st4" d="M563.2,938.3c0,0-23.1-41.8-27.2-73.2c-12.1,32.6-15.6,73.2-15.6,73.2s10.4,9.4,21.4,9.2
		S563.2,938.3,563.2,938.3L563.2,938.3z"/>
	<path class="st4" d="M707,826.4c0,0-3.8,86.8-51.8,95.9c-28.2,5.4-30.4-24-16-26.4S676,881.2,707,826.4z"/>
	<path class="st4" d="M634.9,929.8c0,0,20.8-39.5,5.3-84.7c0,0-5.3,50.2-36.5,76.5C614.1,950.2,634.9,929.8,634.9,929.8L634.9,929.8
		z"/>
	<path class="st4" d="M563.2,938.3c0,0,23.1-41.8,27.2-73.2c12.1,32.6,15.6,73.2,15.6,73.2s-10.4,9.4-21.4,9.2
		S563.2,938.3,563.2,938.3L563.2,938.3z"/>
	
		<ellipse transform="matrix(0.1602 -0.9871 0.9871 0.1602 -145.2873 921.8352)" class="st6" cx="469.1" cy="546.3" rx="50.8" ry="50.8"/>
	<circle class="st7" cx="469.1" cy="546.3" r="23.1"/>
	<circle class="st6" cx="656.3" cy="546.3" r="50.8"/>
	<circle class="st7" cx="656.3" cy="546.3" r="23.1"/>
	<path class="st4" d="M491,426.1c0,0,59.7,51.5,35.3,95.3c-33.5,60.1-139.8-31.2-201.1-41.6c34.7-16.2,58.9-2.3,91.3,4.6
		c-27.7-6.9-42-18.3-63.6-76.7c13.9,33.1,41.6,32.8,41.6,32.8s-22.9-88.4,1.3-127.7c-9.2,82.1,64,182.6,102.5,153.1
		C512.1,455.5,491,426.1,491,426.1L491,426.1z"/>
	<path class="st4" d="M634.3,426.1c0,0-59.7,51.5-35.2,95.3c33.5,60.1,139.8-31.2,201.1-41.6c-34.7-16.2-58.9-2.3-91.3,4.6
		c27.7-6.9,41.9-18.3,63.6-76.7c-13.9,33.1-41.6,32.8-41.6,32.8s22.9-88.4-1.3-127.7c9.2,82.1-64,182.6-102.5,153.1
		C613.3,455.5,634.3,426.1,634.3,426.1L634.3,426.1z"/>
	<path class="st4" d="M496,712.4c0,0,18-62.8-25.2-86.4c-61.9-33.9-145.3,20.3-189.2-27.7c-63.3-69.1-32.2-151.4-29.6-190.5
		S248.2,271.5,145,247c61,40.6,87.7,92.6,87.5,146c-0.2,48.5-39.1,129.2,24.1,215.5c45.4,62,147.8,10.5,199.3,36.6
		c38.5,19.5,7.3,68,7.3,68L496,712.4L496,712.4z"/>
	<path class="st4" d="M633.9,712.4c0,0-18-62.8,25.2-86.4c61.9-33.9,145.3,20.3,189.2-27.7c63.3-69.1,32.2-151.4,29.6-190.5
		s3.8-136.3,106.9-160.8c-61,40.6-87.7,92.6-87.4,146c0.2,48.5,39.1,129.2-24.1,215.5c-45.4,62-147.8,10.5-199.3,36.6
		c-38.5,19.5-7.3,68-7.3,68L633.9,712.4L633.9,712.4z"/>
	<path class="st4" d="M603.7,789c28.9-16.2,40.3-27.8,39.3-42.8c-1.2-17.3-23.1-16.2-33.5,2.3c-5.7,10.2-10.4,31.8-46.8,31.8
		s-41.1-21.6-46.8-31.8c-10.4-18.5-32.4-19.7-33.5-2.3c-1,15,10.4,26.6,39.3,42.8c-62.4-1.2-86.8-51.6-77.4-77.4
		c9.2-25.4,42.8-24.3,60.1-3.5c3.8-15.7,10.4-35.2,58.4-35.2s54.6,19.5,58.4,35.2c17.3-20.8,50.8-22,60.1,3.5
		C690.5,737.4,666.1,787.9,603.7,789L603.7,789z"/>
</g>
</svg>
