<svg width="256" height="256" viewBox="0 0 256 256" fill="none" xmlns="http://www.w3.org/2000/svg">
<circle cx="128" cy="128" r="128" fill="black"/>
<path d="M46.5761 158L29.9261 103.25H42.6011L55.8011 149.45L52.9511 148.025H60.6011L57.6011 149.45L69.8261 103.25H82.1261L66.6011 158H46.5761ZM90.1687 158V103.25H102.469V158H90.1687ZM114.921 158V103.25H126.921V158H114.921ZM125.421 158V147.8H149.346V158H125.421ZM125.421 135.275V125.075H147.621V135.275H125.421ZM125.421 113.45V103.25H148.821V113.45H125.421ZM168.377 158L154.877 103.25H167.552L178.127 149.75L175.502 148.025H182.327L179.402 149.75L187.577 105.275H197.777L187.052 158H168.377ZM201.002 158L189.452 105.275H200.177L209.627 149.75L206.777 148.025H213.302L210.827 149.75L220.052 103.25H232.052L220.052 158H201.002Z" fill="white"/>
<path d="M198 128L93 188.622L93 67.3782L198 128Z" fill="white"/>
<mask id="mask0_139_12" style="mask-type:alpha" maskUnits="userSpaceOnUse" x="93" y="67" width="105" height="122">
<path d="M198 128L93 188.622L93 67.3782L198 128Z" fill="white"/>
</mask>
<g mask="url(#mask0_139_12)">
<path d="M46.5761 158L29.9261 103.25H42.6011L55.8011 149.45L52.9511 148.025H60.6011L57.6011 149.45L69.8261 103.25H82.1261L66.6011 158H46.5761ZM90.1687 158V103.25H102.469V158H90.1687ZM114.921 158V103.25H126.921V158H114.921ZM125.421 158V147.8H149.346V158H125.421ZM125.421 135.275V125.075H147.621V135.275H125.421ZM125.421 113.45V103.25H148.821V113.45H125.421ZM168.377 158L154.877 103.25H167.552L178.127 149.75L175.502 148.025H182.327L179.402 149.75L187.577 105.275H197.777L187.052 158H168.377ZM201.002 158L189.452 105.275H200.177L209.627 149.75L206.777 148.025H213.302L210.827 149.75L220.052 103.25H232.052L220.052 158H201.002Z" fill="black"/>
</g>
</svg>
